<svg width="352" height="42" viewBox="0 0 352 42" fill="none" xmlns="http://www.w3.org/2000/svg">
<g filter="url(#filter0_b_279_2409)">
<path fill-rule="evenodd" clip-rule="evenodd" d="M0.637207 0.933105H351.466V41.822H0.637207V0.933105Z" fill="white"/>
</g>
<g opacity="0.2">
<path fill-rule="evenodd" clip-rule="evenodd" d="M0.637207 41.4331H351.637V41.9331H0.637207V41.4331Z" fill="black"/>
</g>
<path d="M40.0191 10.1333H16.885C15.842 10.1333 14.9932 11.1003 14.9932 12.2887V30.4668C14.9932 31.6552 15.842 32.6222 16.885 32.6222H40.0191C41.0622 32.6222 41.911 31.6552 41.911 30.4668V12.2887C41.911 11.1003 41.0622 10.1333 40.0191 10.1333ZM41.0137 30.4668C41.0137 31.0914 40.5678 31.6 40.0191 31.6H16.885C16.3364 31.6 15.8904 31.0914 15.8904 30.4668V12.2887C15.8904 11.6641 16.3364 11.1555 16.885 11.1555H40.0191C40.5678 11.1555 41.0137 11.6641 41.0137 12.2887V30.4668Z" fill="black"/>
<path d="M22.1714 24.9556H18.1337C17.8856 24.9556 17.6851 25.1845 17.6851 25.4667C17.6851 25.7488 17.8856 25.9778 18.1337 25.9778H22.1714C22.4195 25.9778 22.62 25.7488 22.62 25.4667C22.62 25.1845 22.4195 24.9556 22.1714 24.9556Z" fill="black"/>
<path d="M28.0034 24.9556H23.9657C23.7176 24.9556 23.5171 25.1845 23.5171 25.4667C23.5171 25.7488 23.7176 25.9778 23.9657 25.9778H28.0034C28.2515 25.9778 28.452 25.7488 28.452 25.4667C28.452 25.1845 28.2515 24.9556 28.0034 24.9556Z" fill="black"/>
<path d="M18.5823 27.5112H18.1337C17.8856 27.5112 17.6851 27.7402 17.6851 28.0223C17.6851 28.3045 17.8856 28.5335 18.1337 28.5335H18.5823C18.8304 28.5335 19.0309 28.3045 19.0309 28.0223C19.0309 27.7402 18.8304 27.5112 18.5823 27.5112Z" fill="black"/>
<path d="M21.2741 27.5112H20.3769C20.1288 27.5112 19.9282 27.7402 19.9282 28.0223C19.9282 28.3045 20.1288 28.5335 20.3769 28.5335H21.2741C21.5222 28.5335 21.7227 28.3045 21.7227 28.0223C21.7227 27.7402 21.5222 27.5112 21.2741 27.5112Z" fill="black"/>
<path d="M23.5174 27.5112H23.0687C22.8207 27.5112 22.6201 27.7402 22.6201 28.0223C22.6201 28.3045 22.8207 28.5335 23.0687 28.5335H23.5174C23.7655 28.5335 23.966 28.3045 23.966 28.0223C23.966 27.7402 23.7655 27.5112 23.5174 27.5112Z" fill="black"/>
<path d="M26.2087 27.5112H25.3114C25.0633 27.5112 24.8628 27.7402 24.8628 28.0223C24.8628 28.3045 25.0633 28.5335 25.3114 28.5335H26.2087C26.4568 28.5335 26.6573 28.3045 26.6573 28.0223C26.6573 27.7402 26.4568 27.5112 26.2087 27.5112Z" fill="black"/>
<path d="M27.6848 27.6594C27.6036 27.7565 27.5547 27.8894 27.5547 28.0223C27.5547 28.1552 27.6036 28.2881 27.6848 28.3852C27.7696 28.4772 27.8867 28.5334 28.0033 28.5334C28.12 28.5334 28.2366 28.4772 28.3218 28.3852C28.4026 28.2881 28.4519 28.1552 28.4519 28.0223C28.4519 27.8894 28.4026 27.7565 28.3218 27.6594C28.1514 27.4703 27.8458 27.4703 27.6848 27.6594Z" fill="black"/>
<path d="M36.5274 22.9111C35.955 22.9111 35.4197 23.0895 34.9572 23.3952C34.4947 23.0895 33.9594 22.9111 33.387 22.9111C31.6557 22.9111 30.2466 24.516 30.2466 26.4889C30.2466 28.4618 31.6557 30.0667 33.387 30.0667C33.9594 30.0667 34.4947 29.8883 34.9572 29.5827C35.4197 29.8883 35.955 30.0667 36.5274 30.0667C38.2587 30.0667 39.6678 28.4618 39.6678 26.4889C39.6678 24.516 38.2587 22.9111 36.5274 22.9111ZM35.6301 26.4889C35.6301 27.2014 35.3717 27.8454 34.9572 28.3095C34.5427 27.8454 34.2843 27.2014 34.2843 26.4889C34.2843 25.7764 34.5427 25.1324 34.9572 24.6683C35.3717 25.1324 35.6301 25.7764 35.6301 26.4889ZM31.1438 26.4889C31.1438 25.0798 32.1501 23.9334 33.387 23.9334C33.6701 23.9334 33.9388 23.9998 34.1887 24.1097C33.6921 24.7424 33.387 25.575 33.387 26.4889C33.387 27.4028 33.6921 28.2354 34.1887 28.8681C33.9388 28.978 33.6701 29.0445 33.387 29.0445C32.1501 29.0445 31.1438 27.898 31.1438 26.4889ZM36.5274 29.0445C36.2443 29.0445 35.9756 28.978 35.7257 28.8681C36.2223 28.2354 36.5274 27.4028 36.5274 26.4889C36.5274 25.575 36.2223 24.7424 35.7257 24.1097C35.9756 23.9998 36.2443 23.9334 36.5274 23.9334C37.7643 23.9334 38.7706 25.0798 38.7706 26.4889C38.7706 27.898 37.7643 29.0445 36.5274 29.0445Z" fill="black"/>
<path d="M18.6967 21.3777H21.3885H22.057H24.7487C25.3064 21.3777 25.7604 20.8605 25.7604 20.2252V16.1363V15.3747C25.7604 14.7394 25.3064 14.2222 24.7487 14.2222H21.3885H18.6967C18.1391 14.2222 17.6851 14.7394 17.6851 15.3747V20.2252C17.6851 20.8605 18.1391 21.3777 18.6967 21.3777ZM20.3768 18.3111H18.5823V17.2888H20.3768V18.3111ZM18.5823 20.2252V19.3333H20.3768V20.2252C20.3768 20.2696 20.384 20.3121 20.3885 20.3555H18.6967C18.6335 20.3555 18.5823 20.2972 18.5823 20.2252ZM24.8631 18.3111H23.0686V17.4192C23.0686 17.3471 23.1198 17.2888 23.183 17.2888H24.7487C24.7878 17.2888 24.825 17.2807 24.8631 17.2755V18.3111ZM24.7487 20.3555H23.057C23.0614 20.3121 23.0686 20.2696 23.0686 20.2252V19.3333H24.8631V20.2252C24.8631 20.2972 24.812 20.3555 24.7487 20.3555ZM24.7487 15.2444C24.812 15.2444 24.8631 15.3027 24.8631 15.3747V16.1363C24.8631 16.2083 24.812 16.2666 24.7487 16.2666H23.183C22.6254 16.2666 22.1714 16.7839 22.1714 17.4192V20.2252C22.1714 20.2972 22.1202 20.3555 22.057 20.3555H21.3885C21.3252 20.3555 21.2741 20.2972 21.2741 20.2252V15.3747C21.2741 15.3027 21.3252 15.2444 21.3885 15.2444H24.7487ZM18.6967 15.2444H20.3885C20.384 15.2878 20.3768 15.3303 20.3768 15.3747V16.2666H18.5823V15.3747C18.5823 15.3027 18.6335 15.2444 18.6967 15.2444Z" fill="black"/>
<defs>
<filter id="filter0_b_279_2409" x="-26.5456" y="-26.2497" width="405.194" height="95.2543" filterUnits="userSpaceOnUse" color-interpolation-filters="sRGB">
<feFlood flood-opacity="0" result="BackgroundImageFix"/>
<feGaussianBlur in="BackgroundImageFix" stdDeviation="13.5914"/>
<feComposite in2="SourceAlpha" operator="in" result="effect1_backgroundBlur_279_2409"/>
<feBlend mode="normal" in="SourceGraphic" in2="effect1_backgroundBlur_279_2409" result="shape"/>
</filter>
</defs>
</svg>
