<svg width="352" height="42" viewBox="0 0 352 42" fill="none" xmlns="http://www.w3.org/2000/svg">
<g filter="url(#filter0_b_67_453)">
<path fill-rule="evenodd" clip-rule="evenodd" d="M0.636963 0.933594H351.466V41.8225H0.636963V0.933594Z" fill="white"/>
</g>
<g opacity="0.2">
<path fill-rule="evenodd" clip-rule="evenodd" d="M0.636963 41.4336H351.637V41.9336H0.636963V41.4336Z" fill="black"/>
</g>
<path d="M40.0191 10.1338H16.885C15.842 10.1338 14.9932 11.1008 14.9932 12.2891V30.4673C14.9932 31.6557 15.842 32.6227 16.885 32.6227H40.0191C41.0622 32.6227 41.911 31.6557 41.911 30.4673V12.2891C41.911 11.1008 41.0622 10.1338 40.0191 10.1338ZM41.0137 30.4673C41.0137 31.0919 40.5678 31.6005 40.0191 31.6005H16.885C16.3364 31.6005 15.8904 31.0919 15.8904 30.4673V12.2891C15.8904 11.6646 16.3364 11.156 16.885 11.156H40.0191C40.5678 11.156 41.0137 11.6646 41.0137 12.2891V30.4673Z" fill="black"/>
<path d="M22.1714 24.9561H18.1337C17.8856 24.9561 17.6851 25.185 17.6851 25.4672C17.6851 25.7493 17.8856 25.9783 18.1337 25.9783H22.1714C22.4195 25.9783 22.62 25.7493 22.62 25.4672C22.62 25.185 22.4195 24.9561 22.1714 24.9561Z" fill="black"/>
<path d="M28.0034 24.9561H23.9657C23.7176 24.9561 23.5171 25.185 23.5171 25.4672C23.5171 25.7493 23.7176 25.9783 23.9657 25.9783H28.0034C28.2515 25.9783 28.452 25.7493 28.452 25.4672C28.452 25.185 28.2515 24.9561 28.0034 24.9561Z" fill="black"/>
<path d="M18.5823 27.5117H18.1337C17.8856 27.5117 17.6851 27.7407 17.6851 28.0228C17.6851 28.305 17.8856 28.5339 18.1337 28.5339H18.5823C18.8304 28.5339 19.0309 28.305 19.0309 28.0228C19.0309 27.7407 18.8304 27.5117 18.5823 27.5117Z" fill="black"/>
<path d="M21.2739 27.5117H20.3766C20.1285 27.5117 19.928 27.7407 19.928 28.0228C19.928 28.305 20.1285 28.5339 20.3766 28.5339H21.2739C21.522 28.5339 21.7225 28.305 21.7225 28.0228C21.7225 27.7407 21.522 27.5117 21.2739 27.5117Z" fill="black"/>
<path d="M23.5171 27.5117H23.0685C22.8204 27.5117 22.6199 27.7407 22.6199 28.0228C22.6199 28.305 22.8204 28.5339 23.0685 28.5339H23.5171C23.7652 28.5339 23.9658 28.305 23.9658 28.0228C23.9658 27.7407 23.7652 27.5117 23.5171 27.5117Z" fill="black"/>
<path d="M26.2089 27.5117H25.3117C25.0636 27.5117 24.863 27.7407 24.863 28.0228C24.863 28.305 25.0636 28.5339 25.3117 28.5339H26.2089C26.457 28.5339 26.6576 28.305 26.6576 28.0228C26.6576 27.7407 26.457 27.5117 26.2089 27.5117Z" fill="black"/>
<path d="M27.6848 27.6599C27.6036 27.757 27.5547 27.8899 27.5547 28.0228C27.5547 28.1557 27.6036 28.2886 27.6848 28.3857C27.7696 28.4777 27.8867 28.5339 28.0033 28.5339C28.12 28.5339 28.2366 28.4777 28.3218 28.3857C28.4026 28.2886 28.4519 28.1557 28.4519 28.0228C28.4519 27.8899 28.4026 27.757 28.3218 27.6599C28.1514 27.4708 27.8458 27.4708 27.6848 27.6599Z" fill="black"/>
<path d="M36.5274 22.9116C35.955 22.9116 35.4197 23.09 34.9572 23.3956C34.4947 23.09 33.9594 22.9116 33.387 22.9116C31.6557 22.9116 30.2466 24.5165 30.2466 26.4894C30.2466 28.4623 31.6557 30.0672 33.387 30.0672C33.9594 30.0672 34.4947 29.8888 34.9572 29.5832C35.4197 29.8888 35.955 30.0672 36.5274 30.0672C38.2587 30.0672 39.6678 28.4623 39.6678 26.4894C39.6678 24.5165 38.2587 22.9116 36.5274 22.9116ZM35.6301 26.4894C35.6301 27.2019 35.3717 27.8459 34.9572 28.31C34.5427 27.8459 34.2843 27.2019 34.2843 26.4894C34.2843 25.7769 34.5427 25.1329 34.9572 24.6688C35.3717 25.1329 35.6301 25.7769 35.6301 26.4894ZM31.1438 26.4894C31.1438 25.0803 32.1501 23.9338 33.387 23.9338C33.6701 23.9338 33.9388 24.0003 34.1887 24.1102C33.6921 24.7429 33.387 25.5755 33.387 26.4894C33.387 27.4033 33.6921 28.2359 34.1887 28.8686C33.9388 28.9785 33.6701 29.045 33.387 29.045C32.1501 29.045 31.1438 27.8985 31.1438 26.4894ZM36.5274 29.045C36.2443 29.045 35.9756 28.9785 35.7257 28.8686C36.2223 28.2359 36.5274 27.4033 36.5274 26.4894C36.5274 25.5755 36.2223 24.7429 35.7257 24.1102C35.9756 24.0003 36.2443 23.9338 36.5274 23.9338C37.7643 23.9338 38.7706 25.0803 38.7706 26.4894C38.7706 27.8985 37.7643 29.045 36.5274 29.045Z" fill="black"/>
<path d="M18.6967 21.3782H21.3885H22.057H24.7487C25.3064 21.3782 25.7604 20.861 25.7604 20.2257V16.1368V15.3752C25.7604 14.7399 25.3064 14.2227 24.7487 14.2227H21.3885H18.6967C18.1391 14.2227 17.6851 14.7399 17.6851 15.3752V20.2257C17.6851 20.861 18.1391 21.3782 18.6967 21.3782ZM20.3768 18.3115H18.5823V17.2893H20.3768V18.3115ZM18.5823 20.2257V19.3338H20.3768V20.2257C20.3768 20.2701 20.384 20.3125 20.3885 20.356H18.6967C18.6335 20.356 18.5823 20.2977 18.5823 20.2257ZM24.8631 18.3115H23.0686V17.4197C23.0686 17.3476 23.1198 17.2893 23.183 17.2893H24.7487C24.7878 17.2893 24.825 17.2811 24.8631 17.276V18.3115ZM24.7487 20.356H23.057C23.0614 20.3125 23.0686 20.2701 23.0686 20.2257V19.3338H24.8631V20.2257C24.8631 20.2977 24.812 20.356 24.7487 20.356ZM24.7487 15.2449C24.812 15.2449 24.8631 15.3031 24.8631 15.3752V16.1368C24.8631 16.2088 24.812 16.2671 24.7487 16.2671H23.183C22.6254 16.2671 22.1714 16.7843 22.1714 17.4197V20.2257C22.1714 20.2977 22.1202 20.356 22.057 20.356H21.3885C21.3252 20.356 21.2741 20.2977 21.2741 20.2257V15.3752C21.2741 15.3031 21.3252 15.2449 21.3885 15.2449H24.7487ZM18.6967 15.2449H20.3885C20.384 15.2883 20.3768 15.3307 20.3768 15.3752V16.2671H18.5823V15.3752C18.5823 15.3031 18.6335 15.2449 18.6967 15.2449Z" fill="black"/>
<defs>
<filter id="filter0_b_67_453" x="-26.5459" y="-26.2492" width="405.194" height="95.2543" filterUnits="userSpaceOnUse" color-interpolation-filters="sRGB">
<feFlood flood-opacity="0" result="BackgroundImageFix"/>
<feGaussianBlur in="BackgroundImageFix" stdDeviation="13.5914"/>
<feComposite in2="SourceAlpha" operator="in" result="effect1_backgroundBlur_67_453"/>
<feBlend mode="normal" in="SourceGraphic" in2="effect1_backgroundBlur_67_453" result="shape"/>
</filter>
</defs>
</svg>
