<svg width="28" height="29" viewBox="0 0 28 29" fill="none" xmlns="http://www.w3.org/2000/svg">
<path d="M4.50874 23.7952H3.95703V26.6171H4.50874V23.7952Z" fill="#747268"/>
<path d="M24.3728 23.7952H23.821V26.6171H24.3728V23.7952Z" fill="#747268"/>
<path d="M24.0998 22.2159H4.2333C4.16002 22.2159 4.08976 22.1852 4.03795 22.1304C3.98613 22.0757 3.95703 22.0015 3.95703 21.9241V19.8079C3.95747 19.4379 4.09684 19.0831 4.34456 18.8215C4.59228 18.5599 4.92814 18.4127 5.27847 18.4122H23.0513C23.4017 18.4127 23.7375 18.5599 23.9852 18.8215C24.233 19.0831 24.3723 19.4379 24.3728 19.8079V21.9241C24.3728 22.0009 24.3441 22.0746 24.293 22.1292C24.2419 22.1838 24.1725 22.215 24.0998 22.2159ZM4.51207 21.6332H23.8235V19.8087C23.8231 19.5933 23.7418 19.3869 23.5976 19.2347C23.4533 19.0825 23.2578 18.9969 23.0538 18.9967H5.27847C5.07461 18.9969 4.87917 19.0825 4.73502 19.2348C4.59087 19.387 4.50979 19.5934 4.50957 19.8087L4.51207 21.6332Z" fill="#747268"/>
<path d="M22.3539 18.9949H5.9749C5.90178 18.9947 5.83172 18.9638 5.78009 18.9091C5.72845 18.8544 5.69946 18.7803 5.69946 18.7031V13.8264C5.6999 13.4564 5.83927 13.1017 6.08699 12.8401C6.33471 12.5784 6.67057 12.4313 7.0209 12.4308H21.3121C21.6624 12.4313 21.9983 12.5784 22.246 12.8401C22.4937 13.1017 22.6331 13.4564 22.6335 13.8264V18.7031C22.6335 18.7417 22.6263 18.78 22.6122 18.8156C22.5981 18.8512 22.5774 18.8835 22.5514 18.9107C22.5254 18.9378 22.4946 18.9592 22.4607 18.9737C22.4268 18.9882 22.3905 18.9954 22.3539 18.9949ZM6.25034 18.4122H22.0777V13.8273C22.0774 13.612 21.9963 13.4055 21.8522 13.2533C21.708 13.1011 21.5126 13.0154 21.3088 13.0152H7.0209C6.81704 13.0154 6.6216 13.1011 6.47745 13.2533C6.33331 13.4055 6.25223 13.612 6.25201 13.8273L6.25034 18.4122Z" fill="#747268"/>
<path d="M13.0022 18.995H7.54424C7.47111 18.9947 7.40105 18.9639 7.34942 18.9092C7.29779 18.8545 7.2688 18.7804 7.2688 18.7032V16.122C7.2688 15.8889 7.35647 15.6654 7.51253 15.5006C7.66858 15.3358 7.88024 15.2432 8.10094 15.2432H12.4522C12.6729 15.2432 12.8846 15.3358 13.0406 15.5006C13.1967 15.6654 13.2843 15.8889 13.2843 16.122V18.7032C13.2844 18.742 13.277 18.7805 13.2628 18.8163C13.2485 18.8521 13.2276 18.8845 13.2014 18.9117C13.1751 18.9389 13.144 18.9603 13.1098 18.9746C13.0756 18.9889 13.039 18.9958 13.0022 18.995ZM7.81968 18.4114H12.7293V16.122C12.7291 16.0445 12.6998 15.9702 12.6479 15.9153C12.596 15.8605 12.5256 15.8296 12.4522 15.8294H8.10094C8.02751 15.8296 7.95716 15.8605 7.90524 15.9153C7.85332 15.9702 7.82406 16.0445 7.82384 16.122L7.81968 18.4114Z" fill="#747268"/>
<path d="M20.788 18.995H15.33C15.2567 18.995 15.1864 18.9642 15.1346 18.9095C15.0828 18.8548 15.0537 18.7806 15.0537 18.7032V16.122C15.0537 15.8889 15.1414 15.6654 15.2974 15.5006C15.4535 15.3358 15.6652 15.2432 15.8859 15.2432H20.2371C20.4578 15.2432 20.6695 15.3358 20.8255 15.5006C20.9816 15.6654 21.0693 15.8889 21.0693 16.122V18.7032C21.0693 18.742 21.062 18.7803 21.0478 18.8161C21.0336 18.8518 21.0128 18.8842 20.9866 18.9114C20.9604 18.9386 20.9293 18.9599 20.8953 18.9743C20.8612 18.9886 20.8247 18.9957 20.788 18.995ZM15.6054 18.4114H20.5151V16.122C20.5148 16.0445 20.4856 15.9702 20.4336 15.9153C20.3817 15.8605 20.3114 15.8296 20.238 15.8294H15.8784C15.8049 15.8296 15.7346 15.8605 15.6827 15.9153C15.6307 15.9702 15.6015 16.0445 15.6013 16.122L15.6054 18.4114Z" fill="#747268"/>
<path d="M24.0998 24.0861H4.2333C4.16017 24.0861 4.09002 24.0554 4.03824 24.0009C3.98645 23.9464 3.95725 23.8724 3.95703 23.7952V21.9241C3.95703 21.8467 3.98613 21.7725 4.03795 21.7178C4.08976 21.6631 4.16002 21.6323 4.2333 21.6323H24.0998C24.1731 21.6323 24.2434 21.6631 24.2952 21.7178C24.347 21.7725 24.3761 21.8467 24.3761 21.9241V23.7952C24.3759 23.8724 24.3467 23.9464 24.2949 24.0009C24.2431 24.0554 24.1729 24.0861 24.0998 24.0861ZM4.51207 23.5034H23.8235V22.215H4.50957L4.51207 23.5034Z" fill="#747268"/>
</svg>
