<svg width="28" height="26" viewBox="0 0 28 26" fill="none" xmlns="http://www.w3.org/2000/svg">
<path d="M4.50874 20.6233H3.95703V23.0807H4.50874V20.6233Z" fill="#747268"/>
<path d="M24.3725 20.6233H23.8208V23.0807H24.3725V20.6233Z" fill="#747268"/>
<path d="M24.0998 19.248H4.2333C4.16002 19.248 4.08976 19.2212 4.03795 19.1736C3.98613 19.1259 3.95703 19.0613 3.95703 18.9939V17.151C3.95747 16.8288 4.09684 16.5199 4.34456 16.2921C4.59228 16.0642 4.92814 15.9361 5.27847 15.9357H23.0513C23.4017 15.9361 23.7375 16.0642 23.9852 16.2921C24.233 16.5199 24.3723 16.8288 24.3728 17.151V18.9939C24.3728 19.0608 24.3441 19.1249 24.293 19.1725C24.2419 19.2201 24.1725 19.2472 24.0998 19.248ZM4.51207 18.7406H23.8235V17.1518C23.8231 16.9642 23.7418 16.7844 23.5976 16.6519C23.4533 16.5193 23.2578 16.4448 23.0538 16.4446H5.27847C5.07461 16.4448 4.87917 16.5194 4.73502 16.6519C4.59087 16.7845 4.50979 16.9643 4.50957 17.1518L4.51207 18.7406Z" fill="#747268"/>
<path d="M22.3542 16.4431H5.97515C5.90202 16.4429 5.83196 16.416 5.78033 16.3684C5.7287 16.3208 5.69971 16.2563 5.69971 16.189V11.9422C5.70015 11.62 5.83951 11.3112 6.08723 11.0833C6.33496 10.8555 6.67081 10.7273 7.02114 10.7269H21.3123C21.6627 10.7273 21.9985 10.8555 22.2462 11.0833C22.494 11.3112 22.6333 11.62 22.6338 11.9422V16.189C22.6338 16.2226 22.6265 16.2559 22.6124 16.287C22.5983 16.318 22.5777 16.3461 22.5517 16.3698C22.5257 16.3934 22.4948 16.4121 22.4609 16.4247C22.427 16.4372 22.3907 16.4435 22.3542 16.4431ZM6.25059 15.9357H22.0779V11.943C22.0777 11.7555 21.9966 11.5758 21.8524 11.4432C21.7083 11.3106 21.5129 11.2361 21.309 11.2359H7.02114C6.81729 11.2361 6.62185 11.3106 6.4777 11.4432C6.33355 11.5758 6.25247 11.7555 6.25225 11.943L6.25059 15.9357Z" fill="#747268"/>
<path d="M13.002 16.4432H7.54399C7.47087 16.443 7.40081 16.4161 7.34918 16.3685C7.29755 16.3209 7.26855 16.2564 7.26855 16.1891V13.9413C7.26855 13.7384 7.35623 13.5437 7.51228 13.4002C7.66834 13.2567 7.88 13.176 8.1007 13.176H12.452C12.6727 13.176 12.8843 13.2567 13.0404 13.4002C13.1964 13.5437 13.2841 13.7384 13.2841 13.9413V16.1891C13.2841 16.2229 13.2768 16.2564 13.2625 16.2876C13.2483 16.3188 13.2274 16.347 13.2011 16.3707C13.1749 16.3944 13.1437 16.413 13.1095 16.4254C13.0753 16.4379 13.0388 16.4439 13.002 16.4432ZM7.81943 15.935H12.7291V13.9413C12.7288 13.8738 12.6996 13.8091 12.6477 13.7614C12.5957 13.7136 12.5254 13.6867 12.452 13.6865H8.1007C8.02727 13.6867 7.95691 13.7136 7.905 13.7614C7.85308 13.8091 7.82381 13.8738 7.82359 13.9413L7.81943 15.935Z" fill="#747268"/>
<path d="M20.788 16.4432H15.33C15.2567 16.4432 15.1864 16.4164 15.1346 16.3688C15.0828 16.3211 15.0537 16.2565 15.0537 16.1891V13.9413C15.0537 13.7384 15.1414 13.5437 15.2974 13.4002C15.4535 13.2567 15.6652 13.176 15.8859 13.176H20.2371C20.4578 13.176 20.6695 13.2567 20.8255 13.4002C20.9816 13.5437 21.0693 13.7384 21.0693 13.9413V16.1891C21.0693 16.2229 21.062 16.2563 21.0478 16.2874C21.0336 16.3185 21.0128 16.3468 20.9866 16.3704C20.9604 16.3941 20.9293 16.4127 20.8953 16.4252C20.8612 16.4377 20.8247 16.4438 20.788 16.4432ZM15.6054 15.935H20.5151V13.9413C20.5148 13.8738 20.4856 13.8091 20.4336 13.7614C20.3817 13.7136 20.3114 13.6867 20.238 13.6865H15.8784C15.8049 13.6867 15.7346 13.7136 15.6827 13.7614C15.6307 13.8091 15.6015 13.8738 15.6013 13.9413L15.6054 15.935Z" fill="#747268"/>
<path d="M24.0998 20.8765H4.2333C4.16017 20.8765 4.09002 20.8498 4.03824 20.8024C3.98645 20.7549 3.95725 20.6905 3.95703 20.6232V18.9938C3.95703 18.9264 3.98613 18.8618 4.03795 18.8142C4.08976 18.7665 4.16002 18.7397 4.2333 18.7397H24.0998C24.1731 18.7397 24.2434 18.7665 24.2952 18.8142C24.347 18.8618 24.3761 18.9264 24.3761 18.9938V20.6232C24.3759 20.6905 24.3467 20.7549 24.2949 20.8024C24.2431 20.8498 24.1729 20.8765 24.0998 20.8765ZM4.51207 20.3691H23.8235V19.2471H4.50957L4.51207 20.3691Z" fill="#747268"/>
</svg>
