<svg width="48" height="48" viewBox="0 0 48 48" fill="none" xmlns="http://www.w3.org/2000/svg">
<path d="M48 0H0V48H48V0Z" fill="white"/>
<path d="M6.9945 38.895H6V43.7115H6.9945V38.895Z" fill="#747268"/>
<path d="M42.801 38.895H41.8065V43.7115H42.801V38.895Z" fill="#747268"/>
<path d="M42.309 36.1995H6.49799C6.36591 36.1995 6.23925 36.1471 6.14585 36.0537C6.05246 35.9603 6 35.8336 6 35.7015V32.0895C6.00079 31.458 6.25201 30.8526 6.69855 30.4061C7.14509 29.9595 7.75049 29.7083 8.38199 29.7075H40.419C41.0505 29.7083 41.6559 29.9595 42.1024 30.4061C42.549 30.8526 42.8002 31.458 42.801 32.0895V35.7015C42.801 35.8326 42.7493 35.9583 42.6572 36.0516C42.5651 36.1448 42.44 36.1979 42.309 36.1995V36.1995ZM7.0005 35.205H41.811V32.091C41.8102 31.7234 41.6637 31.3711 41.4036 31.1113C41.1435 30.8515 40.7911 30.7054 40.4235 30.705H8.38199C8.01453 30.7054 7.66222 30.8515 7.40238 31.1114C7.14254 31.3712 6.99639 31.7235 6.99599 32.091L7.0005 35.205Z" fill="#747268"/>
<path d="M39.162 30.702H9.63749C9.50568 30.7016 9.37939 30.649 9.28632 30.5556C9.19325 30.4623 9.14099 30.3358 9.14099 30.204V21.8805C9.14179 21.249 9.393 20.6436 9.83954 20.1971C10.2861 19.7505 10.8915 19.4993 11.523 19.4985H37.284C37.9155 19.4993 38.5209 19.7505 38.9674 20.1971C39.414 20.6436 39.6652 21.249 39.666 21.8805V30.204C39.666 30.2699 39.6529 30.3352 39.6275 30.396C39.6021 30.4568 39.5649 30.512 39.518 30.5583C39.4711 30.6046 39.4155 30.6412 39.3544 30.6659C39.2933 30.6905 39.2279 30.7028 39.162 30.702V30.702ZM10.134 29.7075H38.664V21.882C38.6636 21.5146 38.5174 21.1622 38.2576 20.9024C37.9977 20.6426 37.6454 20.4964 37.278 20.496H11.523C11.1555 20.4964 10.8032 20.6426 10.5434 20.9024C10.2835 21.1622 10.1374 21.5146 10.137 21.882L10.134 29.7075Z" fill="#747268"/>
<path d="M22.305 30.7021H12.4665C12.3347 30.7017 12.2084 30.6491 12.1153 30.5557C12.0222 30.4624 11.97 30.3359 11.97 30.2041V25.7986C11.97 25.4008 12.128 25.0192 12.4093 24.7379C12.6906 24.4566 13.0721 24.2986 13.47 24.2986H21.3135C21.7113 24.2986 22.0928 24.4566 22.3741 24.7379C22.6554 25.0192 22.8135 25.4008 22.8135 25.7986V30.2041C22.8135 30.2704 22.8003 30.336 22.7746 30.3971C22.7489 30.4583 22.7113 30.5136 22.6639 30.56C22.6165 30.6064 22.5604 30.6429 22.4988 30.6673C22.4371 30.6917 22.3712 30.7035 22.305 30.7021V30.7021ZM12.963 29.7061H21.813V25.7986C21.8126 25.6662 21.7598 25.5394 21.6662 25.4458C21.5726 25.3522 21.4458 25.2995 21.3135 25.2991H13.47C13.3376 25.2995 13.2108 25.3522 13.1172 25.4458C13.0236 25.5394 12.9709 25.6662 12.9705 25.7986L12.963 29.7061Z" fill="#747268"/>
<path d="M36.339 30.7021H26.5005C26.3684 30.7021 26.2418 30.6496 26.1484 30.5562C26.055 30.4628 26.0025 30.3362 26.0025 30.2041V25.7986C26.0025 25.4008 26.1605 25.0192 26.4418 24.7379C26.7231 24.4566 27.1047 24.2986 27.5025 24.2986H35.346C35.7438 24.2986 36.1254 24.4566 36.4067 24.7379C36.688 25.0192 36.846 25.4008 36.846 25.7986V30.2041C36.846 30.2703 36.8328 30.3358 36.8073 30.3968C36.7817 30.4578 36.7442 30.5131 36.697 30.5595C36.6498 30.6058 36.5938 30.6423 36.5323 30.6668C36.4709 30.6913 36.4052 30.7033 36.339 30.7021V30.7021ZM26.997 29.7061H35.847V25.7986C35.8466 25.6662 35.7939 25.5394 35.7003 25.4458C35.6067 25.3522 35.4799 25.2995 35.3475 25.2991H27.489C27.3567 25.2995 27.2298 25.3522 27.1362 25.4458C27.0427 25.5394 26.9899 25.6662 26.9895 25.7986L26.997 29.7061Z" fill="#747268"/>
<path d="M42.309 39.3914H6.49799C6.36617 39.3914 6.23973 39.3391 6.14638 39.246C6.05303 39.1529 6.0004 39.0267 6 38.8949V35.7014C6 35.5693 6.05246 35.4426 6.14585 35.3492C6.23925 35.2558 6.36591 35.2034 6.49799 35.2034H42.309C42.441 35.2034 42.5677 35.2558 42.6611 35.3492C42.7545 35.4426 42.807 35.5693 42.807 35.7014V38.8949C42.8066 39.0267 42.7539 39.1529 42.6606 39.246C42.5672 39.3391 42.4408 39.3914 42.309 39.3914ZM7.0005 38.3969H41.811V36.1979H6.99599L7.0005 38.3969Z" fill="#747268"/>
</svg>
