<svg width="48" height="48" viewBox="0 0 48 48" fill="none" xmlns="http://www.w3.org/2000/svg">
<path d="M48 0H0V48H48V0Z" fill="white"/>
<path d="M6.9945 38.895H6V43.7115H6.9945V38.895Z" fill="#747268"/>
<path d="M42.801 38.895H41.8065V43.7115H42.801V38.895Z" fill="#747268"/>
<path d="M42.309 36.1995H6.49799C6.36591 36.1995 6.23925 36.1471 6.14585 36.0537C6.05246 35.9603 6 35.8336 6 35.7015V32.0895C6.00079 31.458 6.25201 30.8526 6.69855 30.4061C7.14509 29.9595 7.75049 29.7083 8.38199 29.7075H40.419C41.0505 29.7083 41.6559 29.9595 42.1024 30.4061C42.549 30.8526 42.8002 31.458 42.801 32.0895V35.7015C42.801 35.8326 42.7493 35.9583 42.6572 36.0516C42.5651 36.1448 42.44 36.1979 42.309 36.1995V36.1995ZM7.0005 35.205H41.811V32.091C41.8102 31.7234 41.6637 31.3711 41.4036 31.1113C41.1435 30.8515 40.7911 30.7054 40.4235 30.705H8.38199C8.01453 30.7054 7.66222 30.8515 7.40238 31.1114C7.14254 31.3712 6.99639 31.7235 6.99599 32.091L7.0005 35.205Z" fill="#747268"/>
<path d="M39.162 30.702H9.63749C9.50568 30.7016 9.37939 30.649 9.28632 30.5556C9.19325 30.4623 9.14099 30.3358 9.14099 30.204V21.8805C9.14179 21.249 9.393 20.6436 9.83954 20.1971C10.2861 19.7505 10.8915 19.4993 11.523 19.4985H37.284C37.9155 19.4993 38.5209 19.7505 38.9674 20.1971C39.414 20.6436 39.6652 21.249 39.666 21.8805V30.204C39.666 30.2699 39.6529 30.3352 39.6275 30.396C39.6021 30.4568 39.5649 30.512 39.518 30.5583C39.4711 30.6046 39.4155 30.6412 39.3544 30.6659C39.2933 30.6905 39.2279 30.7028 39.162 30.702V30.702ZM10.134 29.7075H38.664V21.882C38.6636 21.5146 38.5174 21.1622 38.2576 20.9024C37.9977 20.6426 37.6454 20.4964 37.278 20.496H11.523C11.1555 20.4964 10.8032 20.6426 10.5434 20.9024C10.2835 21.1622 10.1374 21.5146 10.137 21.882L10.134 29.7075Z" fill="#747268"/>
<path d="M22.305 30.7023H12.4665C12.3347 30.7019 12.2084 30.6493 12.1153 30.556C12.0223 30.4626 11.97 30.3362 11.97 30.2043V25.7988C11.97 25.401 12.128 25.0195 12.4093 24.7382C12.6906 24.4569 13.0722 24.2988 13.47 24.2988H21.3135C21.7113 24.2988 22.0929 24.4569 22.3742 24.7382C22.6555 25.0195 22.8135 25.401 22.8135 25.7988V30.2043C22.8135 30.2706 22.8003 30.3363 22.7746 30.3974C22.7489 30.4585 22.7113 30.5139 22.6639 30.5603C22.6166 30.6066 22.5604 30.6431 22.4988 30.6675C22.4372 30.6919 22.3713 30.7037 22.305 30.7023V30.7023ZM12.963 29.7063H21.813V25.7988C21.8126 25.6665 21.7599 25.5397 21.6663 25.4461C21.5727 25.3525 21.4459 25.2998 21.3135 25.2994H13.47C13.3376 25.2998 13.2108 25.3525 13.1172 25.4461C13.0236 25.5397 12.9709 25.6665 12.9705 25.7988L12.963 29.7063Z" fill="#747268"/>
<path d="M36.339 30.7023H26.5005C26.3684 30.7023 26.2417 30.6498 26.1483 30.5565C26.0549 30.4631 26.0025 30.3364 26.0025 30.2043V25.7988C26.0025 25.401 26.1605 25.0195 26.4418 24.7382C26.7231 24.4569 27.1046 24.2988 27.5025 24.2988H35.346C35.7438 24.2988 36.1253 24.4569 36.4066 24.7382C36.6879 25.0195 36.846 25.401 36.846 25.7988V30.2043C36.846 30.2705 36.8328 30.336 36.8072 30.397C36.7816 30.458 36.7441 30.5133 36.6969 30.5597C36.6497 30.6061 36.5938 30.6426 36.5323 30.667C36.4709 30.6915 36.4051 30.7035 36.339 30.7023V30.7023ZM26.997 29.7063H35.847V25.7988C35.8466 25.6665 35.7938 25.5397 35.7002 25.4461C35.6066 25.3525 35.4798 25.2998 35.3475 25.2994H27.489C27.3566 25.2998 27.2298 25.3525 27.1362 25.4461C27.0426 25.5397 26.9899 25.6665 26.9895 25.7988L26.997 29.7063Z" fill="#747268"/>
<path d="M42.309 39.3916H6.49799C6.36617 39.3916 6.23973 39.3393 6.14638 39.2463C6.05303 39.1532 6.0004 39.0269 6 38.8951V35.7016C6 35.5695 6.05246 35.4428 6.14585 35.3495C6.23925 35.2561 6.36591 35.2036 6.49799 35.2036H42.309C42.441 35.2036 42.5677 35.2561 42.6611 35.3495C42.7545 35.4428 42.807 35.5695 42.807 35.7016V38.8951C42.8066 39.0269 42.7539 39.1532 42.6606 39.2463C42.5672 39.3393 42.4408 39.3916 42.309 39.3916ZM7.0005 38.3971H41.811V36.1981H6.99599L7.0005 38.3971Z" fill="#747268"/>
</svg>
