<svg width="16" height="17" viewBox="0 0 16 17" fill="none" xmlns="http://www.w3.org/2000/svg">
<path d="M14.7734 7.21854C14.7734 12.0552 7.88668 16.2009 7.88668 16.2009C7.88668 16.2009 1 12.0552 1 7.21854C1 5.56928 1.72556 3.98757 3.01706 2.82137C4.30857 1.65517 6.06022 1 7.88668 1C9.71314 1 11.4648 1.65517 12.7563 2.82137C14.0478 3.98757 14.7734 5.56928 14.7734 7.21854Z" stroke="#091E3D" stroke-linecap="round" stroke-linejoin="round"/>
<path d="M7.88669 9.29132C9.15449 9.29132 10.1822 8.36328 10.1822 7.21847C10.1822 6.07367 9.15449 5.14563 7.88669 5.14563C6.61888 5.14563 5.59113 6.07367 5.59113 7.21847C5.59113 8.36328 6.61888 9.29132 7.88669 9.29132Z" stroke="#091E3D" stroke-linecap="round" stroke-linejoin="round"/>
</svg>
