<svg width="16" height="17" viewBox="0 0 16 17" fill="none" xmlns="http://www.w3.org/2000/svg">
<path d="M15.1752 7.06082C15.1752 11.8975 8.28854 16.0431 8.28854 16.0431C8.28854 16.0431 1.40186 11.8975 1.40186 7.06082C1.40186 5.41156 2.12741 3.82985 3.41892 2.66365C4.71042 1.49745 6.46208 0.842285 8.28854 0.842285C10.115 0.842285 11.8667 1.49745 13.1582 2.66365C14.4497 3.82985 15.1752 5.41156 15.1752 7.06082Z" stroke="#091E3D" stroke-linecap="round" stroke-linejoin="round"/>
<path d="M8.28854 9.13361C9.55635 9.13361 10.5841 8.20556 10.5841 7.06076C10.5841 5.91596 9.55635 4.98792 8.28854 4.98792C7.02074 4.98792 5.99298 5.91596 5.99298 7.06076C5.99298 8.20556 7.02074 9.13361 8.28854 9.13361Z" stroke="#091E3D" stroke-linecap="round" stroke-linejoin="round"/>
</svg>
