<svg width="24" height="24" viewBox="0 0 24 24" fill="none" xmlns="http://www.w3.org/2000/svg">
<path d="M22.5023 9.84184C22.5023 17.0968 11.9428 23.3153 11.9428 23.3153C11.9428 23.3153 1.38318 17.0968 1.38318 9.84184C1.38318 7.36795 2.4957 4.99539 4.47601 3.24609C6.45631 1.49679 9.14218 0.514038 11.9428 0.514038C14.7433 0.514038 17.4292 1.49679 19.4095 3.24609C21.3898 4.99539 22.5023 7.36795 22.5023 9.84184Z" stroke="black" stroke-linecap="round" stroke-linejoin="round"/>
<path d="M11.9428 12.9511C13.8867 12.9511 15.4626 11.559 15.4626 9.84181C15.4626 8.12461 13.8867 6.73254 11.9428 6.73254C9.99881 6.73254 8.42291 8.12461 8.42291 9.84181C8.42291 11.559 9.99881 12.9511 11.9428 12.9511Z" stroke="black" stroke-linecap="round" stroke-linejoin="round"/>
</svg>
