<svg width="16" height="17" viewBox="0 0 16 17" fill="none" xmlns="http://www.w3.org/2000/svg">
<path d="M15.1752 6.84061C15.1752 11.6772 8.28854 15.8229 8.28854 15.8229C8.28854 15.8229 1.40186 11.6772 1.40186 6.84061C1.40186 5.19135 2.12741 3.60964 3.41892 2.44344C4.71042 1.27724 6.46208 0.62207 8.28854 0.62207C10.115 0.62207 11.8667 1.27724 13.1582 2.44344C14.4497 3.60964 15.1752 5.19135 15.1752 6.84061Z" stroke="#091E3D" stroke-linecap="round" stroke-linejoin="round"/>
<path d="M8.28854 8.91339C9.55635 8.91339 10.5841 7.98535 10.5841 6.84055C10.5841 5.69574 9.55635 4.7677 8.28854 4.7677C7.02074 4.7677 5.99298 5.69574 5.99298 6.84055C5.99298 7.98535 7.02074 8.91339 8.28854 8.91339Z" stroke="#091E3D" stroke-linecap="round" stroke-linejoin="round"/>
</svg>
