<svg width="16" height="17" viewBox="0 0 16 17" fill="none" xmlns="http://www.w3.org/2000/svg">
<path d="M15.1752 7.28116C15.1752 12.1178 8.28854 16.2635 8.28854 16.2635C8.28854 16.2635 1.40186 12.1178 1.40186 7.28116C1.40186 5.6319 2.12741 4.05019 3.41892 2.88399C4.71042 1.71779 6.46208 1.06262 8.28854 1.06262C10.115 1.06262 11.8667 1.71779 13.1582 2.88399C14.4497 4.05019 15.1752 5.6319 15.1752 7.28116Z" stroke="#091E3D" stroke-linecap="round" stroke-linejoin="round"/>
<path d="M8.28854 9.35394C9.55635 9.35394 10.5841 8.4259 10.5841 7.2811C10.5841 6.1363 9.55635 5.20825 8.28854 5.20825C7.02074 5.20825 5.99298 6.1363 5.99298 7.2811C5.99298 8.4259 7.02074 9.35394 8.28854 9.35394Z" stroke="#091E3D" stroke-linecap="round" stroke-linejoin="round"/>
</svg>
