<svg width="24" height="24" viewBox="0 0 24 24" fill="none" xmlns="http://www.w3.org/2000/svg">
<path d="M22.5023 9.84196C22.5023 17.0969 11.9428 23.3155 11.9428 23.3155C11.9428 23.3155 1.38318 17.0969 1.38318 9.84196C1.38318 7.36808 2.4957 4.99551 4.47601 3.24621C6.45631 1.49691 9.14218 0.51416 11.9428 0.51416C14.7433 0.51416 17.4292 1.49691 19.4095 3.24621C21.3898 4.99551 22.5023 7.36808 22.5023 9.84196Z" stroke="black" stroke-linecap="round" stroke-linejoin="round"/>
<path d="M11.9428 12.9514C13.8867 12.9514 15.4626 11.5594 15.4626 9.84218C15.4626 8.12498 13.8867 6.73291 11.9428 6.73291C9.99881 6.73291 8.42291 8.12498 8.42291 9.84218C8.42291 11.5594 9.99881 12.9514 11.9428 12.9514Z" stroke="black" stroke-linecap="round" stroke-linejoin="round"/>
</svg>
