<svg width="16" height="18" viewBox="0 0 16 18" fill="none" xmlns="http://www.w3.org/2000/svg">
<path d="M15.1752 7.62027C15.1752 12.4569 8.28854 16.6026 8.28854 16.6026C8.28854 16.6026 1.40186 12.4569 1.40186 7.62027C1.40186 5.97101 2.12741 4.3893 3.41892 3.2231C4.71042 2.0569 6.46208 1.40173 8.28854 1.40173C10.115 1.40173 11.8667 2.0569 13.1582 3.2231C14.4497 4.3893 15.1752 5.97101 15.1752 7.62027Z" stroke="#091E3D" stroke-linecap="round" stroke-linejoin="round"/>
<path d="M8.28854 9.69305C9.55635 9.69305 10.5841 8.76501 10.5841 7.62021C10.5841 6.47541 9.55635 5.54736 8.28854 5.54736C7.02074 5.54736 5.99298 6.47541 5.99298 7.62021C5.99298 8.76501 7.02074 9.69305 8.28854 9.69305Z" stroke="#091E3D" stroke-linecap="round" stroke-linejoin="round"/>
</svg>
