<svg width="68" height="16" viewBox="0 0 68 16" fill="none" xmlns="http://www.w3.org/2000/svg">
<rect opacity="0.35" x="43.5" y="2.83333" width="21" height="10.3333" rx="2.16667" stroke="black"/>
<path opacity="0.4" d="M66 6V10C66.8079 9.66122 67.3333 8.87313 67.3333 8C67.3333 7.12687 66.8079 6.33878 66 6Z" fill="black"/>
<rect x="45" y="4.33333" width="18" height="7.33333" rx="1.33333" fill="black"/>
<path fill-rule="evenodd" clip-rule="evenodd" d="M30.3338 4.57389C32.5585 4.57399 34.6982 5.41168 36.3105 6.91383C36.4319 7.0298 36.626 7.02834 36.7456 6.91055L37.9062 5.76272C37.9667 5.70298 38.0005 5.62205 38 5.53785C37.9995 5.45366 37.9648 5.37312 37.9035 5.31408C33.6716 1.33974 26.9953 1.33974 22.7633 5.31408C22.702 5.37308 22.6672 5.45359 22.6667 5.53779C22.6661 5.62199 22.6998 5.70293 22.7603 5.76272L23.9213 6.91055C24.0408 7.02852 24.235 7.02998 24.3563 6.91383C25.9689 5.41158 28.1088 4.57389 30.3338 4.57389ZM30.3322 8.29945C31.5559 8.29937 32.7359 8.75597 33.643 9.58053C33.7657 9.69756 33.959 9.69502 34.0786 9.57482L35.2392 8.39766C35.3003 8.33591 35.3342 8.25215 35.3333 8.16511C35.3324 8.07807 35.2968 7.99501 35.2345 7.93453C32.4722 5.35515 28.1945 5.35515 25.4322 7.93453C25.3698 7.99501 25.3342 8.07811 25.3334 8.16518C25.3325 8.25224 25.3666 8.336 25.4278 8.39766L26.5881 9.57482C26.7077 9.69502 26.9009 9.69756 27.0236 9.58053C27.9301 8.75652 29.1092 8.29995 30.3322 8.29945ZM32.6666 11.023C32.6684 11.1085 32.6341 11.1909 32.5718 11.2507L30.557 13.2419C30.498 13.3004 30.4174 13.3333 30.3334 13.3333C30.2494 13.3333 30.1689 13.3004 30.1098 13.2419L28.0947 11.2507C28.0325 11.1908 27.9982 11.1084 28.0001 11.023C28.0019 10.9375 28.0397 10.8566 28.1045 10.7993C29.3912 9.73356 31.2757 9.73356 32.5624 10.7993C32.6271 10.8566 32.6648 10.9376 32.6666 11.023Z" fill="black"/>
<path fill-rule="evenodd" clip-rule="evenodd" d="M17.6667 3.66667C17.6667 3.11439 17.219 2.66667 16.6667 2.66667H15.6667C15.1144 2.66667 14.6667 3.11439 14.6667 3.66667V12.3333C14.6667 12.8856 15.1144 13.3333 15.6667 13.3333H16.6667C17.219 13.3333 17.6667 12.8856 17.6667 12.3333V3.66667ZM11 5.00001H12C12.5523 5.00001 13 5.44772 13 6.00001V12.3333C13 12.8856 12.5523 13.3333 12 13.3333H11C10.4477 13.3333 10 12.8856 10 12.3333V6.00001C10 5.44772 10.4477 5.00001 11 5.00001ZM7.33334 7.33334H6.33334C5.78105 7.33334 5.33334 7.78105 5.33334 8.33334V12.3333C5.33334 12.8856 5.78105 13.3333 6.33334 13.3333H7.33334C7.88562 13.3333 8.33334 12.8856 8.33334 12.3333V8.33334C8.33334 7.78105 7.88562 7.33334 7.33334 7.33334ZM3.66667 10.3333C3.66667 9.78105 3.21896 9.33334 2.66667 9.33334H1.66667C1.11439 9.33334 0.666672 9.78105 0.666672 10.3333V12.3333C0.666672 12.8856 1.11439 13.3333 1.66667 13.3333H2.66667C3.21896 13.3333 3.66667 12.8856 3.66667 12.3333V10.3333Z" fill="black"/>
</svg>
