<svg width="24" height="25" viewBox="0 0 24 25" fill="none" xmlns="http://www.w3.org/2000/svg">
<g clip-path="url(#clip0_272_2169)">
<path d="M21.8719 0.943359H2.13001C1.45381 0.943359 0.90564 1.51437 0.90564 2.21875V22.7832C0.90564 23.4876 1.45381 24.0586 2.13001 24.0586H21.8719C22.5481 24.0586 23.0963 23.4876 23.0963 22.7832V2.21875C23.0963 1.51437 22.5481 0.943359 21.8719 0.943359Z" fill="#3D5A98"/>
<path d="M16.215 24.0566V15.1055H19.0988L19.53 11.6172H16.215V9.39063C16.215 8.38086 16.485 7.69141 17.8744 7.69141H19.6481V4.56641C18.7892 4.47316 17.9261 4.42882 17.0625 4.43359C14.5088 4.43359 12.75 6.05469 12.75 9.04492V11.6172H9.86627V15.1055H12.75V24.0566H16.215Z" fill="white"/>
</g>
<defs>
<clipPath id="clip0_272_2169">
<rect width="24" height="25" fill="white"/>
</clipPath>
</defs>
</svg>
