<svg width="29" height="29" viewBox="0 0 29 29" fill="none" xmlns="http://www.w3.org/2000/svg">
<path d="M0.90625 27.6406L4.80313 26.2812L1.85781 24.9219L0.90625 27.6406Z" fill="#F7B600"/>
<path d="M12.1889 16.4939L6.70605 10.9658L5.7998 13.5033L12.1889 16.4939Z" fill="#FFDD7D"/>
<path d="M5.8001 13.5029L4.80322 16.3576L16.947 22.0217L17.536 21.8404L12.1892 16.4936L5.8001 13.5029Z" fill="#F7B600"/>
<path d="M3.85156 19.2126L12.9141 23.4267L16.9469 22.022L4.80313 16.3579L3.85156 19.2126Z" fill="#FFDD7D"/>
<path d="M2.85449 22.0671L8.83574 24.8765L12.9139 23.4265L3.85137 19.2124L2.85449 22.0671Z" fill="#F7B600"/>
<path d="M2.85479 22.0674L1.85791 24.9221L4.80322 26.2814L8.83603 24.8768L2.85479 22.0674Z" fill="#FFDD7D"/>
<path d="M14.4545 14.1376C17.4904 17.1282 19.0764 20.4813 17.9889 21.5688C16.8561 22.6563 13.5029 21.1157 10.4217 18.0797C7.38574 15.0891 5.7998 11.736 6.8873 10.6485C8.02011 9.56099 11.3732 11.1469 14.4545 14.1376Z" fill="#493816"/>
<path d="M10.6482 6.5705C9.92323 5.52831 10.6935 5.07519 11.6904 5.25644C10.7389 4.12363 11.3279 3.308 12.8232 3.62519C13.2764 3.71581 12.642 4.48613 12.2342 4.48613C13.4576 5.39238 12.7779 6.38925 11.4639 6.16269C12.642 7.74863 10.6482 7.34081 9.74198 7.43144C9.51542 8.60956 10.8748 9.96894 10.4217 9.96894C9.4248 9.96894 7.79355 6.208 10.6482 6.5705Z" fill="#42ADE2"/>
<path d="M20.164 8.74513C19.4844 9.06231 17.5812 6.07169 19.9375 6.02638C18.5781 4.80294 18.7594 4.21388 20.5719 4.16856C18.4875 2.08419 21.7953 1.35919 22.1125 2.44669C22.2031 2.76388 21.1156 2.17482 20.7531 2.76388C20.3453 3.44356 23.2906 5.21075 20.2547 5.07481C21.3875 6.20763 21.4328 6.75138 19.6656 6.93263C19.8922 7.29513 20.6172 8.56388 20.164 8.74513Z" fill="#FF8736"/>
<path d="M20.9346 15.8142L21.6143 15.2251C21.6143 15.2251 22.2486 16.1767 22.7018 16.5392C23.0643 14.9079 22.9736 13.9563 24.8314 15.0438C23.7893 12.2345 25.5111 13.2767 27.1877 14.047C27.0971 13.322 27.1877 13.4126 27.9127 13.186C28.5471 15.5876 26.8252 14.8626 25.4658 14.0923C26.2814 16.2673 25.4205 16.1313 23.6986 15.4063C23.6533 16.3126 23.3814 17.3548 22.8377 17.4454C22.2033 17.6267 20.9346 15.8142 20.9346 15.8142Z" fill="#ED4C5C"/>
<path d="M15.8596 9.10781C15.0439 10.1953 13.7299 10.7844 12.7783 11.7359C11.7814 12.7328 11.1924 15.4516 11.1924 15.4516C11.1924 15.4516 11.5549 12.5969 12.5064 11.5094C13.3674 10.5125 14.6361 9.7875 15.3158 8.65469C16.4939 6.57031 15.4064 3.85156 13.8658 2.26562C14.183 1.99375 14.6361 1.63125 14.8627 1.35938C16.358 3.21719 17.6268 6.79688 15.8596 9.10781Z" fill="#C28FEF"/>
<path d="M17.2642 11.4187C16.086 12.2796 15.2251 13.5484 14.4095 14.7265C13.6845 15.7687 11.3735 17.0827 11.3735 17.0827C11.3735 17.0827 13.5485 15.5874 14.2282 14.4999C15.0438 13.1405 15.8595 11.7359 17.1282 10.739C19.6657 8.79054 23.336 8.97179 26.1907 10.014C26.0095 10.4218 25.6923 11.2827 25.6923 11.2827C25.6923 11.2827 19.6657 9.65148 17.2642 11.4187Z" fill="#FF8736"/>
<path d="M22.2938 11.1921C21.5234 12.189 21.1609 13.4124 20.5719 14.5452C20.0281 15.5874 19.3031 16.5843 18.2609 17.128C17.0828 17.7171 14.5 17.5358 14.5 17.5358C14.5 17.5358 17.0828 17.4905 18.1703 16.7655C19.2578 16.0405 19.8469 14.7718 20.2547 13.5937C21.0703 11.328 22.0672 8.88115 24.4234 7.88428C24.5594 8.29209 24.8766 9.15303 24.8766 9.15303C24.8766 9.15303 23.5625 9.51553 22.2938 11.1921Z" fill="#42ADE2"/>
<path d="M1.45459 6.49087L2.73603 5.20898L4.01792 6.49042L2.73648 7.77277L1.45459 6.49087Z" fill="#42ADE2"/>
<path d="M3.25049 10.5109L4.53147 9.22949L5.81291 10.5109L4.53147 11.7924L3.25049 10.5109Z" fill="#FF8736"/>
<path d="M6.50586 4.45038L7.7873 3.16895L9.06874 4.45038L7.7873 5.73182L6.50586 4.45038Z" fill="#ED4C5C"/>
<path d="M20.4834 19.8L21.7648 18.5181L23.0463 19.8L21.7648 21.0814L20.4834 19.8Z" fill="#C28FEF"/>
<path d="M17.6279 24.1926L18.9094 22.9111L20.1913 24.193L18.9094 25.4745L17.6279 24.1926Z" fill="#ED4C5C"/>
<path d="M23.2358 25.1969L24.5173 23.915L25.7987 25.1969L24.5173 26.4784L23.2358 25.1969Z" fill="#FF8736"/>
<path d="M24.5039 19.3625L25.7853 18.0811L27.0668 19.3625L25.7853 20.6444L24.5039 19.3625Z" fill="#42ADE2"/>
<path d="M22.3643 5.81021L23.6457 4.52832L24.9276 5.81021L23.6461 7.09165L22.3643 5.81021Z" fill="#42ADE2"/>
<path d="M8.62939 13.4997L9.91128 12.2183L11.1927 13.4997L9.91128 14.7816L8.62939 13.4997Z" fill="#ED4C5C"/>
</svg>
