<svg width="29" height="29" viewBox="0 0 29 29" fill="none" xmlns="http://www.w3.org/2000/svg">
<path d="M0.90625 27.6406L4.80313 26.2812L1.85781 24.9219L0.90625 27.6406Z" fill="#F7B600"/>
<path d="M12.1891 16.4939L6.7063 10.9658L5.80005 13.5033L12.1891 16.4939Z" fill="#FFDD7D"/>
<path d="M5.8001 13.5029L4.80322 16.3576L16.947 22.0217L17.536 21.8404L12.1892 16.4936L5.8001 13.5029Z" fill="#F7B600"/>
<path d="M3.85156 19.2126L12.9141 23.4267L16.9469 22.022L4.80313 16.3579L3.85156 19.2126Z" fill="#FFDD7D"/>
<path d="M2.85474 22.0671L8.83598 24.8765L12.9141 23.4265L3.85161 19.2124L2.85474 22.0671Z" fill="#F7B600"/>
<path d="M2.85479 22.0674L1.85791 24.9221L4.80322 26.2814L8.83603 24.8768L2.85479 22.0674Z" fill="#FFDD7D"/>
<path d="M14.4547 14.1376C17.4907 17.1282 19.0766 20.4813 17.9891 21.5688C16.8563 22.6563 13.5032 21.1157 10.4219 18.0797C7.38598 15.0891 5.80004 11.736 6.88754 10.6485C8.02036 9.56099 11.3735 11.1469 14.4547 14.1376Z" fill="#493816"/>
<path d="M10.6485 6.5705C9.92348 5.52831 10.6938 5.07519 11.6907 5.25644C10.7391 4.12363 11.3282 3.308 12.8235 3.62519C13.2766 3.71581 12.6422 4.48613 12.2344 4.48613C13.4579 5.39238 12.7782 6.38925 11.4641 6.16269C12.6422 7.74863 10.6485 7.34081 9.74223 7.43144C9.51567 8.60956 10.875 9.96894 10.4219 9.96894C9.42504 9.96894 7.79379 6.208 10.6485 6.5705Z" fill="#42ADE2"/>
<path d="M20.164 8.74513C19.4844 9.06231 17.5812 6.07169 19.9375 6.02638C18.5781 4.80294 18.7594 4.21388 20.5719 4.16856C18.4875 2.08419 21.7953 1.35919 22.1125 2.44669C22.2031 2.76388 21.1156 2.17482 20.7531 2.76388C20.3453 3.44356 23.2906 5.21075 20.2547 5.07481C21.3875 6.20763 21.4328 6.75138 19.6656 6.93263C19.8922 7.29513 20.6172 8.56388 20.164 8.74513Z" fill="#FF8736"/>
<path d="M20.9343 15.8142L21.614 15.2251C21.614 15.2251 22.2484 16.1767 22.7015 16.5392C23.064 14.9079 22.9734 13.9563 24.8312 15.0438C23.789 12.2345 25.5109 13.2767 27.1874 14.047C27.0968 13.322 27.1874 13.4126 27.9124 13.186C28.5468 15.5876 26.8249 14.8626 25.4656 14.0923C26.2812 16.2673 25.4203 16.1313 23.6984 15.4063C23.6531 16.3126 23.3812 17.3548 22.8375 17.4454C22.2031 17.6267 20.9343 15.8142 20.9343 15.8142Z" fill="#ED4C5C"/>
<path d="M15.8593 9.10781C15.0437 10.1953 13.7296 10.7844 12.7781 11.7359C11.7812 12.7328 11.1921 15.4516 11.1921 15.4516C11.1921 15.4516 11.5546 12.5969 12.5062 11.5094C13.3671 10.5125 14.6359 9.7875 15.3156 8.65469C16.4937 6.57031 15.4062 3.85156 13.8656 2.26562C14.1828 1.99375 14.6359 1.63125 14.8625 1.35938C16.3578 3.21719 17.6265 6.79688 15.8593 9.10781Z" fill="#C28FEF"/>
<path d="M17.2642 11.4187C16.086 12.2796 15.2251 13.5484 14.4095 14.7265C13.6845 15.7687 11.3735 17.0827 11.3735 17.0827C11.3735 17.0827 13.5485 15.5874 14.2282 14.4999C15.0438 13.1405 15.8595 11.7359 17.1282 10.739C19.6657 8.79054 23.336 8.97179 26.1907 10.014C26.0095 10.4218 25.6923 11.2827 25.6923 11.2827C25.6923 11.2827 19.6657 9.65148 17.2642 11.4187Z" fill="#FF8736"/>
<path d="M22.2938 11.1921C21.5234 12.189 21.1609 13.4124 20.5719 14.5452C20.0281 15.5874 19.3031 16.5843 18.2609 17.128C17.0828 17.7171 14.5 17.5358 14.5 17.5358C14.5 17.5358 17.0828 17.4905 18.1703 16.7655C19.2578 16.0405 19.8469 14.7718 20.2547 13.5937C21.0703 11.328 22.0672 8.88115 24.4234 7.88428C24.5594 8.29209 24.8766 9.15303 24.8766 9.15303C24.8766 9.15303 23.5625 9.51553 22.2938 11.1921Z" fill="#42ADE2"/>
<path d="M1.45459 6.49087L2.73603 5.20898L4.01792 6.49042L2.73648 7.77277L1.45459 6.49087Z" fill="#42ADE2"/>
<path d="M3.25024 10.5109L4.53123 9.22949L5.81267 10.5109L4.53123 11.7924L3.25024 10.5109Z" fill="#FF8736"/>
<path d="M6.50586 4.45038L7.7873 3.16895L9.06874 4.45038L7.7873 5.73182L6.50586 4.45038Z" fill="#ED4C5C"/>
<path d="M20.4834 19.8L21.7648 18.5181L23.0463 19.8L21.7648 21.0814L20.4834 19.8Z" fill="#C28FEF"/>
<path d="M17.6279 24.1926L18.9094 22.9111L20.1913 24.193L18.9094 25.4745L17.6279 24.1926Z" fill="#ED4C5C"/>
<path d="M23.2358 25.1969L24.5173 23.915L25.7987 25.1969L24.5173 26.4784L23.2358 25.1969Z" fill="#FF8736"/>
<path d="M24.5042 19.3625L25.7856 18.0811L27.067 19.3625L25.7856 20.6444L24.5042 19.3625Z" fill="#42ADE2"/>
<path d="M22.3645 5.81021L23.6459 4.52832L24.9278 5.81021L23.6464 7.09165L22.3645 5.81021Z" fill="#42ADE2"/>
<path d="M8.62939 13.4997L9.91128 12.2183L11.1927 13.4997L9.91128 14.7816L8.62939 13.4997Z" fill="#ED4C5C"/>
</svg>
