<svg width="20" height="18" viewBox="0 0 20 18" fill="none" xmlns="http://www.w3.org/2000/svg">
<g clip-path="url(#clip0_72_1477)">
<path d="M13.9687 11.9734L15.0799 10.8623C15.2535 10.6887 15.5556 10.8102 15.5556 11.0602V16.1088C15.5556 17.029 14.809 17.7755 13.8889 17.7755H1.66667C0.746528 17.7755 0 17.029 0 16.1088V3.88661C0 2.96647 0.746528 2.21994 1.66667 2.21994H11.1632C11.4097 2.21994 11.5347 2.51855 11.3611 2.69564L10.25 3.80675C10.1979 3.85883 10.1285 3.88661 10.0521 3.88661H1.66667V16.1088H13.8889V12.1679C13.8889 12.0949 13.9167 12.0255 13.9687 11.9734ZM19.4062 4.96647L10.2882 14.0845L7.1493 14.4317C6.23958 14.5324 5.46528 13.7651 5.56597 12.8484L5.91319 9.70952L15.0312 0.591471C15.8264 -0.203667 17.1111 -0.203667 17.9028 0.591471L19.4028 2.09147C20.1979 2.88661 20.1979 4.1748 19.4062 4.96647ZM15.9757 6.03938L13.9583 4.02202L7.50694 10.4769L7.25347 12.7442L9.52083 12.4908L15.9757 6.03938ZM18.2257 3.27202L16.7257 1.77203C16.5833 1.62966 16.3507 1.62966 16.2118 1.77203L15.1389 2.84494L17.1562 4.8623L18.2292 3.78939C18.3681 3.64355 18.3681 3.41439 18.2257 3.27202Z" fill="#A6AAB4"/>
</g>
<defs>
<clipPath id="clip0_72_1477">
<rect width="20" height="17.7778" fill="white"/>
</clipPath>
</defs>
</svg>
