<svg width="28" height="32" viewBox="0 0 28 32" fill="none" xmlns="http://www.w3.org/2000/svg">
<g clip-path="url(#clip0_72_1661)">
<path d="M25 2H3C1.34375 2 0 3.34375 0 5V27C0 28.6562 1.34375 30 3 30H25C26.6562 30 28 28.6562 28 27V5C28 3.34375 26.6562 2 25 2ZM15 20H12V23C12 23.55 11.55 24 11 24H9C8.45 24 8 23.55 8 23V9C8 8.45 8.45 8 9 8H15C18.3063 8 21 10.6937 21 14C21 17.3063 18.3063 20 15 20ZM15 12H12V16H15C16.1 16 17 15.1 17 14C17 12.9 16.1 12 15 12Z" fill="#EA3E3E"/>
<path d="M25 2H3C1.34375 2 0 3.34375 0 5V27C0 28.6562 1.34375 30 3 30H25C26.6562 30 28 28.6562 28 27V5C28 3.34375 26.6562 2 25 2ZM15 20H12V23C12 23.55 11.55 24 11 24H9C8.45 24 8 23.55 8 23V9C8 8.45 8.45 8 9 8H15C18.3063 8 21 10.6937 21 14C21 17.3063 18.3063 20 15 20ZM15 12H12V16H15C16.1 16 17 15.1 17 14C17 12.9 16.1 12 15 12Z" fill="#EA3E3E"/>
</g>
<defs>
<clipPath id="clip0_72_1661">
<rect width="28" height="32" fill="white"/>
</clipPath>
</defs>
</svg>
