<svg width="29" height="22" viewBox="0 0 29 22" fill="none" xmlns="http://www.w3.org/2000/svg">
<path d="M26.4116 0H2.67278C1.60244 0 0.731445 0.946 0.731445 2.1085V19.8915C0.731445 21.054 1.60244 22 2.67278 22H26.4116C27.4819 22 28.3529 21.054 28.3529 19.8915V2.1085C28.3529 0.946 27.4819 0 26.4116 0ZM27.4322 19.8915C27.4322 20.5025 26.9746 21 26.4116 21H2.67278C2.10976 21 1.65216 20.5025 1.65216 19.8915V2.1085C1.65216 1.4975 2.10976 1 2.67278 1H26.4116C26.9746 1 27.4322 1.4975 27.4322 2.1085V19.8915Z" fill="#A3A3A3"/>
<path d="M8.09723 14.5H3.95401C3.69943 14.5 3.49365 14.724 3.49365 15C3.49365 15.276 3.69943 15.5 3.95401 15.5H8.09723C8.35181 15.5 8.55759 15.276 8.55759 15C8.55759 14.724 8.35181 14.5 8.09723 14.5Z" fill="#A3A3A3"/>
<path d="M14.0819 14.5H9.93863C9.68405 14.5 9.47827 14.724 9.47827 15C9.47827 15.276 9.68405 15.5 9.93863 15.5H14.0819C14.3364 15.5 14.5422 15.276 14.5422 15C14.5422 14.724 14.3364 14.5 14.0819 14.5Z" fill="#A3A3A3"/>
<path d="M4.41437 17H3.95401C3.69943 17 3.49365 17.224 3.49365 17.5C3.49365 17.776 3.69943 18 3.95401 18H4.41437C4.66895 18 4.87473 17.776 4.87473 17.5C4.87473 17.224 4.66895 17 4.41437 17Z" fill="#A3A3A3"/>
<path d="M7.17648 17H6.25577C6.00119 17 5.79541 17.224 5.79541 17.5C5.79541 17.776 6.00119 18 6.25577 18H7.17648C7.43106 18 7.63684 17.776 7.63684 17.5C7.63684 17.224 7.43106 17 7.17648 17Z" fill="#A3A3A3"/>
<path d="M9.47833 17H9.01798C8.7634 17 8.55762 17.224 8.55762 17.5C8.55762 17.776 8.7634 18 9.01798 18H9.47833C9.73291 18 9.93869 17.776 9.93869 17.5C9.93869 17.224 9.73291 17 9.47833 17Z" fill="#A3A3A3"/>
<path d="M12.2404 17H11.3197C11.0652 17 10.8594 17.224 10.8594 17.5C10.8594 17.776 11.0652 18 11.3197 18H12.2404C12.495 18 12.7008 17.776 12.7008 17.5C12.7008 17.224 12.495 17 12.2404 17Z" fill="#A3A3A3"/>
<path d="M13.7551 17.145C13.6718 17.24 13.6216 17.37 13.6216 17.5C13.6216 17.63 13.6718 17.76 13.7551 17.855C13.8421 17.945 13.9622 18 14.0819 18C14.2016 18 14.3213 17.945 14.4088 17.855C14.4917 17.76 14.5423 17.63 14.5423 17.5C14.5423 17.37 14.4917 17.24 14.4088 17.145C14.2339 16.96 13.9204 16.96 13.7551 17.145Z" fill="#A3A3A3"/>
<path d="M22.8286 12.5C22.2411 12.5 21.6919 12.6745 21.2173 12.9735C20.7427 12.6745 20.1935 12.5 19.6061 12.5C17.8295 12.5 16.3835 14.07 16.3835 16C16.3835 17.93 17.8295 19.5 19.6061 19.5C20.1935 19.5 20.7427 19.3255 21.2173 19.0265C21.6919 19.3255 22.2411 19.5 22.8286 19.5C24.6051 19.5 26.0511 17.93 26.0511 16C26.0511 14.07 24.6051 12.5 22.8286 12.5ZM21.9078 16C21.9078 16.697 21.6427 17.327 21.2173 17.781C20.7919 17.327 20.5268 16.697 20.5268 16C20.5268 15.303 20.7919 14.673 21.2173 14.219C21.6427 14.673 21.9078 15.303 21.9078 16ZM17.3043 16C17.3043 14.6215 18.3368 13.5 19.6061 13.5C19.8965 13.5 20.1723 13.565 20.4287 13.6725C19.9191 14.2915 19.6061 15.106 19.6061 16C19.6061 16.894 19.9191 17.7085 20.4287 18.3275C20.1723 18.435 19.8965 18.5 19.6061 18.5C18.3368 18.5 17.3043 17.3785 17.3043 16ZM22.8286 18.5C22.5381 18.5 22.2623 18.435 22.0059 18.3275C22.5155 17.7085 22.8286 16.894 22.8286 16C22.8286 15.106 22.5155 14.2915 22.0059 13.6725C22.2623 13.565 22.5381 13.5 22.8286 13.5C24.0978 13.5 25.1303 14.6215 25.1303 16C25.1303 17.3785 24.0978 18.5 22.8286 18.5Z" fill="#A3A3A3"/>
<path d="M4.53176 11H7.29391H7.97984H10.742C11.3142 11 11.7801 10.494 11.7801 9.8725V5.8725V5.1275C11.7801 4.506 11.3142 4 10.742 4H7.29391H4.53176C3.95953 4 3.49365 4.506 3.49365 5.1275V9.8725C3.49365 10.494 3.95953 11 4.53176 11ZM6.2558 8H4.41437V7H6.2558V8ZM4.41437 9.8725V9H6.2558V9.8725C6.2558 9.916 6.26317 9.9575 6.26777 10H4.53176C4.46685 10 4.41437 9.943 4.41437 9.8725ZM10.8594 8H9.01795V7.1275C9.01795 7.057 9.07043 7 9.13534 7H10.742C10.782 7 10.8203 6.992 10.8594 6.987V8ZM10.742 10H9.00598C9.01058 9.9575 9.01795 9.916 9.01795 9.8725V9H10.8594V9.8725C10.8594 9.943 10.8069 10 10.742 10ZM10.742 5C10.8069 5 10.8594 5.057 10.8594 5.1275V5.8725C10.8594 5.943 10.8069 6 10.742 6H9.13534C8.56311 6 8.09723 6.506 8.09723 7.1275V9.8725C8.09723 9.943 8.04475 10 7.97984 10H7.29391C7.229 10 7.17652 9.943 7.17652 9.8725V5.1275C7.17652 5.057 7.229 5 7.29391 5H10.742ZM4.53176 5H6.26777C6.26317 5.0425 6.2558 5.084 6.2558 5.1275V6H4.41437V5.1275C4.41437 5.057 4.46685 5 4.53176 5Z" fill="#A3A3A3"/>
</svg>
