<svg width="41" height="41" viewBox="0 0 41 41" fill="none" xmlns="http://www.w3.org/2000/svg">
<path d="M32.4584 15.3748C32.4584 13.8044 32.149 12.2494 31.5481 10.7986C30.9471 9.34773 30.0663 8.02945 28.9558 6.91902C27.8454 5.80858 26.5271 4.92774 25.0763 4.32678C23.6254 3.72582 22.0704 3.4165 20.5 3.4165C18.9296 3.4165 17.3746 3.72582 15.9238 4.32678C14.4729 4.92774 13.1546 5.80858 12.0442 6.91902C10.9338 8.02945 10.0529 9.34773 9.45196 10.7986C8.851 12.2494 8.54169 13.8044 8.54169 15.3748C8.54169 17.7443 9.2421 19.948 10.4294 21.8067H10.4157C14.4474 28.119 20.5 37.5832 20.5 37.5832L30.5843 21.8067H30.5724C31.8031 19.8872 32.4576 17.655 32.4584 15.3748ZM20.5 20.4998C19.1408 20.4998 17.8372 19.9599 16.8761 18.9988C15.915 18.0376 15.375 16.7341 15.375 15.3748C15.375 14.0156 15.915 12.712 16.8761 11.7509C17.8372 10.7898 19.1408 10.2498 20.5 10.2498C21.8593 10.2498 23.1628 10.7898 24.1239 11.7509C25.0851 12.712 25.625 14.0156 25.625 15.3748C25.625 16.7341 25.0851 18.0376 24.1239 18.9988C23.1628 19.9599 21.8593 20.4998 20.5 20.4998Z" fill="#613EEA"/>
</svg>
