<svg width="41" height="41" viewBox="0 0 41 41" fill="none" xmlns="http://www.w3.org/2000/svg">
<path d="M32.4582 15.3748C32.4582 13.8044 32.1489 12.2494 31.5479 10.7986C30.9469 9.34773 30.0661 8.02945 28.9557 6.91902C27.8452 5.80858 26.5269 4.92774 25.0761 4.32678C23.6252 3.72582 22.0702 3.4165 20.4998 3.4165C18.9294 3.4165 17.3744 3.72582 15.9236 4.32678C14.4727 4.92774 13.1545 5.80858 12.044 6.91902C10.9336 8.02945 10.0527 9.34773 9.45178 10.7986C8.85082 12.2494 8.5415 13.8044 8.5415 15.3748C8.5415 17.7443 9.24192 19.948 10.4292 21.8067H10.4155C14.4472 28.119 20.4998 37.5832 20.4998 37.5832L30.5841 21.8067H30.5722C31.8029 19.8872 32.4574 17.655 32.4582 15.3748ZM20.4998 20.4998C19.1406 20.4998 17.837 19.9599 16.8759 18.9988C15.9148 18.0376 15.3748 16.7341 15.3748 15.3748C15.3748 14.0156 15.9148 12.712 16.8759 11.7509C17.837 10.7898 19.1406 10.2498 20.4998 10.2498C21.8591 10.2498 23.1626 10.7898 24.1238 11.7509C25.0849 12.712 25.6248 14.0156 25.6248 15.3748C25.6248 16.7341 25.0849 18.0376 24.1238 18.9988C23.1626 19.9599 21.8591 20.4998 20.4998 20.4998Z" fill="#613EEA"/>
</svg>
