<svg width="41" height="41" viewBox="0 0 41 41" fill="none" xmlns="http://www.w3.org/2000/svg">
<path d="M32.4584 15.3748C32.4584 13.8044 32.1491 12.2494 31.5481 10.7986C30.9472 9.34773 30.0663 8.02945 28.9559 6.91902C27.8455 5.80858 26.5272 4.92774 25.0763 4.32678C23.6255 3.72582 22.0705 3.4165 20.5001 3.4165C18.9297 3.4165 17.3747 3.72582 15.9238 4.32678C14.473 4.92774 13.1547 5.80858 12.0443 6.91902C10.9338 8.02945 10.053 9.34773 9.45202 10.7986C8.85106 12.2494 8.54175 13.8044 8.54175 15.3748C8.54175 17.7443 9.24216 19.948 10.4295 21.8067H10.4158C14.4475 28.119 20.5001 37.5832 20.5001 37.5832L30.5844 21.8067H30.5724C31.8031 19.8872 32.4576 17.655 32.4584 15.3748ZM20.5001 20.4998C19.1408 20.4998 17.8373 19.9599 16.8762 18.9988C15.915 18.0376 15.3751 16.7341 15.3751 15.3748C15.3751 14.0156 15.915 12.712 16.8762 11.7509C17.8373 10.7898 19.1408 10.2498 20.5001 10.2498C21.8593 10.2498 23.1629 10.7898 24.124 11.7509C25.0851 12.712 25.6251 14.0156 25.6251 15.3748C25.6251 16.7341 25.0851 18.0376 24.124 18.9988C23.1629 19.9599 21.8593 20.4998 20.5001 20.4998Z" fill="#613EEA"/>
</svg>
