<svg width="124" height="45" viewBox="0 0 124 45" fill="none" xmlns="http://www.w3.org/2000/svg">
<rect width="123.664" height="44.3005" rx="6" fill="#ECDDDC"/>
<path d="M31.5169 15.42C31.2723 14.7571 30.5876 14.2852 29.7807 14.2852H16.3313C15.5244 14.2852 14.8519 14.7571 14.5951 15.42L12.1865 21.7906C12.1009 22.0265 12.052 22.2737 12.052 22.5321V30.5768C12.052 31.5094 12.8712 32.2622 13.886 32.2622C14.9008 32.2622 15.72 31.5094 15.72 30.5768V30.015H30.392V30.5768C30.392 31.4981 31.2112 32.2622 32.226 32.2622C33.2286 32.2622 34.06 31.5094 34.06 30.5768V22.5321C34.06 22.2849 34.0111 22.0265 33.9255 21.7906L31.5169 15.42ZM16.3313 26.6444C15.3165 26.6444 14.4973 25.8916 14.4973 24.959C14.4973 24.0265 15.3165 23.2737 16.3313 23.2737C17.3461 23.2737 18.1653 24.0265 18.1653 24.959C18.1653 25.8916 17.3461 26.6444 16.3313 26.6444ZM29.7807 26.6444C28.7659 26.6444 27.9467 25.8916 27.9467 24.959C27.9467 24.0265 28.7659 23.2737 29.7807 23.2737C30.7955 23.2737 31.6147 24.0265 31.6147 24.959C31.6147 25.8916 30.7955 26.6444 29.7807 26.6444ZM14.4973 21.0265L16.0501 16.7345C16.2213 16.2851 16.6859 15.9705 17.2117 15.9705H28.9003C29.4261 15.9705 29.8907 16.2851 30.0619 16.7345L31.6147 21.0265H14.4973Z" fill="#3BA931"/>
<path d="M70.2927 15.42C70.0482 14.7571 69.3635 14.2852 68.5565 14.2852H55.1072C54.3003 14.2852 53.6278 14.7571 53.371 15.42L50.9624 21.7906C50.8768 22.0265 50.8279 22.2737 50.8279 22.5321V30.5768C50.8279 31.5094 51.6471 32.2622 52.6619 32.2622C53.6767 32.2622 54.4959 31.5094 54.4959 30.5768V30.015H69.1679V30.5768C69.1679 31.4981 69.9871 32.2622 71.0019 32.2622C72.0045 32.2622 72.8359 31.5094 72.8359 30.5768V22.5321C72.8359 22.2849 72.787 22.0265 72.7014 21.7906L70.2927 15.42ZM55.1072 26.6444C54.0924 26.6444 53.2732 25.8916 53.2732 24.959C53.2732 24.0265 54.0924 23.2737 55.1072 23.2737C56.122 23.2737 56.9412 24.0265 56.9412 24.959C56.9412 25.8916 56.122 26.6444 55.1072 26.6444ZM68.5565 26.6444C67.5417 26.6444 66.7225 25.8916 66.7225 24.959C66.7225 24.0265 67.5417 23.2737 68.5565 23.2737C69.5714 23.2737 70.3905 24.0265 70.3905 24.959C70.3905 25.8916 69.5714 26.6444 68.5565 26.6444ZM53.2732 21.0265L54.826 16.7345C54.9972 16.2851 55.4618 15.9705 55.9875 15.9705H67.6762C68.202 15.9705 68.6666 16.2851 68.8378 16.7345L70.3905 21.0265H53.2732Z" fill="white"/>
<path d="M108.021 15.42C107.776 14.7571 107.092 14.2852 106.285 14.2852H92.8352C92.0283 14.2852 91.3558 14.7571 91.0991 15.42L88.6904 21.7906C88.6048 22.0265 88.5559 22.2737 88.5559 22.5321V30.5768C88.5559 31.5094 89.3751 32.2622 90.3899 32.2622C91.4047 32.2622 92.2239 31.5094 92.2239 30.5768V30.015H106.896V30.5768C106.896 31.4981 107.715 32.2622 108.73 32.2622C109.732 32.2622 110.564 31.5094 110.564 30.5768V22.5321C110.564 22.2849 110.515 22.0265 110.429 21.7906L108.021 15.42ZM92.8352 26.6444C91.8204 26.6444 91.0012 25.8916 91.0012 24.959C91.0012 24.0265 91.8204 23.2737 92.8352 23.2737C93.8501 23.2737 94.6692 24.0265 94.6692 24.959C94.6692 25.8916 93.8501 26.6444 92.8352 26.6444ZM106.285 26.6444C105.27 26.6444 104.451 25.8916 104.451 24.959C104.451 24.0265 105.27 23.2737 106.285 23.2737C107.299 23.2737 108.119 24.0265 108.119 24.959C108.119 25.8916 107.299 26.6444 106.285 26.6444ZM91.0012 21.0265L92.554 16.7345C92.7252 16.2851 93.1898 15.9705 93.7156 15.9705H105.404C105.93 15.9705 106.395 16.2851 106.566 16.7345L108.119 21.0265H91.0012Z" fill="white"/>
</svg>
