<svg width="36" height="36" viewBox="0 0 36 36" fill="none" xmlns="http://www.w3.org/2000/svg">
<path d="M18.7348 3.25485C18.5218 3.0897 18.2593 3 17.9891 3C17.719 3 17.4565 3.0897 17.2435 3.25485L0 16.6154L1.49124 18.4894L3.6 16.8557V31.6154C3.6013 32.2474 3.85457 32.8532 4.30438 33.3001C4.75419 33.7471 5.36388 33.9987 6 34H30C30.6362 33.9988 31.2459 33.7472 31.6958 33.3003C32.1456 32.8533 32.3988 32.2475 32.4 31.6154V16.8665L34.5088 18.5L36 16.6259L18.7348 3.25485ZM20.4 34H15.6V22.0769H20.4V34Z" fill="#0A4BFF"/>
</svg>
