<svg width="64" height="81" viewBox="0 0 64 81" fill="none" xmlns="http://www.w3.org/2000/svg">
<path d="M52.37 14.1996C52.37 12.6864 52.37 11.1732 52.37 9.65997C52.37 8.8408 52.2892 8.42682 52.0614 7.73935C51.7735 6.87069 51.0186 5.96098 50.4699 5.23672C50.0516 4.68459 49.0083 4.94572 48.3769 4.94572C47.7957 4.94572 47.4765 5.20173 46.9783 5.28522C45.7099 5.49782 44.396 5.73771 43.1685 6.08063C41.8011 6.46262 40.2272 7.2151 39.1657 8.17585C38.014 9.21829 36.9184 9.45826 36.9184 11.1538C36.9184 12.063 36.3975 12.7639 36.3975 13.6758C36.3975 14.2295 36.2239 14.7009 36.2239 15.2569C36.2239 15.9974 36.2239 16.7378 36.2239 17.4783C36.2239 18.245 37.2505 15.9662 37.4392 15.5867C38.6072 13.2375 40.6196 10.4635 43.1781 9.56297C44.5686 9.07353 45.7373 7.98901 47.1616 7.47745C47.7015 7.28354 48.1407 6.91318 48.6855 6.73054C49.0786 6.59879 49.5191 6.27624 49.8623 6.17763C50.7959 5.90936 51.8411 5.29492 52.804 5.29492C53.3268 5.29492 53.8421 5.09975 54.4148 5.12032C54.7771 5.13333 55.6579 5.76589 55.8423 6.09033C56.0585 6.47085 56.6954 7.03173 57.0576 7.25434C57.3521 7.43537 57.4902 8.20816 57.6652 8.52506C58.0789 9.27396 59.1523 10.0167 59.3242 10.7949C59.4537 11.3809 59.8375 11.5672 59.4882 12.182C59.2302 12.636 58.4898 13.2025 58.0607 13.5012C57.3879 13.9697 56.5193 14.3491 55.9291 14.9077C54.9526 15.8321 53.496 16.0616 52.4086 16.8187C51.0814 17.7427 49.3861 19.4016 48.7241 20.8733C48.4262 21.5356 47.6553 22.5476 48.7531 22.2992C49.7334 22.0774 50.6864 21.5577 51.3669 20.8733C52.0385 20.1978 52.7607 19.0913 53.5853 18.6035C54.6905 17.9497 55.083 16.4899 56.1895 15.8098C57.5269 14.9879 57.6589 12.6009 57.2698 11.2314C56.979 10.2079 55.7119 10.3266 54.8874 10.3681C52.2343 10.5015 49.6345 11.1781 47.586 12.9386C46.5519 13.8273 45.7009 15.0158 44.7696 16.0135C44.0305 16.8053 43.4331 17.8765 43.3517 18.9818C43.3108 19.537 43.3421 20.1034 43.3421 20.6599C43.3421 20.8586 43.2957 22.1059 43.6893 21.4359C44.7937 19.5563 45.7332 17.4201 46.4479 15.3636C46.5613 15.0372 47.9356 12.1259 47.4702 11.7164C47.0007 11.3032 40.6374 18.7888 40.1785 19.3019C38.8828 20.7506 37.4751 22.209 36.5133 23.9191C36.4104 24.102 36.207 24.4373 36.2239 24.6757C36.2337 24.8133 36.4131 24.4734 36.4843 24.3556C37.3765 22.8816 38.2093 21.3817 38.9535 19.8257C39.6886 18.2889 40.2432 16.6513 41.0851 15.1696C41.6877 14.1091 40.553 17.5723 40.0434 18.6811C39.3717 20.1428 38.7529 21.6137 38.2494 23.1431C38.1286 23.5101 37.5348 24.3626 37.9022 24.2489C38.1806 24.1628 38.7138 23.3417 38.7896 23.2401C40.0361 21.5685 41.1986 19.8337 42.4258 18.1476C42.5851 17.9287 43.0676 17.2679 43.2939 16.9836C43.3887 16.8644 43.5656 16.5928 43.6604 16.7119C43.9416 17.0654 43.7201 17.6213 43.6604 18.07C43.4482 19.6655 43.0857 21.4318 42.7537 22.9782C41.9223 26.8516 40.8548 30.6647 40.082 34.5505C40.0428 34.7474 40.3315 34.2308 40.4099 34.046C41.301 31.9463 42.2579 29.8939 43.2456 27.838C44.7183 24.7728 45.9339 21.7035 46.4382 18.3222C46.8804 15.3571 44.8799 24.1186 44.3645 27.0717C44.1731 28.1683 44.0226 29.2727 43.9015 30.3794C43.8077 31.2372 44.0057 30.3607 44.133 30.0302C45.7577 25.8112 47.8055 21.7133 49.7851 17.6529C50.1949 16.8123 50.5303 15.9791 50.7978 15.0823C50.9265 14.651 51.1159 14.0798 50.8943 15.1696C50.3345 17.9221 49.1966 20.5565 48.2129 23.1722C46.951 26.5281 45.4871 29.9271 44.4609 33.367C44.3371 33.7822 44.2328 34.3131 44.1716 34.7445C43.9543 36.2741 43.6893 37.7983 43.6893 39.3423C43.6893 40.1408 43.3701 40.8916 43.3421 41.6509C43.3274 42.0507 43.3685 42.4548 43.3324 42.8537C43.3251 42.9347 43.1872 43.7559 43.2167 43.7559C43.4729 43.7559 44.2083 41.81 44.297 41.6315C45.3865 39.44 46.2548 36.9841 46.2935 34.4923C46.3063 33.6684 45.8959 30.4545 47.1616 30.2727C49.018 30.006 48.7267 33.1425 48.8881 34.2788C48.9717 34.8678 49.5239 35.2666 49.5922 35.8503C49.601 35.9255 50.2994 36.6661 50.4699 36.7233C50.8644 36.8555 50.7701 37.1547 51.0197 37.3829C51.3041 37.6429 51.4807 37.523 51.7141 37.9455C51.9181 38.3146 52.2235 38.5598 51.936 39.0804C51.6004 39.6879 51.1074 39.4049 50.5374 39.6915C50.0847 39.9192 49.4201 40.3109 49.0713 40.6421C48.0336 41.6278 46.1199 42.222 46.1199 43.8917C46.1199 44.4263 46.231 45.2285 46.6793 45.5892C47.3717 46.1462 48.2636 45.293 48.8109 45.1236C49.1399 45.0218 49.7456 45.0591 49.9201 44.658C49.9693 44.5449 48.8523 44.9971 48.7241 45.0654C48.5705 45.1472 49.5437 44.7172 49.7272 44.5998C50.0972 44.363 50.113 44.2156 50.113 43.7947C50.113 43.1869 50.0371 42.5573 50.3252 42.0001C50.466 41.7278 51.4207 41.7713 51.1837 41.7964C50.4102 41.8783 49.7184 42.1836 49.1678 42.7373C48.074 43.8374 46.0865 44.1984 44.8082 45.0654C43.7905 45.7556 42.6976 46.5535 41.606 47.1024C40.9633 47.4255 40.2239 47.5685 41.3938 47.5486C42.1397 47.5359 42.7112 47.0248 43.4193 47.0248C44.0301 47.0248 44.641 47.0248 45.2518 47.0248C45.6962 47.0248 45.6235 46.5727 45.5798 46.21C45.402 44.7347 44.3261 43.8504 43.101 43.1933C41.6357 42.4073 40.3439 41.734 39.5612 40.2541C38.7692 38.7567 38.54 36.8021 38.4713 35.1422C38.3618 32.5004 37.578 29.8759 37.256 27.2851C37.1609 26.52 37.1656 26.2472 36.3975 26.2472C35.839 26.2472 34.8814 26.7413 34.4106 27.0426C33.7325 27.4765 33.1071 27.9852 32.443 28.4394C32.2307 28.5845 31.9973 28.7712 31.8161 28.9535C31.7146 29.0555 31.6413 29.6246 31.8161 29.3512C32.0196 29.0328 32.6376 28.085 32.4623 28.42C32.1472 29.0221 31.7218 29.7931 31.2856 30.3115C30.9218 30.7439 31.0155 31.2205 31.0155 31.7956C31.0155 33.4576 31.7128 34.0599 32.5009 35.3653C32.9158 36.0525 33.0512 36.9091 33.1857 37.6933C33.3093 38.4146 33.3745 39.2988 33.2339 40.0213C33.1548 40.428 32.9253 40.6679 32.9253 41.1271C32.9253 42.2704 32.6555 43.0511 32.4141 44.1439C32.2667 44.8107 31.5815 45.5456 31.5363 46.113C31.5019 46.5466 31.0207 46.7887 30.8612 47.1897C30.6399 47.7461 30.2633 48.2566 29.8581 48.7029C29.0637 49.5779 28.2826 50.3634 27.5818 51.3122C26.2621 53.0989 25.1738 54.8704 24.5532 57.0547C24.28 58.0166 23.8973 58.8079 23.8973 59.8677C23.8973 60.2881 23.8973 60.7084 23.8973 61.1288C23.8973 61.8898 24.4645 61.0195 24.7268 60.7601C25.73 59.7684 26.4653 58.4629 27.6397 57.6755C28.2503 57.2661 28.8314 56.6222 29.4916 56.3175C30.1743 56.0023 30.945 55.8388 31.6135 55.5027C32.6559 54.9785 33.5283 54.2774 34.6518 53.9119C35.9442 53.4914 37.2607 52.2581 38.1723 51.2734C40.4956 48.7637 40.4297 45.8 40.3907 42.5045C40.3759 41.262 40.0129 40.2121 39.5419 39.0804C39.1172 38.0602 38.9319 37.0149 38.4713 35.9958C37.7744 34.4538 37.2955 32.8345 36.0889 31.621C35.6225 31.152 35.7031 31.3583 35.7031 32.0187C35.7031 32.9532 35.7031 33.8876 35.7031 34.8221C35.7031 36.9188 35.9265 39.3141 34.6614 41.1271C33.8398 42.3046 33.1679 43.5973 32.5877 44.9102C32.0349 46.161 31.2101 47.2245 30.5236 48.4022C30.2671 48.8422 28.4231 51.6697 29.4337 52.1271C30.7144 52.7067 32.7194 52.7858 34.0827 52.5054C35.0847 52.2992 35.505 51.0446 35.7031 50.1482C36.1203 48.2601 36.6028 45.37 35.3944 43.6686C35.2422 43.4542 34.5047 45.5485 34.372 45.8317C33.8024 47.0476 33.2011 48.2592 32.5105 49.411C32.2529 49.8407 31.7255 50.3893 31.5846 50.8854C31.1963 52.2521 33.0129 48.4323 33.7162 47.1994C34.4024 45.9963 35.5342 44.8985 36.0503 43.6298C36.4017 42.7658 36.3975 41.9139 36.3975 41.001C36.3975 40.0872 36.4518 39.3986 36.8316 40.8458C37.1597 42.0964 37.1723 43.3755 37.4006 44.6386C37.4664 45.002 37.4896 45.2506 37.6128 44.755" stroke="#00D5E3" stroke-width="6" stroke-linecap="round"/>
<path d="M32.9246 18.8783C32.9246 15.9536 33.1039 13.1237 33.9757 10.3749C34.4002 9.03649 34.742 7.19681 36.1023 6.4444C37.9678 5.4125 39.2604 3.9338 41.3332 3.43869C43.9926 2.80346 46.3796 2.00006 49.1552 2.00006C52.0609 2.00006 54.2551 1.96797 56.806 3.38731C58.0184 4.06184 59.3253 5.0074 60.3015 6.03336C61.0373 6.80668 61.11 8.14547 61.7437 8.93631C62.3353 9.67466 62.4356 12.2008 62.1348 13.1494C61.7038 14.5081 60.3154 16.5572 59.1526 17.3882C56.4628 19.3106 54.0323 22.1256 51.184 24.0162C49.7473 24.9698 49.9844 28.2805 50.084 29.6937C50.1099 30.0613 50.8523 31.3942 51.0862 31.7103C51.5513 32.3387 51.6956 32.8666 52.064 33.4958C52.421 34.1055 52.9917 34.8918 53.1639 35.5252C53.3656 36.2671 54.0439 36.909 54.0439 37.6061C54.0439 39.1277 54.4267 40.615 54.4839 42.1789C54.5273 43.364 55.1648 45.2115 54.2639 46.2636C53.5603 47.0852 52.6407 47.6098 51.9418 48.3445C51.4769 48.833 50.3829 48.813 49.8152 49.1665C48.942 49.7103 47.8851 49.7312 47.0041 50.1941C46.5978 50.4076 46.0249 50.6184 45.5864 50.7336C45.1293 50.8537 44.3679 50.581 43.9731 50.8364C43.3023 51.2702 41.8798 51.5745 41.0643 51.697C40.1328 51.8368 39.5699 52.2871 38.6933 52.5833C35.1173 53.7913 31.8489 55.1408 28.5736 57.3616C27.9995 57.7509 27.3645 58.4782 26.8626 59.0057C26.0686 59.8402 25.4514 60.8046 24.7604 61.7288C23.3398 63.6291 22.4785 65.9508 21.705 68.254C21.4368 69.0525 21.0503 70.2009 20.495 70.7845C20.3231 70.9652 20.2777 71.6306 20.1161 71.4396C19.7927 71.0572 19.945 70.1576 19.945 69.6927C19.945 67.0479 20.3647 64.9432 21.265 62.5252C22.365 59.5706 22.8526 57.4509 25.2737 55.6404C27.6692 53.849 29.8984 51.1705 30.9935 48.2931C31.6076 46.6797 33.6597 44.5635 33.7923 42.8211C33.9277 41.0431 33.5198 39.6688 32.4846 38.2484C30.8334 35.9827 28.8305 33.9451 26.9359 31.8773C25.8993 30.746 24.8074 28.6761 25.2737 27.0219C25.5124 26.1752 26.7619 25.2768 27.4492 24.864C28.3309 24.3345 29.4844 23.5179 30.2358 22.7574C31.0585 21.9248 31.5734 21.0483 32.2402 20.0471C32.7123 19.3383 32.4847 18.0559 32.7535 17.2084C33.2609 15.6085 33.225 13.9641 33.7557 12.353C34.0988 11.3114 34.2206 10.209 34.5745 9.16751C34.7762 8.574 35.1245 7.92557 35.1245 7.31785" stroke="#00D5E3" stroke-width="3" stroke-linecap="round"/>
<path d="M36.051 24.501C34.457 23.6995 35.7038 19.9947 35.7038 18.7391" stroke="#00D5E3" stroke-width="6" stroke-linecap="round"/>
<path d="M41.9537 12.2791C42.5699 12.3411 42.5105 13.004 42.9954 12.9679C44.2908 12.8714 45.6445 12.5161 46.8534 12.0657C48.3109 11.5229 49.769 11.2302 51.1552 10.5331" stroke="#00D5E3" stroke-width="6" stroke-linecap="round"/>
<path d="M40.217 33.2312C41.1945 33.5887 41.9525 35.4562 42.5608 36.2091C43.03 36.7899 43.9729 37.4216 44.7309 37.4216" stroke="#00D5E3" stroke-width="6" stroke-linecap="round"/>
<path d="M21.6384 63.6992L38.1782 37.2867L49 10" stroke="url(#paint0_linear_272_2110)"/>
<g filter="url(#filter0_b_272_2110)">
<path d="M10.4394 76.3042C10.2935 75.8239 9.52437 75.7468 9.15287 75.4341C8.64059 75.0029 8.50306 74.1621 7.84478 73.8739C7.22783 73.6037 6.9151 72.6122 6.31903 72.2418C5.70384 71.8594 6.07624 70.6999 5.66938 70.1866C5.34593 69.7785 5.63283 69.1044 5.36252 68.6475C5.14159 68.2741 4.85764 67.8147 4.82019 67.3841C4.75041 66.582 4.26333 65.6955 4.46344 64.8297C4.78681 63.4307 5.99326 62.5332 7.13007 61.6815C8.03748 61.0017 9.54512 60.1712 10.6751 59.9037C12.5215 59.4666 13.2173 58.0594 13.5097 56.3674C13.8028 54.6719 13.0749 53.1319 11.9596 51.9149C10.5319 50.3571 8.82117 49.4585 7.04344 48.314C6.47602 47.9487 5.82836 47.4101 5.37601 46.9311C4.94288 46.4724 4.78945 45.7122 4.44084 45.1286C3.94095 44.2919 3.91698 42.932 3.68733 41.99C3.55712 41.456 3.494 40.6803 3.87815 40.2069C4.33364 39.6455 5.01841 39.4694 5.70349 39.3179C6.54403 39.132 7.30351 38.7396 8.1017 38.4968C8.6315 38.3357 11.301 37.2637 11.4847 36.624C12.2194 34.065 10.4993 31.4404 9.49557 29.2237C8.97476 28.0736 8.61979 26.7757 8.31186 25.5585C7.97827 24.2398 7.54407 22.9011 8.48794 21.728C9.49973 20.4704 10.4595 19.3092 11.2188 17.8822C11.8231 16.7464 12.2591 15.4026 13.188 14.4493C14.3271 13.2804 16.089 13.2017 17.6417 13.065C19.0837 12.9382 20.3876 12.8431 21.8183 13.1346C23.1104 13.3978 24.6366 13.3668 25.8129 13.985C27.2044 14.7163 28.6241 15.1124 30.1565 15.533C30.7093 15.6848 31.9405 16.101 32.2287 16.5981C32.3683 16.8387 32.6946 17.1402 32.8931 17.3864C33.1566 17.7132 33.1571 18.2736 33.2821 18.6542C33.5489 19.4669 33.5884 20.2981 33.6635 21.1609C33.7587 22.2558 32.7831 23.4317 32.1713 24.3332C31.3176 25.5914 30.2291 27.1899 28.9852 28.1372C26.2237 30.24 27.7469 33.353 29.6148 35.3748C30.0658 35.863 30.2993 36.7001 30.9045 37.055C31.5323 37.4231 31.8197 38.0166 32.0806 38.645C32.6235 39.9526 33.4881 41.0163 33.6178 42.5068C33.7126 43.5969 33.8488 44.7537 33.3063 45.7756C32.9407 46.4645 32.7069 47.3346 32.187 47.9318C31.3703 48.87 29.8641 49.4952 28.803 50.1234C26.4682 51.5054 25.1833 52.9798 23.9214 55.2055C23.4925 55.9619 23.0342 56.8899 22.7644 57.7019C22.5802 58.2566 22.7409 58.9347 22.634 59.5161C22.4738 60.3875 22.3976 61.2625 22.2564 62.1352C22.0744 63.26 21.7765 64.6231 21.2757 65.6631C20.6226 67.0194 19.5896 68.2003 19.0628 69.6091C18.4422 71.2685 17.3722 72.2796 15.8672 73.3046C14.4063 74.2995 12.3824 75.4777 10.5544 75.6385" stroke="#FF066F" stroke-width="3" stroke-linecap="round"/>
</g>
<path d="M22.3333 17.4671C22.303 17.2281 21.3856 17.1575 21.2903 16.8286C21.1201 16.2416 20.0129 16.6212 19.6254 16.3433C19.2868 16.1007 17.8608 16.248 17.4616 16.3433C17.0312 16.4462 16.4683 16.326 16.0818 16.5604C15.1302 17.1376 13.6186 17.9439 13.2378 19.0698C13.0407 19.6528 12.3886 20.2266 12.0976 20.8002C12.0325 20.9286 12.0768 21.1238 12.0653 21.26C12.0457 21.4906 11.8644 21.5604 11.845 21.7516C11.7964 22.231 11.8385 22.731 11.8385 23.2138C11.8385 25.0953 11.9962 26.5438 13.3415 27.9644C13.5524 28.1872 13.8559 28.5338 13.9439 28.8201C14.1779 29.5811 14.8005 30.3274 14.8703 31.1187C15.0193 32.8071 15.9056 34.6582 14.7278 36.0609C14.2323 36.6511 14.1406 37.5981 13.6978 38.2255C13.0585 39.1312 12.4885 39.5696 11.6118 40.2177C10.9847 40.6812 9.98607 40.8087 9.24721 41.0797C8.71477 41.275 7.7512 41.2691 7.43331 41.8331C6.97497 42.6463 8.53066 43.022 8.91682 43.2123C9.34143 43.4216 9.94453 43.5371 10.4133 43.5571C10.9363 43.5796 11.3507 43.8726 11.8191 44.068C12.0003 44.1436 12.3832 44.2918 12.2466 44.5341C12.0407 44.8995 11.1359 44.7022 10.7761 44.7065C10.3852 44.7112 10.0953 44.9183 9.71365 45.0257C9.00494 45.2253 9.67446 45.3288 10.1801 45.4599C10.9422 45.6576 11.6833 45.8217 12.3697 46.2006C12.8304 46.4549 13.2438 46.6764 13.7302 46.8647C14.1874 47.0417 14.7233 47.8519 14.9416 48.2822C15.1974 48.7866 15.3359 49.2619 15.5441 49.7636C15.9124 50.651 15.8032 51.7921 15.8032 52.7263C15.8032 53.3108 15.9644 53.7423 16.0235 54.3099C16.1839 55.8517 16.5016 57.1512 15.8615 58.6071C15.3693 59.7267 13.56 60.4856 12.5122 60.9122C11.491 61.3279 10.7592 61.959 9.99869 62.7256C8.82078 63.913 8.33157 65.4429 8.11352 67.0548C8.03626 67.6259 8.08514 68.3155 8.31435 68.8426C8.57172 69.4345 8.99369 69.7052 9.38974 70.2474C9.71075 70.6868 10.1517 70.8608 10.6141 71.1413C11.1739 71.4808 11.4553 71.6541 12.0199 71.1988C12.3303 70.9485 12.7668 70.8672 13.0499 70.5666C13.3908 70.2048 13.3291 69.8217 13.5229 69.4173C14.0216 68.3763 14.5527 67.3679 15.3886 66.5439C16.8936 65.0606 17.1003 62.9352 17.9928 61.142C18.6258 59.8702 19.0921 58.5746 19.6578 57.2854C20.1757 56.1048 20.2781 54.7935 20.7655 53.6266C21.2993 52.3489 21.5959 51.0738 22.2426 49.8274C22.9199 48.522 24.0055 47.0919 25.08 46.0857C25.4884 45.7033 28.3848 47.1075 28.8893 46.8647C29.461 46.5895 27.7981 44.4029 28.3321 44.068C28.8474 43.7448 28.8138 42.9053 29.0318 42.4142C29.3036 41.8017 29.1099 40.5104 28.8893 39.9303C28.292 38.3604 27.2195 38.0988 25.8315 37.4401C24.5948 36.8532 23.6478 36.3366 22.6831 35.333C21.4473 34.0473 20.9607 31.9988 20.6554 30.327C20.477 29.3501 20.2836 27.1561 20.8174 26.2277C21.4287 25.1643 21.9204 24.0941 22.6572 23.0989C23.184 22.3873 23.8854 21.5889 24.6201 21.0876C25.528 20.468 26.1085 19.7226 26.8745 18.9677C27.3315 18.5172 27.3953 18.2717 28.0471 18.2717C28.8502 18.2717 28.6301 18.7805 28.6301 19.4785C28.6301 19.9083 28.7633 20.6312 28.5783 21.0301C28.1791 21.8908 27.4917 22.4451 26.9717 23.2138C26.8004 23.4671 26.5859 23.6161 26.4146 23.929C26.0212 24.6475 25.7683 25.4414 25.3651 26.151C24.9961 26.8005 24.6398 27.4815 24.3156 28.156C24.0056 28.8011 24.0306 29.5438 23.8362 30.2248C23.3295 32.0005 23.0329 33.4791 23.0329 35.333C23.0329 37.9666 21.874 40.6554 20.6101 42.9442C20.1931 43.6993 19.9181 44.5059 19.5606 45.2812C19.4985 45.4158 19.5488 45.5857 19.5282 45.7281C19.4975 45.9399 18.9164 45.0993 18.8156 45.013C18.5046 44.7468 17.9963 44.6151 17.7855 44.2468C17.612 43.9435 17.7162 43.5628 17.5264 43.2634C17.0435 42.5019 16.9471 41.3852 16.7944 40.4986C16.5313 38.9715 16.6195 37.4057 16.6195 35.863C16.6195 34.2862 16.3862 32.7372 16.3862 31.1571C16.3862 28.6529 16.2045 26.1527 16.2696 23.648C16.292 22.7864 16.8514 22.0329 17.7272 21.841C19.2377 21.5102 20.3386 25.1203 20.7267 26.0233C21.6375 28.1429 22.5449 30.263 23.454 32.383C24.0061 33.6703 24.4803 34.9765 24.9246 36.3035C25.324 37.4967 25.6543 38.7842 26.3239 39.8665C26.6744 40.4331 26.9846 40.8335 27.2567 41.4628C27.4949 42.0136 27.7926 42.1855 28.222 42.5419C28.7075 42.9449 28.7396 43.726 29.3298 44.0169" stroke="#FF066F" stroke-width="10" stroke-linecap="round"/>
<path d="M11.4473 80.1201L16.7478 43.8181L26.0362 10.5422" stroke="url(#paint1_linear_272_2110)"/>
<defs>
<filter id="filter0_b_272_2110" x="1.08691" y="10.4427" width="35.1202" height="68.362" filterUnits="userSpaceOnUse" color-interpolation-filters="sRGB">
<feFlood flood-opacity="0" result="BackgroundImageFix"/>
<feGaussianBlur in="BackgroundImageFix" stdDeviation="0.5"/>
<feComposite in2="SourceAlpha" operator="in" result="effect1_backgroundBlur_272_2110"/>
<feBlend mode="normal" in="SourceGraphic" in2="effect1_backgroundBlur_272_2110" result="shape"/>
</filter>
<linearGradient id="paint0_linear_272_2110" x1="37.7658" y1="38.0962" x2="35.3192" y2="36.8496" gradientUnits="userSpaceOnUse">
<stop stop-color="white"/>
<stop offset="1" stop-color="white" stop-opacity="0"/>
</linearGradient>
<linearGradient id="paint1_linear_272_2110" x1="16.5279" y1="44.8669" x2="18.7417" y2="45.3311" gradientUnits="userSpaceOnUse">
<stop stop-color="white"/>
<stop offset="1" stop-color="white" stop-opacity="0"/>
</linearGradient>
</defs>
</svg>
