<svg width="23" height="16" viewBox="0 0 23 16" fill="none" xmlns="http://www.w3.org/2000/svg">
<path d="M21.7296 14.3174C21.7296 14.7636 21.5516 15.1916 21.2348 15.5072C20.9179 15.8227 20.4882 16 20.0401 16H2.42795C2.20604 16.0001 1.98627 15.9567 1.78122 15.8722C1.57617 15.7877 1.38986 15.6638 1.23294 15.5075C1.07602 15.3512 0.95158 15.1657 0.866723 14.9615C0.781866 14.7573 0.738261 14.5384 0.738404 14.3174V1.6837C0.738261 1.46264 0.781857 1.24373 0.866701 1.03946C0.951545 0.835188 1.07597 0.64957 1.23288 0.49321C1.38978 0.33685 1.57608 0.212812 1.78114 0.128185C1.9862 0.0435584 2.20599 -4.56511e-08 2.42795 0H20.0401C20.4883 0.000286678 20.918 0.177803 21.2348 0.493527C21.5516 0.80925 21.7296 1.23734 21.7296 1.6837V14.3174Z" fill="#FFBE89"/>
<path d="M20.3842 13.1893C20.3782 13.5618 20.224 13.9167 19.9555 14.176C19.687 14.4353 19.3261 14.5779 18.952 14.5724H4.04256C3.66854 14.5779 3.30763 14.4353 3.0391 14.176C2.77056 13.9167 2.61635 13.5618 2.61035 13.1893V2.80814C2.61607 2.43548 2.77015 2.08033 3.03872 1.82077C3.30728 1.56121 3.66836 1.41849 4.04256 1.42398H18.952C19.3262 1.41849 19.6873 1.56121 19.9559 1.82077C20.2245 2.08033 20.3785 2.43548 20.3842 2.80814V13.1893Z" stroke="#D16400" stroke-width="0.4" stroke-miterlimit="16" stroke-linecap="round" stroke-dasharray="1.1 1.1"/>
<g style="mix-blend-mode:soft-light" opacity="0.2">
<path d="M1.6059 13.7938V2.20575C1.60533 2.0026 1.64502 1.80134 1.72268 1.61349C1.80035 1.42563 1.91447 1.25489 2.05851 1.11104C2.20255 0.967189 2.37368 0.853059 2.56208 0.775185C2.75049 0.697311 2.95247 0.657226 3.15646 0.657227H19.3114C20.167 0.657227 11.2904 13.3569 1.6059 13.7938Z" fill="white"/>
</g>
<path d="M21.4581 10.4582H16.1256C14.8639 10.4582 13.8454 9.18324 13.8454 7.61093C13.8454 6.03861 14.866 4.76367 16.1256 4.76367H21.4581C21.8599 4.76367 22.2779 5.03185 22.2801 5.83315C22.2801 6.77719 22.2638 8.38951 22.2801 9.58119C22.2855 10.256 21.8132 10.4582 21.4581 10.4582Z" fill="#D16400"/>
<path d="M21.4982 10.1552H16.4535C15.2591 10.1552 14.2905 9.01656 14.2905 7.61077C14.2905 6.20499 15.2591 5.06738 16.4535 5.06738H21.4982C21.8783 5.06738 22.2746 5.30528 22.2757 6.02223C22.2757 6.86679 22.2605 8.30609 22.2757 9.37449C22.2844 9.97465 21.837 10.1552 21.4982 10.1552Z" fill="#FFBE89"/>
<path d="M17.0486 9.40254C18.08 9.40254 18.9162 8.56981 18.9162 7.54258C18.9162 6.51535 18.08 5.68262 17.0486 5.68262C16.0171 5.68262 15.1809 6.51535 15.1809 7.54258C15.1809 8.56981 16.0171 9.40254 17.0486 9.40254Z" fill="#D16400"/>
<path d="M18.5459 7.44634C18.5462 7.79543 18.4424 8.13674 18.2478 8.4271C18.0532 8.71747 17.7766 8.94383 17.4528 9.07757C17.129 9.21131 16.7726 9.24641 16.4288 9.17844C16.085 9.11047 15.7691 8.94247 15.5212 8.6957C15.2733 8.44894 15.1044 8.13448 15.0359 7.79211C14.9675 7.44974 15.0025 7.09485 15.1366 6.77231C15.2707 6.44977 15.4978 6.17408 15.7892 5.98011C16.0807 5.78615 16.4233 5.68262 16.7739 5.68262C17.2437 5.68262 17.6942 5.8684 18.0265 6.19913C18.3588 6.52986 18.5457 6.97847 18.5459 7.44634Z" fill="#F39200"/>
</svg>
