<svg width="176" height="35" viewBox="0 0 176 35" fill="none" xmlns="http://www.w3.org/2000/svg">
<path d="M6.77108 8.0573C6.21228 8.12226 5.51377 8.18722 5.09467 8.18722C4.67556 8.18722 4.53586 8.18722 4.25646 8.12226V10.4609C4.25646 13.3191 4.25646 13.4491 6.21228 13.579C6.28213 13.579 6.35198 13.9687 6.14243 13.9687C5.58362 13.8388 4.53586 13.7739 3.6278 13.7739C2.37049 13.7739 1.39259 13.7739 0.484527 13.9038C0.344826 13.9687 0.414676 13.514 0.484527 13.514C2.37049 13.3191 2.44034 13.3841 2.44034 10.3959V4.54941C2.44034 2.34074 2.37049 1.62617 1.18303 1.62617C0.973481 1.62617 0.694079 1.62617 0.414676 1.69113C0.274975 1.69113 0.205125 1.36633 0.344826 1.30137C1.18303 1.04152 3.3484 0.976562 5.65347 0.976562C8.7269 0.976562 11.3114 1.88601 11.3114 4.02972C11.3114 5.13406 10.543 6.75808 8.37765 7.60257C9.49526 10.4609 12.8481 13.8388 15.223 13.8388C15.2929 13.8388 15.3627 14.2286 15.223 14.2286C10.1938 14.2286 7.74899 11.1754 6.77108 8.0573ZM4.46601 1.56121C4.32631 1.95098 4.32631 2.86043 4.32631 4.28957V7.53761C4.60571 7.53761 4.74541 7.53761 5.16452 7.53761C8.3078 7.53761 9.42541 6.49824 9.42541 4.87422C9.42541 2.21082 7.53944 1.49625 5.44392 1.49625C5.09467 1.56121 4.81527 1.56121 4.46601 1.56121Z" fill="white"/>
<path d="M21.0206 7.66759C21.0206 4.41955 24.3036 0.781738 28.9836 0.781738C33.454 0.781738 36.5973 3.89986 36.5973 7.27783C36.5973 10.5908 33.3143 14.2286 28.6343 14.2286C24.0941 14.1637 21.0206 11.1105 21.0206 7.66759ZM22.9066 7.01798C22.9066 11.3704 26.0499 13.579 29.0534 13.579C32.2666 13.579 34.6415 11.5003 34.6415 7.92743C34.6415 3.57506 31.4982 1.36639 28.4946 1.36639C25.2815 1.36639 22.9066 3.44513 22.9066 7.01798Z" fill="white"/>
<path d="M45.1191 12.8645C44.9794 12.7995 45.1889 11.6302 45.2588 10.266C45.2588 10.1361 45.608 10.2011 45.608 10.266C45.7477 12.2798 46.9352 13.579 49.1704 13.579C50.6373 13.579 51.9644 12.8645 51.9644 11.3054C51.9644 8.05736 45.608 7.99239 45.608 4.41955C45.608 2.60064 47.3543 0.781738 49.7991 0.781738C51.0564 0.781738 51.8247 1.04158 52.5931 1.43135C52.7328 1.49631 52.9423 2.27584 52.9423 3.57506C52.9423 3.70498 52.5232 3.64002 52.5232 3.57506C52.2438 2.14592 51.2659 1.36639 49.6594 1.36639C48.3322 1.36639 47.0749 2.14592 47.0749 3.38017C47.0749 6.4983 53.3614 6.43333 53.3614 10.2011C53.3614 12.3448 51.5453 14.1637 49.0307 14.1637C47.494 14.1637 46.3065 13.709 45.1191 12.8645Z" fill="white"/>
<path d="M74.1071 13.9037C73.3387 13.9037 71.9417 13.7738 70.405 13.7738C68.2396 13.7738 66.0743 13.7738 64.5376 13.9037C64.328 13.9037 64.4677 13.514 64.5376 13.514C66.7029 13.3191 66.7029 13.384 66.7029 10.3958V4.54935C66.7029 1.56115 66.6331 1.62611 64.5376 1.43123C64.4677 1.43123 64.328 1.04146 64.5376 1.10642C66.0743 1.23635 68.1698 1.23635 70.3352 1.23635C71.8719 1.23635 73.3387 1.17139 74.596 1.10642C74.4563 1.49619 74.4563 1.82099 74.4563 2.27572C74.4563 2.4706 74.4563 2.86037 74.4563 3.05525C74.4563 3.18517 74.1071 3.12021 74.1071 3.05525C73.9674 2.21076 73.4784 1.95092 70.7543 1.95092H68.7286C68.6587 2.4706 68.5889 3.31509 68.5889 4.61431V7.14779H70.7543C73.0593 7.14779 72.9196 7.01786 73.0593 6.49818C73.0593 6.43322 73.4086 6.49818 73.4784 6.56314C73.4086 6.88794 73.3387 7.34267 73.3387 7.7974C73.3387 7.99228 73.3387 8.38204 73.3387 8.57693C73.4086 8.70685 72.9895 8.64189 72.9895 8.57693C72.8498 7.99228 72.7101 7.73243 70.8241 7.73243H68.6587V10.5907C68.6587 13.1242 69.008 13.384 69.9859 13.384H71.1035C74.3166 13.384 74.5262 13.1242 74.8754 11.825C74.8754 11.76 75.2945 11.76 75.2247 11.8899C75.1548 12.4096 74.9453 13.3191 74.8056 13.7088C74.596 13.8388 74.4563 13.9037 74.1071 13.9037Z" fill="white"/>
<path d="M98.4151 14.0337C98.3452 14.0986 98.1357 14.1636 98.0658 14.0337L94.8527 5.71867L90.8712 14.0986C90.8014 14.1636 90.522 14.2285 90.522 14.0986L86.4706 4.61433C85.4229 2.27574 85.1435 1.56117 83.4671 1.43125C83.3972 1.43125 83.2575 1.10644 83.4671 1.10644C84.0259 1.1714 84.9339 1.23637 85.7023 1.23637C86.8199 1.23637 88.2868 1.23637 89.0551 1.10644C89.2647 1.10644 89.125 1.43125 89.0551 1.43125C88.0772 1.49621 87.5882 1.62613 87.5882 2.14582C87.5882 2.53558 88.0772 3.89976 88.3566 4.54937L91.3602 11.5651L94.5035 4.80921L94.3638 4.54937C93.316 2.27574 93.1065 1.49621 91.4999 1.36629C91.43 1.36629 91.3602 1.04148 91.4999 1.04148C92.1285 1.10644 92.9667 1.1714 93.7351 1.1714C94.8527 1.1714 96.4593 1.1714 97.2975 1.04148C97.4372 0.976522 97.4372 1.36629 97.3673 1.36629C96.0402 1.49621 95.6211 1.62613 95.6211 2.21078C95.6211 2.6655 95.8306 3.38007 96.2497 4.48441L98.8342 11.5002L101.838 4.41945C102.327 3.25015 102.606 2.6655 102.606 2.14582C102.606 1.62613 102.257 1.49621 101.209 1.43125C101.139 1.43125 101 1.10644 101.209 1.10644C101.838 1.1714 102.466 1.23637 103.305 1.23637C104.492 1.23637 104.422 1.23637 105.26 1.10644C105.4 1.04148 105.33 1.43125 105.26 1.43125C103.933 1.56117 103.514 2.40566 102.536 4.61433L98.4151 14.0337Z" fill="white"/>
<path d="M112.595 7.66759C112.595 4.41955 115.878 0.781738 120.558 0.781738C125.028 0.781738 128.171 3.89986 128.171 7.27783C128.171 10.5908 124.888 14.2286 120.208 14.2286C115.668 14.1637 112.595 11.1105 112.595 7.66759ZM114.481 7.01798C114.481 11.3704 117.624 13.579 120.628 13.579C123.841 13.579 126.216 11.5003 126.216 7.92743C126.216 3.57506 123.072 1.36639 120.069 1.36639C116.856 1.36639 114.481 3.44513 114.481 7.01798Z" fill="white"/>
<path d="M136.763 7.66759C136.763 4.41955 140.046 0.781738 144.726 0.781738C149.197 0.781738 152.34 3.89986 152.34 7.27783C152.34 10.5908 149.057 14.2286 144.377 14.2286C139.837 14.1637 136.763 11.1105 136.763 7.66759ZM138.649 7.01798C138.649 11.3704 141.792 13.579 144.796 13.579C148.009 13.579 150.384 11.5003 150.384 7.92743C150.384 3.57506 147.241 1.36639 144.237 1.36639C141.024 1.36639 138.649 3.44513 138.649 7.01798Z" fill="white"/>
<path d="M164.494 13.7738C163.237 13.7738 161.979 13.7738 161.071 13.9037C160.862 13.9037 161.001 13.514 161.071 13.514C162.957 13.3191 163.027 13.3841 163.027 10.3959V4.54937C163.027 1.62613 162.887 1.62613 161.071 1.43125C161.001 1.43125 160.862 1.10645 161.071 1.10645C161.979 1.23637 163.446 1.23637 164.703 1.23637C165.262 1.23637 167.218 1.17141 167.986 1.17141C173.016 1.17141 175.6 3.89976 175.6 7.34269C175.6 10.9155 172.457 13.9037 167.707 13.9037C166.939 13.9037 165.053 13.7738 164.494 13.7738ZM165.053 1.75605C164.913 2.3407 164.913 2.99031 164.913 4.48441V11.1754C164.913 13.1242 165.262 13.3191 168.266 13.3191C171.339 13.3191 173.644 11.3703 173.644 7.9923C173.644 3.8348 171.199 1.75605 167.288 1.75605C165.891 1.69109 165.402 1.75605 165.053 1.75605Z" fill="white"/>
<path d="M124.539 21.5044H51.3358V21.7629H124.539V21.5044Z" fill="white"/>
<path d="M42.1853 32.0931V33.0675C42.1853 34.1069 42.1853 34.1718 42.7441 34.1718C42.9537 34.1718 43.0235 34.1718 43.0235 34.3667C43.0235 34.4317 43.0235 34.4317 42.9537 34.4317C42.5346 34.4317 42.1155 34.4317 41.6265 34.4317C41.2074 34.4317 40.7883 34.4317 40.2994 34.4317C40.2295 34.4317 40.2295 34.4317 40.2295 34.3667C40.2295 34.1718 40.2295 34.1718 40.5089 34.1718C41.0677 34.1718 41.0677 34.1069 41.0677 33.0675V30.6639C41.0677 29.8194 40.9979 29.7545 40.4391 29.7545C40.3692 29.7545 40.2295 29.6895 40.2295 29.6895C40.2295 29.4946 40.2295 29.4946 40.3692 29.4946C40.7883 29.4946 41.2074 29.4946 41.6964 29.4946C42.1155 29.4946 42.5346 29.4946 43.0235 29.4946C43.0934 29.4946 43.0934 29.4946 43.0934 29.6895C43.0934 29.7545 43.0235 29.7545 42.814 29.7545C42.325 29.7545 42.325 29.8194 42.325 30.6639V31.7683H44.7698V30.6639C44.7698 29.8194 44.7 29.7545 44.2809 29.7545C44.1412 29.7545 44.0015 29.6895 44.0015 29.6895C44.0015 29.4946 44.0015 29.4946 44.0713 29.4946C44.4904 29.4946 44.9095 29.4946 45.3985 29.4946C45.8176 29.4946 46.2367 29.4946 46.7256 29.4946C46.8653 29.4946 46.8653 29.4946 46.8653 29.6895C46.8653 29.7545 46.7955 29.7545 46.6558 29.7545C46.0271 29.7545 46.0271 29.8194 46.0271 30.6639V33.0675C46.0271 34.1069 46.0271 34.1718 46.5859 34.1718C46.7955 34.1718 46.8653 34.1718 46.8653 34.3667C46.8653 34.4317 46.8653 34.4317 46.7955 34.4317C46.3764 34.4317 45.9573 34.4317 45.4683 34.4317C45.0492 34.4317 44.6301 34.4317 44.1412 34.4317C44.0713 34.4317 44.0713 34.4317 44.0713 34.3667C44.0713 34.1718 44.0713 34.1718 44.3507 34.1718C44.9095 34.1718 44.9095 34.1069 44.9095 33.0675V32.0931H42.1853Z" fill="white"/>
<path d="M56.4349 31.9632C56.4349 32.8726 55.876 34.5616 53.2916 34.5616C51.6152 34.5616 50.4277 33.5872 50.4277 31.9632C50.4277 30.4041 51.8247 29.3647 53.571 29.3647C55.2474 29.3647 56.4349 30.4041 56.4349 31.9632ZM51.8247 31.9632C51.8247 32.8077 52.174 34.3018 53.5011 34.3018C54.8981 34.3018 55.1775 33.0675 55.1775 31.9632C55.1775 30.9888 54.8283 29.6246 53.5011 29.6246C52.1041 29.6896 51.8247 30.9238 51.8247 31.9632Z" fill="white"/>
<path d="M65.4456 29.4947C65.5853 29.4947 65.725 29.2998 65.7949 29.2998C65.8647 29.2998 65.9346 29.3648 65.9346 29.4297C65.9346 29.5596 66.2838 30.599 66.2838 30.664C66.2838 30.7289 66.214 30.7289 66.1441 30.7289C66.0743 30.7289 66.0044 30.7289 66.0044 30.664C65.5853 30.0144 65.3059 29.8195 64.2582 29.8195C63.7692 29.8195 63.7692 29.8195 63.7692 30.2742V33.0675C63.7692 34.1069 63.7692 34.1719 64.328 34.1719C64.5376 34.1719 64.6074 34.1719 64.6074 34.3668C64.6074 34.4317 64.6074 34.4317 64.5376 34.4317C64.1185 34.4317 63.6993 34.4317 63.2104 34.4317C62.7913 34.4317 62.3722 34.4317 61.8832 34.4317C61.8134 34.4317 61.8134 34.4317 61.8134 34.3668C61.8134 34.1719 61.8134 34.1719 62.0928 34.1719C62.6516 34.1719 62.6516 34.1069 62.6516 33.0675V30.2742C62.6516 29.8195 62.6516 29.8195 62.0928 29.8195C61.1847 29.8195 60.8355 30.0793 60.4164 30.664C60.3465 30.7289 60.3465 30.7939 60.2767 30.7939C60.2068 30.7939 60.137 30.7939 60.137 30.7289C60.137 30.599 60.4862 29.6896 60.4862 29.5596C60.4862 29.4947 60.5561 29.4297 60.6259 29.4297C60.6958 29.4297 60.7656 29.6246 61.1847 29.6246H65.4456V29.4947Z" fill="white"/>
<path d="M70.6145 30.6639C70.6145 29.8194 70.5447 29.7545 69.9859 29.7545C69.916 29.7545 69.7763 29.6895 69.7763 29.6895C69.7763 29.4946 69.7763 29.4946 69.916 29.4946C70.1256 29.4946 70.6145 29.4946 71.1035 29.4946C73.5483 29.4946 73.8975 29.4946 74.1071 29.4946C74.1071 29.4946 74.1769 29.4946 74.1769 29.5596C74.1769 29.6895 74.5262 30.469 74.5262 30.599C74.5262 30.6639 74.4563 30.6639 74.3865 30.6639C74.2468 30.6639 74.2468 30.6639 74.1071 30.469C73.9674 30.3391 73.7578 30.0793 73.4784 29.9494C73.2689 29.8194 73.199 29.8194 72.5704 29.8194C71.8718 29.8194 71.802 29.8194 71.802 30.2742V31.8982H72.291C72.8498 31.8982 72.9895 31.7683 73.0593 31.2486C73.0593 31.1187 73.1292 31.0537 73.199 31.0537C73.3387 31.0537 73.3387 31.0537 73.3387 31.1187C73.3387 31.1836 73.3387 31.3785 73.3387 32.0281C73.3387 32.3529 73.3387 32.6777 73.3387 32.9376C73.3387 33.0025 73.2689 33.0025 73.1292 33.0025C73.0593 33.0025 73.0593 33.0025 73.0593 32.8726C72.9196 32.2879 72.9196 32.158 72.0115 32.158H71.7321V33.912C71.7321 34.1718 71.7321 34.1718 73.5483 34.1718C73.688 34.1718 73.8975 34.0419 74.0372 33.912C74.4563 33.3273 74.5262 33.3273 74.6659 33.3273C74.8056 33.3273 74.8056 33.3273 74.8056 33.3923C74.8056 33.4572 74.5262 34.0419 74.3865 34.3667C74.3166 34.4966 74.3166 34.4966 74.1071 34.4966C73.9674 34.4966 73.8277 34.4966 70.8939 34.4966C69.916 34.4966 69.8462 34.4966 69.7763 34.4966C69.7065 34.4966 69.7065 34.4966 69.7065 34.4317C69.7065 34.2368 69.7065 34.2368 69.9859 34.2368C70.5447 34.2368 70.5447 34.1718 70.5447 33.1324V30.6639H70.6145Z" fill="white"/>
<path d="M79.276 30.6639C79.276 29.8194 79.2062 29.7545 78.6474 29.7545C78.5775 29.7545 78.4378 29.6895 78.4378 29.6895C78.4378 29.4946 78.4378 29.4946 78.5775 29.4946C78.9966 29.4946 79.4157 29.4946 79.9047 29.4946C80.3238 29.4946 80.7429 29.4946 81.2318 29.4946C81.3715 29.4946 81.3715 29.4946 81.3715 29.6895C81.3715 29.7545 81.3017 29.7545 81.162 29.7545C80.5333 29.7545 80.5333 29.8194 80.5333 30.6639V33.6521C80.5333 34.0419 80.6032 34.1068 81.2318 34.1068C82.2796 34.1068 82.7685 34.1068 83.1876 33.0675C83.1876 33.0025 83.2575 33.0025 83.3273 33.0025C83.3972 33.0025 83.467 33.0025 83.467 33.0675C83.467 33.1974 83.1876 34.3667 83.1178 34.4317C83.1178 34.4966 83.0479 34.4966 82.9781 34.4966C82.6288 34.4966 81.3715 34.4966 80.5333 34.4966C79.3459 34.4966 78.9268 34.4966 78.5775 34.4966C78.5077 34.4966 78.5077 34.4966 78.5077 34.4317C78.5077 34.2368 78.5077 34.2368 78.7871 34.2368C79.3459 34.2368 79.3459 34.1718 79.3459 33.1324V30.6639H79.276Z" fill="white"/>
<path d="M97.0181 32.9376C97.0181 32.8726 97.0181 32.6128 96.5291 32.6128H96.11C96.0402 32.6128 96.0402 32.5478 96.0402 32.4829C96.0402 32.3529 96.0402 32.3529 96.1799 32.3529C96.599 32.3529 97.0879 32.3529 97.507 32.3529C97.9261 32.3529 98.3452 32.3529 98.7643 32.3529C98.8342 32.3529 98.8342 32.4179 98.8342 32.4829C98.8342 32.6128 98.8342 32.6128 98.4151 32.6128C98.2754 32.6128 98.1357 32.7427 98.1357 33.1325V33.7171C98.1357 34.0419 98.3452 34.0419 98.3452 34.1719C98.3452 34.3018 97.9261 34.3018 97.7864 34.3667C97.2276 34.4967 96.599 34.5616 95.9703 34.5616C93.5954 34.5616 92.6873 33.4573 92.6873 32.0281C92.6873 30.4041 94.1542 29.3647 95.9005 29.3647C97.0879 29.3647 97.7166 29.8195 97.8563 29.8195C97.996 29.8195 98.0658 29.6896 98.1357 29.6896C98.2055 29.6896 98.2055 29.6895 98.2055 29.7545C98.2055 30.1443 98.2754 30.599 98.2754 30.9888C98.2754 31.0537 98.2055 31.0537 98.1357 31.0537C97.9261 31.0537 97.996 30.664 97.7864 30.4041C97.3673 29.8195 96.9482 29.6246 96.11 29.6246C94.7829 29.6246 94.2241 30.8588 94.2241 31.9632C94.2241 33.2624 94.9226 34.1719 96.2497 34.1719C96.5291 34.1719 97.1578 34.1719 97.1578 33.5872V32.9376H97.0181Z" fill="white"/>
<path d="M104.352 33.0675C104.352 34.1069 104.352 34.1718 104.911 34.1718C105.121 34.1718 105.191 34.1718 105.191 34.3667C105.191 34.4317 105.191 34.4317 105.121 34.4317C104.702 34.4317 104.283 34.4317 103.794 34.4317C103.375 34.4317 102.955 34.4317 102.466 34.4317C102.397 34.4317 102.397 34.4317 102.397 34.3667C102.397 34.1718 102.397 34.1718 102.676 34.1718C103.235 34.1718 103.235 34.1069 103.235 33.0675V30.6639C103.235 29.8194 103.165 29.7545 102.606 29.7545C102.536 29.7545 102.397 29.6895 102.397 29.6895C102.397 29.4946 102.397 29.4946 102.536 29.4946C102.955 29.4946 103.375 29.4946 103.863 29.4946C104.073 29.4946 104.492 29.4946 105.121 29.4946C107.007 29.4946 107.216 30.4041 107.216 30.8588C107.216 31.5084 106.727 31.8332 106.099 32.0281L106.029 32.0931C106.029 32.0931 106.099 32.158 106.169 32.2879L107.426 33.912C107.566 34.1069 107.775 34.1718 108.055 34.1718C108.124 34.1718 108.124 34.1718 108.124 34.2368C108.124 34.4317 108.124 34.4317 108.055 34.4317C107.915 34.4317 107.496 34.4317 107.216 34.4317C107.007 34.4317 106.727 34.4317 106.448 34.4317C106.378 34.4317 106.238 34.2368 106.099 33.9769L105.191 32.6777C104.841 32.223 104.772 32.223 104.492 32.223V33.0675H104.352ZM104.352 31.9631H104.632C105.54 31.9631 105.819 31.5084 105.819 30.9238C105.819 30.2742 105.54 29.7545 104.772 29.7545C104.562 29.7545 104.352 29.8194 104.352 30.0793V31.9631Z" fill="white"/>
<path d="M117.484 31.9632C117.484 32.8726 116.926 34.5616 114.341 34.5616C112.665 34.5616 111.477 33.5872 111.477 31.9632C111.477 30.4041 112.874 29.3647 114.62 29.3647C116.297 29.3647 117.484 30.4041 117.484 31.9632ZM112.874 31.9632C112.874 32.8077 113.223 34.3018 114.551 34.3018C115.948 34.3018 116.227 33.0675 116.227 31.9632C116.227 30.9888 115.878 29.6246 114.551 29.6246C113.154 29.6896 112.874 30.9238 112.874 31.9632Z" fill="white"/>
<path d="M122.025 30.6639C122.025 29.8195 121.955 29.7545 121.396 29.7545C121.326 29.7545 121.186 29.6895 121.186 29.6895C121.186 29.4946 121.186 29.4946 121.326 29.4946C121.745 29.4946 122.164 29.4946 122.653 29.4946C123.072 29.4946 123.491 29.4946 123.98 29.4946C124.12 29.4946 124.12 29.4946 124.12 29.6895C124.12 29.7545 124.05 29.7545 123.911 29.7545C123.282 29.7545 123.282 29.8195 123.282 30.6639V32.4179C123.282 34.0419 124.469 34.0419 124.888 34.0419C125.866 34.0419 126.425 33.3923 126.425 32.0931V30.8588C126.425 29.6895 126.146 29.6895 125.657 29.6895C125.587 29.6895 125.447 29.6895 125.447 29.5596C125.447 29.4297 125.447 29.4297 125.587 29.4297C125.797 29.4297 126.216 29.4297 126.565 29.4297C126.844 29.4297 127.194 29.4297 127.543 29.4297C127.613 29.4297 127.613 29.4947 127.613 29.6246C127.613 29.6895 127.543 29.6895 127.333 29.7545C127.124 29.7545 126.774 29.8195 126.774 30.3391C126.705 32.158 126.705 32.7427 126.635 33.0675C126.355 34.1718 125.377 34.5616 124.33 34.5616C122.793 34.5616 122.094 33.7821 122.094 32.8726V30.6639H122.025Z" fill="white"/>
<path d="M131.804 30.6639C131.804 29.8194 131.734 29.7545 131.175 29.7545C131.105 29.7545 130.966 29.6895 130.966 29.6895C130.966 29.4946 130.966 29.4946 131.105 29.4946C131.524 29.4946 131.943 29.4946 132.432 29.4946C132.642 29.4946 133.201 29.4946 133.69 29.4946C135.436 29.4946 135.715 30.469 135.715 30.9238C135.715 31.7033 135.157 32.4828 133.76 32.4828C133.48 32.4828 133.201 32.4179 132.991 32.4179V33.4572C132.991 34.1718 132.991 34.2368 133.69 34.2368C133.969 34.2368 133.969 34.2368 133.969 34.4317C133.969 34.4966 133.969 34.4966 133.829 34.4966C133.271 34.4966 132.851 34.4966 132.432 34.4966C132.013 34.4966 131.594 34.4966 131.105 34.4966C131.035 34.4966 131.035 34.4966 131.035 34.4317C131.035 34.2368 131.035 34.2368 131.315 34.2368C131.874 34.2368 131.874 34.1718 131.874 33.1324V30.6639H131.804ZM132.991 31.9631C132.991 32.0931 133.201 32.0931 133.271 32.0931C134.039 32.0931 134.458 31.5734 134.458 30.8588C134.458 30.2092 134.039 29.6895 133.271 29.6895C132.921 29.6895 132.921 29.8194 132.921 30.1442V31.9631H132.991Z" fill="white"/>
</svg>
