<svg width="36" height="36" viewBox="0 0 36 36" fill="none" xmlns="http://www.w3.org/2000/svg">
<path d="M27 19.125H24.75V21.375H27V19.125Z" fill="black"/>
<path d="M31.5 9H4.5V5.625H29.25V3.375H4.5C3.90326 3.375 3.33097 3.61205 2.90901 4.03401C2.48705 4.45597 2.25 5.02826 2.25 5.625V29.25C2.25 29.8467 2.48705 30.419 2.90901 30.841C3.33097 31.2629 3.90326 31.5 4.5 31.5H31.5C32.0967 31.5 32.669 31.2629 33.091 30.841C33.5129 30.419 33.75 29.8467 33.75 29.25V11.25C33.75 10.6533 33.5129 10.081 33.091 9.65901C32.669 9.23705 32.0967 9 31.5 9ZM4.5 29.25V11.25H31.5V14.625H22.5C21.9033 14.625 21.331 14.8621 20.909 15.284C20.4871 15.706 20.25 16.2783 20.25 16.875V23.625C20.25 24.2217 20.4871 24.794 20.909 25.216C21.331 25.6379 21.9033 25.875 22.5 25.875H31.5V29.25H4.5ZM31.5 16.875V23.625H22.5V16.875H31.5Z" fill="black"/>
</svg>
