<svg width="176" height="35" viewBox="0 0 176 35" fill="none" xmlns="http://www.w3.org/2000/svg">
<path d="M6.77108 8.05742C6.21228 8.12238 5.51377 8.18734 5.09467 8.18734C4.67556 8.18734 4.53586 8.18734 4.25646 8.12238V10.461C4.25646 13.3193 4.25646 13.4492 6.21228 13.5791C6.28213 13.5791 6.35198 13.9689 6.14243 13.9689C5.58362 13.8389 4.53586 13.774 3.6278 13.774C2.37049 13.774 1.39259 13.774 0.484527 13.9039C0.344826 13.9689 0.414676 13.5141 0.484527 13.5141C2.37049 13.3193 2.44034 13.3842 2.44034 10.396V4.54953C2.44034 2.34086 2.37049 1.62629 1.18303 1.62629C0.973481 1.62629 0.694079 1.62629 0.414676 1.69125C0.274975 1.69125 0.205125 1.36645 0.344826 1.30149C1.18303 1.04165 3.3484 0.976685 5.65347 0.976685C8.7269 0.976685 11.3114 1.88614 11.3114 4.02985C11.3114 5.13418 10.543 6.7582 8.37765 7.60269C9.49526 10.461 12.8481 13.8389 15.223 13.8389C15.2929 13.8389 15.3627 14.2287 15.223 14.2287C10.1938 14.2287 7.74899 11.1755 6.77108 8.05742ZM4.46601 1.56133C4.32631 1.9511 4.32631 2.86055 4.32631 4.28969V7.53773C4.60571 7.53773 4.74541 7.53773 5.16452 7.53773C8.3078 7.53773 9.42541 6.49836 9.42541 4.87434C9.42541 2.21094 7.53944 1.49637 5.44392 1.49637C5.09467 1.56133 4.81527 1.56133 4.46601 1.56133Z" fill="white"/>
<path d="M21.0206 7.66771C21.0206 4.41967 24.3036 0.78186 28.9836 0.78186C33.454 0.78186 36.5973 3.89998 36.5973 7.27795C36.5973 10.591 33.3143 14.2288 28.6343 14.2288C24.0941 14.1638 21.0206 11.1106 21.0206 7.66771ZM22.9066 7.01811C22.9066 11.3705 26.0499 13.5792 29.0534 13.5792C32.2666 13.5792 34.6415 11.5004 34.6415 7.92756C34.6415 3.57518 31.4982 1.36651 28.4946 1.36651C25.2815 1.36651 22.9066 3.44526 22.9066 7.01811Z" fill="white"/>
<path d="M45.1191 12.8646C44.9794 12.7996 45.1889 11.6303 45.2588 10.2661C45.2588 10.1362 45.608 10.2012 45.608 10.2661C45.7477 12.2799 46.9352 13.5792 49.1704 13.5792C50.6373 13.5792 51.9644 12.8646 51.9644 11.3055C51.9644 8.05748 45.608 7.99252 45.608 4.41967C45.608 2.60076 47.3543 0.78186 49.7991 0.78186C51.0564 0.78186 51.8247 1.0417 52.5931 1.43147C52.7328 1.49643 52.9423 2.27596 52.9423 3.57518C52.9423 3.7051 52.5232 3.64014 52.5232 3.57518C52.2438 2.14604 51.2659 1.36651 49.6594 1.36651C48.3322 1.36651 47.0749 2.14604 47.0749 3.3803C47.0749 6.49842 53.3614 6.43346 53.3614 10.2012C53.3614 12.3449 51.5453 14.1638 49.0307 14.1638C47.494 14.1638 46.3065 13.7091 45.1191 12.8646Z" fill="white"/>
<path d="M74.1071 13.904C73.3387 13.904 71.9417 13.774 70.405 13.774C68.2396 13.774 66.0743 13.774 64.5376 13.904C64.328 13.904 64.4677 13.5142 64.5376 13.5142C66.7029 13.3193 66.7029 13.3843 66.7029 10.3961V4.5496C66.7029 1.56139 66.6331 1.62636 64.5376 1.43147C64.4677 1.43147 64.328 1.04171 64.5376 1.10667C66.0743 1.23659 68.1698 1.23659 70.3352 1.23659C71.8719 1.23659 73.3387 1.17163 74.596 1.10667C74.4563 1.49643 74.4563 1.82124 74.4563 2.27596C74.4563 2.47085 74.4563 2.86061 74.4563 3.05549C74.4563 3.18542 74.1071 3.12046 74.1071 3.05549C73.9674 2.211 73.4784 1.95116 70.7543 1.95116H68.7286C68.6587 2.47085 68.5889 3.31534 68.5889 4.61456V7.14803H70.7543C73.0593 7.14803 72.9196 7.01811 73.0593 6.49842C73.0593 6.43346 73.4086 6.49842 73.4784 6.56338C73.4086 6.88819 73.3387 7.34291 73.3387 7.79764C73.3387 7.99252 73.3387 8.38229 73.3387 8.57717C73.4086 8.70709 72.9895 8.64213 72.9895 8.57717C72.8498 7.99252 72.7101 7.73268 70.8241 7.73268H68.6587V10.591C68.6587 13.1244 69.008 13.3843 69.9859 13.3843H71.1035C74.3166 13.3843 74.5262 13.1244 74.8754 11.8252C74.8754 11.7603 75.2945 11.7603 75.2247 11.8902C75.1548 12.4099 74.9453 13.3193 74.8056 13.7091C74.596 13.839 74.4563 13.904 74.1071 13.904Z" fill="white"/>
<path d="M98.4151 14.0339C98.3452 14.0989 98.1357 14.1638 98.0658 14.0339L94.8527 5.71891L90.8712 14.0989C90.8014 14.1638 90.522 14.2288 90.522 14.0989L86.4706 4.61458C85.4229 2.27598 85.1435 1.56141 83.4671 1.43149C83.3972 1.43149 83.2575 1.10669 83.4671 1.10669C84.0259 1.17165 84.9339 1.23661 85.7023 1.23661C86.8199 1.23661 88.2868 1.23661 89.0551 1.10669C89.2647 1.10669 89.125 1.43149 89.0551 1.43149C88.0772 1.49645 87.5882 1.62637 87.5882 2.14606C87.5882 2.53583 88.0772 3.90001 88.3566 4.54961L91.3602 11.5654L94.5035 4.80946L94.3638 4.54961C93.316 2.27598 93.1065 1.49645 91.4999 1.36653C91.43 1.36653 91.3602 1.04173 91.4999 1.04173C92.1285 1.10669 92.9667 1.17165 93.7351 1.17165C94.8527 1.17165 96.4593 1.17165 97.2975 1.04173C97.4372 0.976766 97.4372 1.36653 97.3673 1.36653C96.0402 1.49645 95.6211 1.62638 95.6211 2.21102C95.6211 2.66575 95.8306 3.38032 96.2497 4.48465L98.8342 11.5004L101.838 4.41969C102.327 3.2504 102.606 2.66575 102.606 2.14606C102.606 1.62637 102.257 1.49645 101.209 1.43149C101.139 1.43149 101 1.10669 101.209 1.10669C101.838 1.17165 102.466 1.23661 103.305 1.23661C104.492 1.23661 104.422 1.23661 105.26 1.10669C105.4 1.04173 105.33 1.43149 105.26 1.43149C103.933 1.56141 103.514 2.40591 102.536 4.61458L98.4151 14.0339Z" fill="white"/>
<path d="M112.595 7.66771C112.595 4.41967 115.878 0.78186 120.558 0.78186C125.028 0.78186 128.171 3.89998 128.171 7.27795C128.171 10.591 124.888 14.2288 120.208 14.2288C115.668 14.1638 112.595 11.1106 112.595 7.66771ZM114.481 7.01811C114.481 11.3705 117.624 13.5792 120.628 13.5792C123.841 13.5792 126.216 11.5004 126.216 7.92756C126.216 3.57518 123.072 1.36651 120.069 1.36651C116.856 1.36651 114.481 3.44526 114.481 7.01811Z" fill="white"/>
<path d="M136.763 7.66771C136.763 4.41967 140.046 0.78186 144.726 0.78186C149.197 0.78186 152.34 3.89998 152.34 7.27795C152.34 10.591 149.057 14.2288 144.377 14.2288C139.837 14.1638 136.763 11.1106 136.763 7.66771ZM138.649 7.01811C138.649 11.3705 141.792 13.5792 144.796 13.5792C148.009 13.5792 150.384 11.5004 150.384 7.92756C150.384 3.57518 147.241 1.36651 144.237 1.36651C141.024 1.36651 138.649 3.44526 138.649 7.01811Z" fill="white"/>
<path d="M164.494 13.7742C163.237 13.7742 161.979 13.7742 161.071 13.9041C160.862 13.9041 161.001 13.5143 161.071 13.5143C162.957 13.3195 163.027 13.3844 163.027 10.3962V4.54974C163.027 1.6265 162.887 1.6265 161.071 1.43162C161.001 1.43162 160.862 1.10681 161.071 1.10681C161.979 1.23673 163.446 1.23673 164.703 1.23673C165.262 1.23673 167.218 1.17177 167.986 1.17177C173.016 1.17177 175.6 3.90013 175.6 7.34306C175.6 10.9159 172.457 13.9041 167.707 13.9041C166.939 13.9041 165.053 13.7742 164.494 13.7742ZM165.053 1.75642C164.913 2.34107 164.913 2.99068 164.913 4.48478V11.1757C164.913 13.1246 165.262 13.3195 168.266 13.3195C171.339 13.3195 173.644 11.3706 173.644 7.99267C173.644 3.83517 171.199 1.75642 167.288 1.75642C165.891 1.69146 165.402 1.75642 165.053 1.75642Z" fill="white"/>
<path d="M124.539 21.5044H51.3358V21.7642H124.539V21.5044Z" fill="white"/>
<path d="M42.1853 32.0929V33.0674C42.1853 34.1067 42.1853 34.1717 42.7441 34.1717C42.9537 34.1717 43.0235 34.1717 43.0235 34.3666C43.0235 34.4315 43.0235 34.4315 42.9537 34.4315C42.5346 34.4315 42.1155 34.4315 41.6265 34.4315C41.2074 34.4315 40.7883 34.4315 40.2994 34.4315C40.2295 34.4315 40.2295 34.4315 40.2295 34.3666C40.2295 34.1717 40.2295 34.1717 40.5089 34.1717C41.0677 34.1717 41.0677 34.1067 41.0677 33.0674V30.6638C41.0677 29.8193 40.9979 29.7543 40.4391 29.7543C40.3692 29.7543 40.2295 29.6894 40.2295 29.6894C40.2295 29.4945 40.2295 29.4945 40.3692 29.4945C40.7883 29.4945 41.2074 29.4945 41.6964 29.4945C42.1155 29.4945 42.5346 29.4945 43.0235 29.4945C43.0934 29.4945 43.0934 29.4945 43.0934 29.6894C43.0934 29.7543 43.0235 29.7543 42.814 29.7543C42.325 29.7543 42.325 29.8193 42.325 30.6638V31.7681H44.7698V30.6638C44.7698 29.8193 44.7 29.7543 44.2809 29.7543C44.1412 29.7543 44.0015 29.6894 44.0015 29.6894C44.0015 29.4945 44.0015 29.4945 44.0713 29.4945C44.4904 29.4945 44.9095 29.4945 45.3985 29.4945C45.8176 29.4945 46.2367 29.4945 46.7256 29.4945C46.8653 29.4945 46.8653 29.4945 46.8653 29.6894C46.8653 29.7543 46.7955 29.7543 46.6558 29.7543C46.0271 29.7543 46.0271 29.8193 46.0271 30.6638V33.0674C46.0271 34.1067 46.0271 34.1717 46.5859 34.1717C46.7955 34.1717 46.8653 34.1717 46.8653 34.3666C46.8653 34.4315 46.8653 34.4315 46.7955 34.4315C46.3764 34.4315 45.9573 34.4315 45.4683 34.4315C45.0492 34.4315 44.6301 34.4315 44.1412 34.4315C44.0713 34.4315 44.0713 34.4315 44.0713 34.3666C44.0713 34.1717 44.0713 34.1717 44.3507 34.1717C44.9095 34.1717 44.9095 34.1067 44.9095 33.0674V32.0929H42.1853Z" fill="white"/>
<path d="M56.4349 31.9631C56.4349 32.8725 55.876 34.5615 53.2916 34.5615C51.6152 34.5615 50.4277 33.5871 50.4277 31.9631C50.4277 30.404 51.8247 29.3646 53.571 29.3646C55.2474 29.3646 56.4349 30.404 56.4349 31.9631ZM51.8247 31.9631C51.8247 32.8076 52.174 34.3017 53.5011 34.3017C54.8981 34.3017 55.1775 33.0674 55.1775 31.9631C55.1775 30.9886 54.8283 29.6245 53.5011 29.6245C52.1041 29.6894 51.8247 30.9237 51.8247 31.9631Z" fill="white"/>
<path d="M65.4456 29.4946C65.5853 29.4946 65.725 29.2997 65.7949 29.2997C65.8647 29.2997 65.9346 29.3646 65.9346 29.4296C65.9346 29.5595 66.2838 30.5989 66.2838 30.6639C66.2838 30.7288 66.214 30.7288 66.1441 30.7288C66.0743 30.7288 66.0044 30.7288 66.0044 30.6639C65.5853 30.0143 65.3059 29.8194 64.2582 29.8194C63.7692 29.8194 63.7692 29.8194 63.7692 30.2741V33.0674C63.7692 34.1068 63.7692 34.1718 64.328 34.1718C64.5376 34.1718 64.6074 34.1717 64.6074 34.3666C64.6074 34.4316 64.6074 34.4316 64.5376 34.4316C64.1185 34.4316 63.6993 34.4316 63.2104 34.4316C62.7913 34.4316 62.3722 34.4316 61.8832 34.4316C61.8134 34.4316 61.8134 34.4316 61.8134 34.3666C61.8134 34.1717 61.8134 34.1718 62.0928 34.1718C62.6516 34.1718 62.6516 34.1068 62.6516 33.0674V30.2741C62.6516 29.8194 62.6516 29.8194 62.0928 29.8194C61.1847 29.8194 60.8355 30.0792 60.4164 30.6639C60.3465 30.7288 60.3465 30.7938 60.2767 30.7938C60.2068 30.7938 60.137 30.7938 60.137 30.7288C60.137 30.5989 60.4862 29.6894 60.4862 29.5595C60.4862 29.4946 60.5561 29.4296 60.6259 29.4296C60.6958 29.4296 60.7656 29.6245 61.1847 29.6245H65.4456V29.4946Z" fill="white"/>
<path d="M70.6145 30.6638C70.6145 29.8193 70.5447 29.7543 69.9859 29.7543C69.916 29.7543 69.7763 29.6894 69.7763 29.6894C69.7763 29.4945 69.7763 29.4945 69.916 29.4945C70.1256 29.4945 70.6145 29.4945 71.1035 29.4945C73.5483 29.4945 73.8975 29.4945 74.1071 29.4945C74.1071 29.4945 74.1769 29.4945 74.1769 29.5595C74.1769 29.6894 74.5262 30.4689 74.5262 30.5988C74.5262 30.6638 74.4563 30.6638 74.3865 30.6638C74.2468 30.6638 74.2468 30.6638 74.1071 30.4689C73.9674 30.339 73.7578 30.0792 73.4784 29.9492C73.2689 29.8193 73.199 29.8193 72.5704 29.8193C71.8718 29.8193 71.802 29.8193 71.802 30.274V31.8981H72.291C72.8498 31.8981 72.9895 31.7681 73.0593 31.2485C73.0593 31.1185 73.1292 31.0536 73.199 31.0536C73.3387 31.0536 73.3387 31.0536 73.3387 31.1185C73.3387 31.1835 73.3387 31.3784 73.3387 32.028C73.3387 32.3528 73.3387 32.6776 73.3387 32.9374C73.3387 33.0024 73.2689 33.0024 73.1292 33.0024C73.0593 33.0024 73.0593 33.0024 73.0593 32.8725C72.9196 32.2878 72.9196 32.1579 72.0115 32.1579H71.7321V33.9118C71.7321 34.1717 71.7321 34.1717 73.5483 34.1717C73.688 34.1717 73.8975 34.0418 74.0372 33.9118C74.4563 33.3272 74.5262 33.3272 74.6659 33.3272C74.8056 33.3272 74.8056 33.3272 74.8056 33.3922C74.8056 33.4571 74.5262 34.0418 74.3865 34.3666C74.3166 34.4965 74.3166 34.4965 74.1071 34.4965C73.9674 34.4965 73.8277 34.4965 70.8939 34.4965C69.916 34.4965 69.8462 34.4965 69.7763 34.4965C69.7065 34.4965 69.7065 34.4965 69.7065 34.4315C69.7065 34.2366 69.7065 34.2366 69.9859 34.2366C70.5447 34.2366 70.5447 34.1717 70.5447 33.1323V30.6638H70.6145Z" fill="white"/>
<path d="M79.276 30.6638C79.276 29.8193 79.2062 29.7543 78.6474 29.7543C78.5775 29.7543 78.4378 29.6894 78.4378 29.6894C78.4378 29.4945 78.4378 29.4945 78.5775 29.4945C78.9966 29.4945 79.4157 29.4945 79.9047 29.4945C80.3238 29.4945 80.7429 29.4945 81.2318 29.4945C81.3715 29.4945 81.3715 29.4945 81.3715 29.6894C81.3715 29.7543 81.3017 29.7543 81.162 29.7543C80.5333 29.7543 80.5333 29.8193 80.5333 30.6638V33.652C80.5333 34.0418 80.6032 34.1067 81.2318 34.1067C82.2796 34.1067 82.7685 34.1067 83.1876 33.0674C83.1876 33.0024 83.2575 33.0024 83.3273 33.0024C83.3972 33.0024 83.467 33.0024 83.467 33.0674C83.467 33.1973 83.1876 34.3666 83.1178 34.4315C83.1178 34.4965 83.0479 34.4965 82.9781 34.4965C82.6288 34.4965 81.3715 34.4965 80.5333 34.4965C79.3459 34.4965 78.9268 34.4965 78.5775 34.4965C78.5077 34.4965 78.5077 34.4965 78.5077 34.4315C78.5077 34.2366 78.5077 34.2366 78.7871 34.2366C79.3459 34.2366 79.3459 34.1717 79.3459 33.1323V30.6638H79.276Z" fill="white"/>
<path d="M97.0181 32.9375C97.0181 32.8725 97.0181 32.6127 96.5291 32.6127H96.11C96.0402 32.6127 96.0402 32.5477 96.0402 32.4827C96.0402 32.3528 96.0402 32.3528 96.1799 32.3528C96.599 32.3528 97.0879 32.3528 97.507 32.3528C97.9261 32.3528 98.3452 32.3528 98.7643 32.3528C98.8342 32.3528 98.8342 32.4178 98.8342 32.4827C98.8342 32.6127 98.8342 32.6127 98.4151 32.6127C98.2754 32.6127 98.1357 32.7426 98.1357 33.1324V33.717C98.1357 34.0418 98.3452 34.0418 98.3452 34.1717C98.3452 34.3017 97.9261 34.3017 97.7864 34.3666C97.2276 34.4965 96.599 34.5615 95.9703 34.5615C93.5954 34.5615 92.6873 33.4572 92.6873 32.028C92.6873 30.404 94.1542 29.3646 95.9005 29.3646C97.0879 29.3646 97.7166 29.8194 97.8563 29.8194C97.996 29.8194 98.0658 29.6894 98.1357 29.6894C98.2055 29.6894 98.2055 29.6894 98.2055 29.7544C98.2055 30.1442 98.2754 30.5989 98.2754 30.9886C98.2754 31.0536 98.2055 31.0536 98.1357 31.0536C97.9261 31.0536 97.996 30.6638 97.7864 30.404C97.3673 29.8193 96.9482 29.6245 96.11 29.6245C94.7829 29.6245 94.2241 30.8587 94.2241 31.9631C94.2241 33.2623 94.9226 34.1717 96.2497 34.1717C96.5291 34.1717 97.1578 34.1717 97.1578 33.5871V32.9375H97.0181Z" fill="white"/>
<path d="M104.352 33.0674C104.352 34.1067 104.352 34.1717 104.911 34.1717C105.121 34.1717 105.191 34.1717 105.191 34.3666C105.191 34.4315 105.191 34.4315 105.121 34.4315C104.702 34.4315 104.283 34.4315 103.794 34.4315C103.375 34.4315 102.955 34.4315 102.466 34.4315C102.397 34.4315 102.397 34.4315 102.397 34.3666C102.397 34.1717 102.397 34.1717 102.676 34.1717C103.235 34.1717 103.235 34.1067 103.235 33.0674V30.6638C103.235 29.8193 103.165 29.7543 102.606 29.7543C102.536 29.7543 102.397 29.6894 102.397 29.6894C102.397 29.4945 102.397 29.4945 102.536 29.4945C102.955 29.4945 103.375 29.4945 103.863 29.4945C104.073 29.4945 104.492 29.4945 105.121 29.4945C107.007 29.4945 107.216 30.404 107.216 30.8587C107.216 31.5083 106.727 31.8331 106.099 32.028L106.029 32.0929C106.029 32.0929 106.099 32.1579 106.169 32.2878L107.426 33.9118C107.566 34.1067 107.775 34.1717 108.055 34.1717C108.124 34.1717 108.124 34.1717 108.124 34.2367C108.124 34.4315 108.124 34.4315 108.055 34.4315C107.915 34.4315 107.496 34.4315 107.216 34.4315C107.007 34.4315 106.727 34.4315 106.448 34.4315C106.378 34.4315 106.238 34.2366 106.099 33.9768L105.191 32.6776C104.841 32.2229 104.772 32.2229 104.492 32.2229V33.0674H104.352ZM104.352 31.963H104.632C105.54 31.963 105.819 31.5083 105.819 30.9236C105.819 30.274 105.54 29.7543 104.772 29.7543C104.562 29.7543 104.352 29.8193 104.352 30.0792V31.963Z" fill="white"/>
<path d="M117.484 31.9631C117.484 32.8725 116.926 34.5615 114.341 34.5615C112.665 34.5615 111.477 33.5871 111.477 31.9631C111.477 30.404 112.874 29.3646 114.62 29.3646C116.297 29.3646 117.484 30.404 117.484 31.9631ZM112.874 31.9631C112.874 32.8076 113.223 34.3017 114.551 34.3017C115.948 34.3017 116.227 33.0674 116.227 31.9631C116.227 30.9886 115.878 29.6245 114.551 29.6245C113.154 29.6894 112.874 30.9237 112.874 31.9631Z" fill="white"/>
<path d="M122.025 30.6638C122.025 29.8193 121.955 29.7544 121.396 29.7544C121.326 29.7544 121.186 29.6894 121.186 29.6894C121.186 29.4945 121.186 29.4945 121.326 29.4945C121.745 29.4945 122.164 29.4945 122.653 29.4945C123.072 29.4945 123.491 29.4945 123.98 29.4945C124.12 29.4945 124.12 29.4945 124.12 29.6894C124.12 29.7544 124.05 29.7544 123.911 29.7544C123.282 29.7544 123.282 29.8193 123.282 30.6638V32.4178C123.282 34.0418 124.469 34.0418 124.888 34.0418C125.866 34.0418 126.425 33.3922 126.425 32.093V30.8587C126.425 29.6894 126.146 29.6894 125.657 29.6894C125.587 29.6894 125.447 29.6894 125.447 29.5595C125.447 29.4296 125.447 29.4296 125.587 29.4296C125.797 29.4296 126.216 29.4296 126.565 29.4296C126.844 29.4296 127.194 29.4296 127.543 29.4296C127.613 29.4296 127.613 29.4945 127.613 29.6245C127.613 29.6894 127.543 29.6894 127.333 29.7544C127.124 29.7544 126.774 29.8193 126.774 30.339C126.705 32.1579 126.705 32.7426 126.635 33.0674C126.355 34.1717 125.377 34.5615 124.33 34.5615C122.793 34.5615 122.094 33.7819 122.094 32.8725V30.6638H122.025Z" fill="white"/>
<path d="M131.804 30.6638C131.804 29.8193 131.734 29.7543 131.175 29.7543C131.105 29.7543 130.966 29.6894 130.966 29.6894C130.966 29.4945 130.966 29.4945 131.105 29.4945C131.524 29.4945 131.943 29.4945 132.432 29.4945C132.642 29.4945 133.201 29.4945 133.69 29.4945C135.436 29.4945 135.715 30.4689 135.715 30.9236C135.715 31.7032 135.157 32.4827 133.76 32.4827C133.48 32.4827 133.201 32.4177 132.991 32.4177V33.4571C132.991 34.1717 132.991 34.2366 133.69 34.2366C133.969 34.2366 133.969 34.2366 133.969 34.4315C133.969 34.4965 133.969 34.4965 133.829 34.4965C133.271 34.4965 132.851 34.4965 132.432 34.4965C132.013 34.4965 131.594 34.4965 131.105 34.4965C131.035 34.4965 131.035 34.4965 131.035 34.4315C131.035 34.2366 131.035 34.2366 131.315 34.2366C131.874 34.2366 131.874 34.1717 131.874 33.1323V30.6638H131.804ZM132.991 31.963C132.991 32.0929 133.201 32.0929 133.271 32.0929C134.039 32.0929 134.458 31.5733 134.458 30.8587C134.458 30.2091 134.039 29.6894 133.271 29.6894C132.921 29.6894 132.921 29.8193 132.921 30.1441V31.963H132.991Z" fill="white"/>
</svg>
