<svg width="36" height="36" viewBox="0 0 36 36" fill="none" xmlns="http://www.w3.org/2000/svg">
<path d="M18 4.5C19.1125 4.5 20.2001 4.8299 21.1251 5.44798C22.0501 6.06607 22.7711 6.94457 23.1968 7.97241C23.6226 9.00024 23.734 10.1312 23.5169 11.2224C23.2999 12.3135 22.7641 13.3158 21.9775 14.1025C21.1908 14.8891 20.1885 15.4249 19.0974 15.6419C18.0062 15.859 16.8752 15.7476 15.8474 15.3218C14.8196 14.8961 13.9411 14.1751 13.323 13.2501C12.7049 12.3251 12.375 11.2375 12.375 10.125C12.375 8.63316 12.9676 7.20242 14.0225 6.14752C15.0774 5.09263 16.5082 4.5 18 4.5ZM18 2.25C16.4425 2.25 14.9199 2.71186 13.6249 3.57718C12.3299 4.44249 11.3205 5.6724 10.7245 7.11137C10.1284 8.55034 9.97246 10.1337 10.2763 11.6613C10.5802 13.1889 11.3302 14.5921 12.4315 15.6935C13.5329 16.7948 14.9361 17.5448 16.4637 17.8487C17.9913 18.1525 19.5747 17.9966 21.0136 17.4006C22.4526 16.8045 23.6825 15.7952 24.5478 14.5001C25.4131 13.2051 25.875 11.6825 25.875 10.125C25.875 8.03642 25.0453 6.03338 23.5685 4.55653C22.0916 3.07969 20.0886 2.25 18 2.25Z" fill="black"/>
<path d="M29.25 33.5H27V27.875C27 27.1363 26.8545 26.4049 26.5718 25.7224C26.2891 25.0399 25.8748 24.4199 25.3525 23.8975C24.8301 23.3752 24.2101 22.9609 23.5276 22.6782C22.8451 22.3955 22.1137 22.25 21.375 22.25H14.625C13.1332 22.25 11.7024 22.8426 10.6475 23.8975C9.59263 24.9524 9 26.3832 9 27.875V33.5H6.75V27.875C6.75 25.7864 7.57969 23.7834 9.05653 22.3065C10.5334 20.8297 12.5364 20 14.625 20H21.375C23.4636 20 25.4666 20.8297 26.9435 22.3065C28.4203 23.7834 29.25 25.7864 29.25 27.875V33.5Z" fill="black"/>
<rect x="7" y="32" width="22" height="2" fill="black"/>
</svg>
