<svg width="176" height="35" viewBox="0 0 176 35" fill="none" xmlns="http://www.w3.org/2000/svg">
<path d="M6.77108 8.05743C6.21228 8.12239 5.51377 8.18735 5.09467 8.18735C4.67556 8.18735 4.53586 8.18735 4.25646 8.12239V10.461C4.25646 13.3193 4.25646 13.4492 6.21228 13.5791C6.28213 13.5791 6.35198 13.9689 6.14243 13.9689C5.58362 13.8389 4.53586 13.774 3.6278 13.774C2.37049 13.774 1.39258 13.774 0.484527 13.9039C0.344826 13.9689 0.414676 13.5141 0.484527 13.5141C2.37049 13.3193 2.44034 13.3842 2.44034 10.396V4.54954C2.44034 2.34086 2.37049 1.62629 1.18303 1.62629C0.973481 1.62629 0.694079 1.62629 0.414676 1.69125C0.274975 1.69125 0.205125 1.36645 0.344826 1.30149C1.18303 1.04165 3.3484 0.976685 5.65347 0.976685C8.7269 0.976685 11.3114 1.88614 11.3114 4.02985C11.3114 5.13418 10.543 6.75821 8.37765 7.6027C9.49526 10.461 12.8481 13.8389 15.223 13.8389C15.2929 13.8389 15.3627 14.2287 15.223 14.2287C10.1938 14.2287 7.74899 11.1755 6.77108 8.05743ZM4.46601 1.56133C4.32631 1.9511 4.32631 2.86055 4.32631 4.28969V7.53774C4.60571 7.53774 4.74541 7.53774 5.16452 7.53774C8.30779 7.53774 9.4254 6.49836 9.4254 4.87434C9.4254 2.21094 7.53944 1.49637 5.44392 1.49637C5.09467 1.56133 4.81526 1.56133 4.46601 1.56133Z" fill="white"/>
<path d="M21.0206 7.66772C21.0206 4.41967 24.3036 0.78186 28.9836 0.78186C33.454 0.78186 36.5973 3.89999 36.5973 7.27795C36.5973 10.591 33.3143 14.2288 28.6343 14.2288C24.0941 14.1638 21.0206 11.1106 21.0206 7.66772ZM22.9066 7.01811C22.9066 11.3705 26.0499 13.5792 29.0535 13.5792C32.2666 13.5792 34.6415 11.5004 34.6415 7.92756C34.6415 3.57518 31.4982 1.36651 28.4946 1.36651C25.2815 1.36651 22.9066 3.44526 22.9066 7.01811Z" fill="white"/>
<path d="M45.1191 12.8646C44.9794 12.7996 45.189 11.6303 45.2588 10.2662C45.2588 10.1362 45.6081 10.2012 45.6081 10.2662C45.7478 12.2799 46.9353 13.5792 49.1705 13.5792C50.6373 13.5792 51.9645 12.8646 51.9645 11.3055C51.9645 8.05748 45.6081 7.99252 45.6081 4.41967C45.6081 2.60077 47.3544 0.78186 49.7991 0.78186C51.0564 0.78186 51.8248 1.0417 52.5931 1.43147C52.7328 1.49643 52.9424 2.27596 52.9424 3.57518C52.9424 3.7051 52.5233 3.64014 52.5233 3.57518C52.2439 2.14604 51.266 1.36651 49.6594 1.36651C48.3323 1.36651 47.075 2.14604 47.075 3.3803C47.075 6.49842 53.3615 6.43346 53.3615 10.2012C53.3615 12.3449 51.5454 14.1638 49.0308 14.1638C47.4941 14.1638 46.3066 13.7091 45.1191 12.8646Z" fill="white"/>
<path d="M74.1071 13.904C73.3387 13.904 71.9417 13.774 70.405 13.774C68.2396 13.774 66.0743 13.774 64.5376 13.904C64.328 13.904 64.4677 13.5142 64.5376 13.5142C66.7029 13.3193 66.7029 13.3843 66.7029 10.3961V4.5496C66.7029 1.56139 66.6331 1.62636 64.5376 1.43147C64.4677 1.43147 64.328 1.04171 64.5376 1.10667C66.0743 1.23659 68.1698 1.23659 70.3352 1.23659C71.8719 1.23659 73.3387 1.17163 74.5961 1.10667C74.4564 1.49643 74.4563 1.82124 74.4563 2.27596C74.4563 2.47085 74.4563 2.86061 74.4563 3.0555C74.4563 3.18542 74.1071 3.12046 74.1071 3.0555C73.9674 2.211 73.4784 1.95116 70.7543 1.95116H68.7286C68.6587 2.47085 68.5889 3.31534 68.5889 4.61456V7.14803H70.7543C73.0593 7.14803 72.9196 7.01811 73.0593 6.49842C73.0593 6.43346 73.4086 6.49842 73.4784 6.56339C73.4086 6.88819 73.3387 7.34292 73.3387 7.79764C73.3387 7.99253 73.3387 8.38229 73.3387 8.57717C73.4086 8.7071 72.9895 8.64213 72.9895 8.57717C72.8498 7.99253 72.7101 7.73268 70.8241 7.73268H68.6587V10.591C68.6587 13.1244 69.008 13.3843 69.9859 13.3843H71.1035C74.3166 13.3843 74.5262 13.1244 74.8755 11.8252C74.8755 11.7603 75.2946 11.7603 75.2247 11.8902C75.1549 12.4099 74.9453 13.3193 74.8056 13.7091C74.596 13.839 74.4563 13.904 74.1071 13.904Z" fill="white"/>
<path d="M98.4152 14.0339C98.3453 14.0989 98.1358 14.1638 98.0659 14.0339L94.8528 5.71891L90.8713 14.0989C90.8014 14.1638 90.522 14.2288 90.522 14.0989L86.4707 4.61458C85.4229 2.27598 85.1435 1.56141 83.4671 1.43149C83.3973 1.43149 83.2576 1.10669 83.4671 1.10669C84.0259 1.17165 84.934 1.23661 85.7023 1.23661C86.82 1.23661 88.2868 1.23661 89.0552 1.10669C89.2647 1.10669 89.125 1.43149 89.0552 1.43149C88.0773 1.49645 87.5883 1.62638 87.5883 2.14606C87.5883 2.53583 88.0773 3.90001 88.3567 4.54962L91.3602 11.5654L94.5035 4.80946L94.3638 4.54962C93.3161 2.27598 93.1065 1.49645 91.4999 1.36653C91.4301 1.36653 91.3602 1.04173 91.4999 1.04173C92.1286 1.10669 92.9668 1.17165 93.7352 1.17165C94.8528 1.17165 96.4593 1.17165 97.2975 1.04173C97.4372 0.976766 97.4372 1.36653 97.3674 1.36653C96.0402 1.49645 95.6211 1.62638 95.6211 2.21102C95.6211 2.66575 95.8307 3.38032 96.2498 4.48465L98.8343 11.5004L101.838 4.41969C102.327 3.2504 102.606 2.66575 102.606 2.14606C102.606 1.62638 102.257 1.49645 101.209 1.43149C101.139 1.43149 101 1.10669 101.209 1.10669C101.838 1.17165 102.466 1.23661 103.305 1.23661C104.492 1.23661 104.422 1.23661 105.261 1.10669C105.4 1.04173 105.33 1.43149 105.261 1.43149C103.933 1.56141 103.514 2.40591 102.536 4.61458L98.4152 14.0339Z" fill="white"/>
<path d="M112.595 7.66772C112.595 4.41967 115.878 0.78186 120.558 0.78186C125.028 0.78186 128.171 3.89999 128.171 7.27795C128.171 10.591 124.888 14.2288 120.208 14.2288C115.668 14.1638 112.595 11.1106 112.595 7.66772ZM114.481 7.01811C114.481 11.3705 117.624 13.5792 120.628 13.5792C123.841 13.5792 126.216 11.5004 126.216 7.92756C126.216 3.57518 123.072 1.36651 120.069 1.36651C116.856 1.36651 114.481 3.44526 114.481 7.01811Z" fill="white"/>
<path d="M136.763 7.66772C136.763 4.41967 140.046 0.78186 144.726 0.78186C149.196 0.78186 152.34 3.89999 152.34 7.27795C152.34 10.591 149.057 14.2288 144.377 14.2288C139.836 14.1638 136.763 11.1106 136.763 7.66772ZM138.649 7.01811C138.649 11.3705 141.792 13.5792 144.796 13.5792C148.009 13.5792 150.384 11.5004 150.384 7.92756C150.384 3.57518 147.241 1.36651 144.237 1.36651C141.024 1.36651 138.649 3.44526 138.649 7.01811Z" fill="white"/>
<path d="M164.494 13.7742C163.237 13.7742 161.979 13.7742 161.071 13.9041C160.862 13.9041 161.001 13.5144 161.071 13.5144C162.957 13.3195 163.027 13.3844 163.027 10.3962V4.54974C163.027 1.6265 162.887 1.6265 161.071 1.43162C161.001 1.43162 160.862 1.10681 161.071 1.10681C161.979 1.23673 163.446 1.23673 164.703 1.23673C165.262 1.23673 167.218 1.17177 167.986 1.17177C173.016 1.17177 175.6 3.90013 175.6 7.34306C175.6 10.9159 172.457 13.9041 167.707 13.9041C166.939 13.9041 165.053 13.7742 164.494 13.7742ZM165.053 1.75642C164.913 2.34107 164.913 2.99068 164.913 4.48478V11.1758C164.913 13.1246 165.262 13.3195 168.266 13.3195C171.339 13.3195 173.644 11.3706 173.644 7.99267C173.644 3.83517 171.199 1.75642 167.288 1.75642C165.891 1.69146 165.402 1.75642 165.053 1.75642Z" fill="white"/>
<path d="M124.539 21.5044H51.3358V21.7658H124.539V21.5044Z" fill="white"/>
<path d="M42.1853 32.0929V33.0674C42.1853 34.1067 42.1853 34.1717 42.7441 34.1717C42.9537 34.1717 43.0235 34.1717 43.0235 34.3666C43.0235 34.4315 43.0235 34.4315 42.9537 34.4315C42.5346 34.4315 42.1155 34.4315 41.6265 34.4315C41.2074 34.4315 40.7883 34.4315 40.2993 34.4315C40.2295 34.4315 40.2295 34.4315 40.2295 34.3666C40.2295 34.1717 40.2295 34.1717 40.5089 34.1717C41.0677 34.1717 41.0677 34.1067 41.0677 33.0674V30.6638C41.0677 29.8193 40.9978 29.7543 40.439 29.7543C40.3692 29.7543 40.2295 29.6894 40.2295 29.6894C40.2295 29.4945 40.2295 29.4945 40.3692 29.4945C40.7883 29.4945 41.2074 29.4945 41.6964 29.4945C42.1155 29.4945 42.5346 29.4945 43.0235 29.4945C43.0934 29.4945 43.0934 29.4945 43.0934 29.6894C43.0934 29.7544 43.0235 29.7543 42.814 29.7543C42.325 29.7543 42.325 29.8193 42.325 30.6638V31.7681H44.7698V30.6638C44.7698 29.8193 44.6999 29.7543 44.2808 29.7543C44.1411 29.7543 44.0014 29.6894 44.0014 29.6894C44.0014 29.4945 44.0014 29.4945 44.0713 29.4945C44.4904 29.4945 44.9095 29.4945 45.3984 29.4945C45.8175 29.4945 46.2366 29.4945 46.7256 29.4945C46.8653 29.4945 46.8653 29.4945 46.8653 29.6894C46.8653 29.7544 46.7954 29.7543 46.6557 29.7543C46.0271 29.7543 46.0271 29.8193 46.0271 30.6638V33.0674C46.0271 34.1067 46.0271 34.1717 46.5859 34.1717C46.7954 34.1717 46.8653 34.1717 46.8653 34.3666C46.8653 34.4315 46.8653 34.4315 46.7954 34.4315C46.3763 34.4315 45.9572 34.4315 45.4683 34.4315C45.0492 34.4315 44.6301 34.4315 44.1411 34.4315C44.0713 34.4315 44.0713 34.4315 44.0713 34.3666C44.0713 34.1717 44.0713 34.1717 44.3507 34.1717C44.9095 34.1717 44.9095 34.1067 44.9095 33.0674V32.0929H42.1853Z" fill="white"/>
<path d="M56.4349 31.9629C56.4349 32.8724 55.8761 34.5614 53.2916 34.5614C51.6152 34.5614 50.4277 33.587 50.4277 31.9629C50.4277 30.4039 51.8247 29.3645 53.571 29.3645C55.2474 29.3645 56.4349 30.4039 56.4349 31.9629ZM51.8247 31.9629C51.8247 32.8074 52.174 34.3015 53.5012 34.3015C54.8982 34.3015 55.1776 33.0673 55.1776 31.9629C55.1776 30.9885 54.8283 29.6243 53.5012 29.6243C52.1041 29.6893 51.8247 30.9236 51.8247 31.9629Z" fill="white"/>
<path d="M65.4456 29.4946C65.5853 29.4946 65.725 29.2997 65.7949 29.2997C65.8647 29.2997 65.9346 29.3646 65.9346 29.4296C65.9346 29.5595 66.2838 30.5989 66.2838 30.6639C66.2838 30.7288 66.214 30.7288 66.1441 30.7288C66.0743 30.7288 66.0044 30.7288 66.0044 30.6639C65.5853 30.0143 65.3059 29.8194 64.2582 29.8194C63.7692 29.8194 63.7692 29.8194 63.7692 30.2741V33.0674C63.7692 34.1068 63.7692 34.1718 64.328 34.1718C64.5376 34.1718 64.6074 34.1718 64.6074 34.3666C64.6074 34.4316 64.6074 34.4316 64.5376 34.4316C64.1185 34.4316 63.6993 34.4316 63.2104 34.4316C62.7913 34.4316 62.3722 34.4316 61.8832 34.4316C61.8134 34.4316 61.8134 34.4316 61.8134 34.3666C61.8134 34.1718 61.8134 34.1718 62.0928 34.1718C62.6516 34.1718 62.6516 34.1068 62.6516 33.0674V30.2741C62.6516 29.8194 62.6516 29.8194 62.0928 29.8194C61.1847 29.8194 60.8355 30.0792 60.4164 30.6639C60.3465 30.7288 60.3465 30.7938 60.2767 30.7938C60.2068 30.7938 60.137 30.7938 60.137 30.7288C60.137 30.5989 60.4862 29.6894 60.4862 29.5595C60.4862 29.4946 60.5561 29.4296 60.6259 29.4296C60.6958 29.4296 60.7656 29.6245 61.1847 29.6245H65.4456V29.4946Z" fill="white"/>
<path d="M70.6145 30.6638C70.6145 29.8193 70.5446 29.7543 69.9858 29.7543C69.916 29.7543 69.7763 29.6894 69.7763 29.6894C69.7763 29.4945 69.7763 29.4945 69.916 29.4945C70.1255 29.4945 70.6145 29.4945 71.1034 29.4945C73.5482 29.4945 73.8975 29.4945 74.107 29.4945C74.107 29.4945 74.1769 29.4945 74.1769 29.5595C74.1769 29.6894 74.5261 30.4689 74.5261 30.5988C74.5261 30.6638 74.4563 30.6638 74.3864 30.6638C74.2467 30.6638 74.2467 30.6638 74.107 30.4689C73.9673 30.339 73.7578 30.0792 73.4784 29.9492C73.2688 29.8193 73.1989 29.8193 72.5703 29.8193C71.8718 29.8193 71.8019 29.8193 71.8019 30.274V31.8981H72.2909C72.8497 31.8981 72.9894 31.7681 73.0592 31.2484C73.0592 31.1185 73.1291 31.0536 73.199 31.0536C73.3387 31.0536 73.3386 31.0536 73.3386 31.1185C73.3386 31.1835 73.3386 31.3784 73.3386 32.028C73.3386 32.3528 73.3386 32.6776 73.3386 32.9374C73.3386 33.0024 73.2688 33.0024 73.1291 33.0024C73.0593 33.0024 73.0592 33.0024 73.0592 32.8725C72.9195 32.2878 72.9195 32.1579 72.0115 32.1579H71.7321V33.9118C71.7321 34.1717 71.7321 34.1717 73.5482 34.1717C73.6879 34.1717 73.8975 34.0418 74.0372 33.9118C74.4563 33.3272 74.5261 33.3272 74.6658 33.3272C74.8055 33.3272 74.8055 33.3272 74.8055 33.3922C74.8055 33.4571 74.5261 34.0418 74.3864 34.3666C74.3166 34.4965 74.3166 34.4965 74.107 34.4965C73.9673 34.4965 73.8276 34.4965 70.8939 34.4965C69.916 34.4965 69.8461 34.4965 69.7763 34.4965C69.7064 34.4965 69.7064 34.4965 69.7064 34.4315C69.7064 34.2366 69.7064 34.2366 69.9858 34.2366C70.5446 34.2366 70.5446 34.1717 70.5446 33.1323V30.6638H70.6145Z" fill="white"/>
<path d="M79.2759 30.6638C79.2759 29.8193 79.2061 29.7543 78.6473 29.7543C78.5774 29.7543 78.4377 29.6894 78.4377 29.6894C78.4377 29.4945 78.4377 29.4945 78.5774 29.4945C78.9965 29.4945 79.4157 29.4945 79.9046 29.4945C80.3237 29.4945 80.7428 29.4945 81.2318 29.4945C81.3715 29.4945 81.3715 29.4945 81.3715 29.6894C81.3715 29.7543 81.3016 29.7543 81.1619 29.7543C80.5333 29.7543 80.5333 29.8193 80.5333 30.6638V33.652C80.5333 34.0418 80.6031 34.1067 81.2318 34.1067C82.2795 34.1067 82.7685 34.1067 83.1876 33.0674C83.1876 33.0024 83.2574 33.0024 83.3273 33.0024C83.3971 33.0024 83.467 33.0024 83.467 33.0674C83.467 33.1973 83.1876 34.3666 83.1177 34.4315C83.1177 34.4965 83.0479 34.4965 82.978 34.4965C82.6288 34.4965 81.3715 34.4965 80.5333 34.4965C79.3458 34.4965 78.9267 34.4965 78.5774 34.4965C78.5076 34.4965 78.5076 34.4965 78.5076 34.4315C78.5076 34.2366 78.5076 34.2366 78.787 34.2366C79.3458 34.2366 79.3458 34.1717 79.3458 33.1323V30.6638H79.2759Z" fill="white"/>
<path d="M97.018 32.9373C97.018 32.8724 97.018 32.6125 96.529 32.6125H96.1099C96.0401 32.6125 96.0401 32.5476 96.0401 32.4826C96.0401 32.3527 96.0401 32.3527 96.1798 32.3527C96.5989 32.3527 97.0878 32.3527 97.5069 32.3527C97.9261 32.3527 98.3452 32.3527 98.7643 32.3527C98.8341 32.3527 98.8341 32.4177 98.8341 32.4826C98.8341 32.6125 98.8341 32.6125 98.415 32.6125C98.2753 32.6125 98.1356 32.7425 98.1356 33.1322V33.7169C98.1356 34.0417 98.3452 34.0417 98.3452 34.1716C98.3452 34.3015 97.9261 34.3015 97.7864 34.3665C97.2276 34.4964 96.5989 34.5614 95.9702 34.5614C93.5953 34.5614 92.6873 33.457 92.6873 32.0279C92.6873 30.4039 94.1541 29.3645 95.9004 29.3645C97.0878 29.3645 97.7165 29.8192 97.8562 29.8192C97.9959 29.8192 98.0658 29.6893 98.1356 29.6893C98.2055 29.6893 98.2055 29.6893 98.2055 29.7543C98.2055 30.144 98.2753 30.5988 98.2753 30.9885C98.2753 31.0535 98.2055 31.0535 98.1356 31.0535C97.9261 31.0535 97.9959 30.6637 97.7864 30.4039C97.3673 29.8192 96.9481 29.6243 96.1099 29.6243C94.7828 29.6243 94.224 30.8586 94.224 31.9629C94.224 33.2622 94.9225 34.1716 96.2496 34.1716C96.529 34.1716 97.1577 34.1716 97.1577 33.587V32.9373H97.018Z" fill="white"/>
<path d="M104.352 33.0674C104.352 34.1067 104.352 34.1717 104.911 34.1717C105.121 34.1717 105.191 34.1717 105.191 34.3666C105.191 34.4315 105.191 34.4315 105.121 34.4315C104.702 34.4315 104.283 34.4315 103.794 34.4315C103.375 34.4315 102.955 34.4315 102.466 34.4315C102.397 34.4315 102.397 34.4315 102.397 34.3666C102.397 34.1717 102.397 34.1717 102.676 34.1717C103.235 34.1717 103.235 34.1067 103.235 33.0674V30.6638C103.235 29.8193 103.165 29.7543 102.606 29.7543C102.536 29.7543 102.397 29.6894 102.397 29.6894C102.397 29.4945 102.397 29.4945 102.536 29.4945C102.955 29.4945 103.375 29.4945 103.863 29.4945C104.073 29.4945 104.492 29.4945 105.121 29.4945C107.007 29.4945 107.216 30.404 107.216 30.8587C107.216 31.5083 106.727 31.8331 106.099 32.028L106.029 32.0929C106.029 32.0929 106.099 32.1579 106.169 32.2878L107.426 33.9118C107.566 34.1067 107.775 34.1717 108.055 34.1717C108.124 34.1717 108.124 34.1717 108.124 34.2367C108.124 34.4315 108.124 34.4315 108.055 34.4315C107.915 34.4315 107.496 34.4315 107.216 34.4315C107.007 34.4315 106.727 34.4315 106.448 34.4315C106.378 34.4315 106.238 34.2367 106.099 33.9768L105.191 32.6776C104.841 32.2229 104.772 32.2229 104.492 32.2229V33.0674H104.352ZM104.352 31.963H104.632C105.54 31.963 105.819 31.5083 105.819 30.9236C105.819 30.274 105.54 29.7543 104.772 29.7543C104.562 29.7543 104.352 29.8193 104.352 30.0792V31.963Z" fill="white"/>
<path d="M117.484 31.9629C117.484 32.8724 116.926 34.5614 114.341 34.5614C112.665 34.5614 111.477 33.587 111.477 31.9629C111.477 30.4039 112.874 29.3645 114.62 29.3645C116.297 29.3645 117.484 30.4039 117.484 31.9629ZM112.874 31.9629C112.874 32.8074 113.223 34.3015 114.551 34.3015C115.948 34.3015 116.227 33.0673 116.227 31.9629C116.227 30.9885 115.878 29.6243 114.551 29.6243C113.154 29.6893 112.874 30.9236 112.874 31.9629Z" fill="white"/>
<path d="M122.025 30.6638C122.025 29.8193 121.955 29.7544 121.396 29.7544C121.326 29.7544 121.186 29.6894 121.186 29.6894C121.186 29.4945 121.186 29.4945 121.326 29.4945C121.745 29.4945 122.164 29.4945 122.653 29.4945C123.072 29.4945 123.491 29.4945 123.98 29.4945C124.12 29.4945 124.12 29.4945 124.12 29.6894C124.12 29.7544 124.05 29.7544 123.911 29.7544C123.282 29.7544 123.282 29.8193 123.282 30.6638V32.4178C123.282 34.0418 124.469 34.0418 124.888 34.0418C125.866 34.0418 126.425 33.3922 126.425 32.093V30.8587C126.425 29.6894 126.146 29.6894 125.657 29.6894C125.587 29.6894 125.447 29.6894 125.447 29.5595C125.447 29.4296 125.447 29.4296 125.587 29.4296C125.797 29.4296 126.216 29.4296 126.565 29.4296C126.844 29.4296 127.194 29.4296 127.543 29.4296C127.613 29.4296 127.613 29.4945 127.613 29.6245C127.613 29.6894 127.543 29.6894 127.333 29.7544C127.124 29.7544 126.774 29.8193 126.774 30.339C126.705 32.1579 126.705 32.7426 126.635 33.0674C126.355 34.1717 125.377 34.5615 124.33 34.5615C122.793 34.5615 122.094 33.7819 122.094 32.8725V30.6638H122.025Z" fill="white"/>
<path d="M131.804 30.6638C131.804 29.8193 131.734 29.7543 131.175 29.7543C131.105 29.7543 130.965 29.6894 130.965 29.6894C130.965 29.4945 130.965 29.4945 131.105 29.4945C131.524 29.4945 131.943 29.4945 132.432 29.4945C132.642 29.4945 133.201 29.4945 133.69 29.4945C135.436 29.4945 135.715 30.4689 135.715 30.9236C135.715 31.7032 135.157 32.4827 133.759 32.4827C133.48 32.4827 133.201 32.4177 132.991 32.4177V33.4571C132.991 34.1717 132.991 34.2366 133.69 34.2366C133.969 34.2366 133.969 34.2366 133.969 34.4315C133.969 34.4965 133.969 34.4965 133.829 34.4965C133.271 34.4965 132.851 34.4965 132.432 34.4965C132.013 34.4965 131.594 34.4965 131.105 34.4965C131.035 34.4965 131.035 34.4965 131.035 34.4315C131.035 34.2366 131.035 34.2366 131.315 34.2366C131.874 34.2366 131.874 34.1717 131.874 33.1323V30.6638H131.804ZM132.991 31.963C132.991 32.0929 133.201 32.0929 133.271 32.0929C134.039 32.0929 134.458 31.5733 134.458 30.8587C134.458 30.2091 134.039 29.6894 133.271 29.6894C132.921 29.6894 132.921 29.8193 132.921 30.1441V31.963H132.991Z" fill="white"/>
</svg>
