<svg width="47" height="47" viewBox="0 0 47 47" fill="none" xmlns="http://www.w3.org/2000/svg">
<path d="M46.2264 0H0V46.2264H46.2264V0Z" fill="white"/>
<path d="M22.6654 29.8885C23.838 29.8913 24.9851 29.546 25.9613 28.8963C26.9375 28.2466 27.6989 27.3218 28.1489 26.2389C28.599 25.1561 28.7175 23.964 28.4894 22.8138C28.2614 21.6635 27.697 20.6069 26.8678 19.7777C26.0386 18.9485 24.982 18.3841 23.8317 18.1561C22.6815 17.928 21.4894 18.0465 20.4066 18.4966C19.3238 18.9466 18.3989 19.708 17.7492 20.6842C17.0995 21.6604 16.7542 22.8075 16.757 23.9802C16.7635 25.5451 17.3881 27.0442 18.4947 28.1508C19.6013 29.2574 21.1004 29.882 22.6654 29.8885V29.8885ZM22.6654 32.847C18.7462 32.847 10.8343 34.8434 10.8343 38.7697V41.7282H34.4979V38.7625C34.4979 34.8434 26.5802 32.847 22.6654 32.847Z" stroke="#747268"/>
</svg>
