<svg width="47" height="47" viewBox="0 0 47 47" fill="none" xmlns="http://www.w3.org/2000/svg">
<path d="M46.2264 0H0V46.2264H46.2264V0Z" fill="white"/>
<path d="M22.6654 29.8882C23.838 29.8911 24.9851 29.5458 25.9613 28.8961C26.9375 28.2464 27.6989 27.3215 28.1489 26.2387C28.599 25.1559 28.7175 23.9638 28.4894 22.8135C28.2614 21.6633 27.697 20.6066 26.8678 19.7775C26.0386 18.9483 24.982 18.3839 23.8317 18.1558C22.6815 17.9278 21.4894 18.0463 20.4066 18.4963C19.3238 18.9464 18.3989 19.7078 17.7492 20.684C17.0995 21.6602 16.7542 22.8073 16.757 23.9799C16.7635 25.5449 17.3881 27.044 18.4947 28.1506C19.6013 29.2572 21.1004 29.8818 22.6654 29.8882V29.8882ZM22.6654 32.8467C18.7462 32.8467 10.8343 34.8431 10.8343 38.7695V41.728H34.4979V38.7622C34.4979 34.8431 26.5802 32.8467 22.6654 32.8467Z" stroke="#747268"/>
</svg>
