<svg width="26" height="26" viewBox="0 0 26 26" fill="none" xmlns="http://www.w3.org/2000/svg">
<path d="M12.7481 16.7794C13.4077 16.781 14.0529 16.5871 14.6019 16.2224C15.151 15.8576 15.5792 15.3384 15.8324 14.7305C16.0855 14.1226 16.1522 13.4534 16.0239 12.8076C15.8956 12.1619 15.5782 11.5687 15.1118 11.1032C14.6454 10.6377 14.0511 10.3208 13.4041 10.1928C12.7572 10.0647 12.0867 10.1313 11.4777 10.3839C10.8686 10.6366 10.3485 11.064 9.98303 11.6121C9.61761 12.1601 9.42339 12.8041 9.425 13.4624C9.42864 14.341 9.77992 15.1826 10.4023 15.8039C11.0248 16.4251 11.8679 16.7757 12.7481 16.7794V16.7794ZM12.7481 18.4403C10.5438 18.4403 6.09375 19.5611 6.09375 21.7653V23.4262H19.4033V21.7613C19.4033 19.5611 14.95 18.4403 12.7481 18.4403Z" stroke="#747268"/>
</svg>
