<svg width="27" height="27" viewBox="0 0 27 27" fill="none" xmlns="http://www.w3.org/2000/svg">
<path d="M12.8428 16.9038C13.5072 16.9054 14.1572 16.7101 14.7104 16.3427C15.2635 15.9752 15.6949 15.4522 15.9499 14.8397C16.2049 14.2273 16.2721 13.5531 16.1429 12.9026C16.0136 12.252 15.6938 11.6544 15.224 11.1855C14.7542 10.7165 14.1554 10.3973 13.5037 10.2683C12.8519 10.1393 12.1765 10.2063 11.5629 10.4609C10.9494 10.7154 10.4253 11.1461 10.0572 11.6982C9.68905 12.2503 9.4934 12.899 9.49501 13.5622C9.49868 14.4474 9.85257 15.2952 10.4796 15.921C11.1066 16.5469 11.956 16.9002 12.8428 16.9038V16.9038ZM12.8428 18.577C10.6221 18.577 6.13904 19.7061 6.13904 21.9268V23.6H19.5474V21.9227C19.5474 19.7061 15.061 18.577 12.8428 18.577Z" stroke="#747268" stroke-width="1.00742"/>
</svg>
