<svg width="47" height="47" viewBox="0 0 47 47" fill="none" xmlns="http://www.w3.org/2000/svg">
<path d="M46.2264 0H0V46.2264H46.2264V0Z" fill="white"/>
<path d="M22.6654 29.8882C23.8381 29.8911 24.9851 29.5458 25.9614 28.8961C26.9376 28.2464 27.6989 27.3215 28.149 26.2387C28.5991 25.1559 28.7176 23.9638 28.4895 22.8135C28.2614 21.6633 27.697 20.6066 26.8679 19.7775C26.0387 18.9483 24.982 18.3839 23.8318 18.1558C22.6815 17.9278 21.4895 18.0463 20.4066 18.4963C19.3238 18.9464 18.399 19.7078 17.7492 20.684C17.0995 21.6602 16.7543 22.8073 16.7571 23.9799C16.7636 25.5449 17.3881 27.044 18.4948 28.1506C19.6014 29.2572 21.1004 29.8818 22.6654 29.8882V29.8882ZM22.6654 32.8467C18.7463 32.8467 10.8344 34.8431 10.8344 38.7695V41.728H34.4979V38.7622C34.4979 34.8431 26.5802 32.8467 22.6654 32.8467Z" stroke="#747268"/>
</svg>
