<svg width="27" height="27" viewBox="0 0 27 27" fill="none" xmlns="http://www.w3.org/2000/svg">
<path d="M12.9633 16.9038C13.6277 16.9054 14.2777 16.7101 14.8308 16.3427C15.384 15.9752 15.8154 15.4522 16.0704 14.8397C16.3254 14.2273 16.3926 13.5531 16.2634 12.9026C16.1341 12.252 15.8143 11.6544 15.3445 11.1855C14.8747 10.7165 14.2759 10.3973 13.6242 10.2683C12.9724 10.1393 12.297 10.2063 11.6834 10.4609C11.0699 10.7154 10.5458 11.1461 10.1777 11.6982C9.80953 12.2503 9.61388 12.899 9.6155 13.5622C9.61916 14.4474 9.97305 15.2952 10.6001 15.921C11.2271 16.5469 12.0765 16.9002 12.9633 16.9038V16.9038ZM12.9633 18.577C10.7426 18.577 6.25952 19.7061 6.25952 21.9268V23.6H19.6679V21.9227C19.6679 19.7061 15.1815 18.577 12.9633 18.577Z" stroke="#747268" stroke-width="1.00742"/>
</svg>
