<svg width="16" height="17" viewBox="0 0 16 17" fill="none" xmlns="http://www.w3.org/2000/svg">
<path d="M10.3333 9.37533H9.80667L9.62 9.19533C10.2733 8.43533 10.6667 7.44866 10.6667 6.37533C10.6667 3.98199 8.72667 2.04199 6.33333 2.04199C3.94 2.04199 2 3.98199 2 6.37533C2 8.76866 3.94 10.7087 6.33333 10.7087C7.40667 10.7087 8.39333 10.3153 9.15333 9.66199L9.33333 9.84866V10.3753L12.6667 13.702L13.66 12.7087L10.3333 9.37533V9.37533ZM6.33333 9.37533C4.67333 9.37533 3.33333 8.03533 3.33333 6.37533C3.33333 4.71533 4.67333 3.37533 6.33333 3.37533C7.99333 3.37533 9.33333 4.71533 9.33333 6.37533C9.33333 8.03533 7.99333 9.37533 6.33333 9.37533Z" fill="white"/>
</svg>
