<svg width="17" height="17" viewBox="0 0 17 17" fill="none" xmlns="http://www.w3.org/2000/svg">
<path d="M10.8333 10.0887H10.3067L10.12 9.9087C10.7733 9.1487 11.1667 8.16204 11.1667 7.0887C11.1667 4.69537 9.22667 2.75537 6.83333 2.75537C4.44 2.75537 2.5 4.69537 2.5 7.0887C2.5 9.48204 4.44 11.422 6.83333 11.422C7.90667 11.422 8.89333 11.0287 9.65333 10.3754L9.83333 10.562V11.0887L13.1667 14.4154L14.16 13.422L10.8333 10.0887V10.0887ZM6.83333 10.0887C5.17333 10.0887 3.83333 8.7487 3.83333 7.0887C3.83333 5.4287 5.17333 4.0887 6.83333 4.0887C8.49333 4.0887 9.83333 5.4287 9.83333 7.0887C9.83333 8.7487 8.49333 10.0887 6.83333 10.0887Z" fill="white"/>
</svg>
