<svg width="16" height="17" viewBox="0 0 16 17" fill="none" xmlns="http://www.w3.org/2000/svg">
<path d="M10.3333 9.84456H9.80667L9.62 9.66456C10.2733 8.90456 10.6667 7.9179 10.6667 6.84456C10.6667 4.45123 8.72667 2.51123 6.33333 2.51123C3.94 2.51123 2 4.45123 2 6.84456C2 9.2379 3.94 11.1779 6.33333 11.1779C7.40667 11.1779 8.39333 10.7846 9.15333 10.1312L9.33333 10.3179V10.8446L12.6667 14.1712L13.66 13.1779L10.3333 9.84456V9.84456ZM6.33333 9.84456C4.67333 9.84456 3.33333 8.50456 3.33333 6.84456C3.33333 5.18456 4.67333 3.84456 6.33333 3.84456C7.99333 3.84456 9.33333 5.18456 9.33333 6.84456C9.33333 8.50456 7.99333 9.84456 6.33333 9.84456Z" fill="white"/>
</svg>
