<svg width="17" height="17" viewBox="0 0 17 17" fill="none" xmlns="http://www.w3.org/2000/svg">
<path d="M10.6586 9.46296H10.128L9.93999 9.28162C10.5982 8.51598 10.9944 7.52199 10.9944 6.44069C10.9944 4.02959 9.04002 2.0752 6.62892 2.0752C4.21783 2.0752 2.26343 4.02959 2.26343 6.44069C2.26343 8.85179 4.21783 10.8062 6.62892 10.8062C7.71022 10.8062 8.70421 10.4099 9.46986 9.75175L9.65119 9.93981V10.4704L13.0093 13.8217L14.01 12.821L10.6586 9.46296V9.46296ZM6.62892 9.46296C4.9566 9.46296 3.60666 8.11301 3.60666 6.44069C3.60666 4.76837 4.9566 3.41843 6.62892 3.41843C8.30125 3.41843 9.65119 4.76837 9.65119 6.44069C9.65119 8.11301 8.30125 9.46296 6.62892 9.46296Z" fill="white"/>
</svg>
