<svg width="16" height="17" viewBox="0 0 16 17" fill="none" xmlns="http://www.w3.org/2000/svg">
<path d="M10.3333 10.2288H9.80667L9.62 10.0488C10.2733 9.28884 10.6667 8.30217 10.6667 7.22884C10.6667 4.83551 8.72667 2.89551 6.33333 2.89551C3.94 2.89551 2 4.83551 2 7.22884C2 9.62217 3.94 11.5622 6.33333 11.5622C7.40667 11.5622 8.39333 11.1688 9.15333 10.5155L9.33333 10.7022V11.2288L12.6667 14.5555L13.66 13.5622L10.3333 10.2288V10.2288ZM6.33333 10.2288C4.67333 10.2288 3.33333 8.88884 3.33333 7.22884C3.33333 5.56884 4.67333 4.22884 6.33333 4.22884C7.99333 4.22884 9.33333 5.56884 9.33333 7.22884C9.33333 8.88884 7.99333 10.2288 6.33333 10.2288Z" fill="white"/>
</svg>
