<svg width="16" height="17" viewBox="0 0 16 17" fill="none" xmlns="http://www.w3.org/2000/svg">
<path d="M10.3333 9.46663H9.80667L9.62 9.28663C10.2733 8.52663 10.6667 7.53997 10.6667 6.46663C10.6667 4.0733 8.72667 2.1333 6.33333 2.1333C3.94 2.1333 2 4.0733 2 6.46663C2 8.85997 3.94 10.8 6.33333 10.8C7.40667 10.8 8.39333 10.4066 9.15333 9.7533L9.33333 9.93997V10.4666L12.6667 13.7933L13.66 12.8L10.3333 9.46663V9.46663ZM6.33333 9.46663C4.67333 9.46663 3.33333 8.12663 3.33333 6.46663C3.33333 4.80663 4.67333 3.46663 6.33333 3.46663C7.99333 3.46663 9.33333 4.80663 9.33333 6.46663C9.33333 8.12663 7.99333 9.46663 6.33333 9.46663Z" fill="white"/>
</svg>
