<svg width="17" height="18" viewBox="0 0 17 18" fill="none" xmlns="http://www.w3.org/2000/svg">
<path d="M10.4673 10.3299H9.93675L9.7487 10.1486C10.4069 9.38293 10.8031 8.38894 10.8031 7.30764C10.8031 4.89654 8.84874 2.94214 6.43764 2.94214C4.02654 2.94214 2.07214 4.89654 2.07214 7.30764C2.07214 9.71873 4.02654 11.6731 6.43764 11.6731C7.51894 11.6731 8.51293 11.2769 9.27857 10.6187L9.45991 10.8067V11.3373L12.818 14.6887L13.8187 13.688L10.4673 10.3299V10.3299ZM6.43764 10.3299C4.76532 10.3299 3.41537 8.97996 3.41537 7.30764C3.41537 5.63531 4.76532 4.28537 6.43764 4.28537C8.10996 4.28537 9.45991 5.63531 9.45991 7.30764C9.45991 8.97996 8.10996 10.3299 6.43764 10.3299Z" fill="white"/>
</svg>
