<svg width="17" height="17" viewBox="0 0 17 17" fill="none" xmlns="http://www.w3.org/2000/svg">
<path d="M10.8135 9.85432H10.283L10.0949 9.67298C10.7531 8.90734 11.1493 7.91335 11.1493 6.83205C11.1493 4.42095 9.19494 2.46655 6.78385 2.46655C4.37275 2.46655 2.41835 4.42095 2.41835 6.83205C2.41835 9.24315 4.37275 11.1975 6.78385 11.1975C7.86515 11.1975 8.85914 10.8013 9.62478 10.1431L9.80611 10.3312V10.8617L13.1642 14.2131L14.1649 13.2124L10.8135 9.85432V9.85432ZM6.78385 9.85432C5.11153 9.85432 3.76158 8.50437 3.76158 6.83205C3.76158 5.15973 5.11153 3.80978 6.78385 3.80978C8.45617 3.80978 9.80611 5.15973 9.80611 6.83205C9.80611 8.50437 8.45617 9.85432 6.78385 9.85432Z" fill="white"/>
</svg>
