<svg width="16" height="17" viewBox="0 0 16 17" fill="none" xmlns="http://www.w3.org/2000/svg">
<path d="M10.3333 9.73995H9.80667L9.62 9.55995C10.2733 8.79995 10.6667 7.81328 10.6667 6.73995C10.6667 4.34662 8.72667 2.40662 6.33333 2.40662C3.94 2.40662 2 4.34662 2 6.73995C2 9.13328 3.94 11.0733 6.33333 11.0733C7.40667 11.0733 8.39333 10.68 9.15333 10.0266L9.33333 10.2133V10.7399L12.6667 14.0666L13.66 13.0733L10.3333 9.73995V9.73995ZM6.33333 9.73995C4.67333 9.73995 3.33333 8.39995 3.33333 6.73995C3.33333 5.07995 4.67333 3.73995 6.33333 3.73995C7.99333 3.73995 9.33333 5.07995 9.33333 6.73995C9.33333 8.39995 7.99333 9.73995 6.33333 9.73995Z" fill="white"/>
</svg>
