<svg width="16" height="17" viewBox="0 0 16 17" fill="none" xmlns="http://www.w3.org/2000/svg">
<path d="M10.3333 9.74508H9.80667L9.62 9.56508C10.2733 8.80508 10.6667 7.81841 10.6667 6.74508C10.6667 4.35174 8.72667 2.41174 6.33333 2.41174C3.94 2.41174 2 4.35174 2 6.74508C2 9.13841 3.94 11.0784 6.33333 11.0784C7.40667 11.0784 8.39333 10.6851 9.15333 10.0317L9.33333 10.2184V10.7451L12.6667 14.0717L13.66 13.0784L10.3333 9.74508V9.74508ZM6.33333 9.74508C4.67333 9.74508 3.33333 8.40508 3.33333 6.74508C3.33333 5.08508 4.67333 3.74508 6.33333 3.74508C7.99333 3.74508 9.33333 5.08508 9.33333 6.74508C9.33333 8.40508 7.99333 9.74508 6.33333 9.74508Z" fill="white"/>
</svg>
