<svg width="16" height="17" viewBox="0 0 16 17" fill="none" xmlns="http://www.w3.org/2000/svg">
<path d="M10.3333 9.80013H9.80667L9.62 9.62013C10.2733 8.86013 10.6667 7.87346 10.6667 6.80013C10.6667 4.4068 8.72667 2.4668 6.33333 2.4668C3.94 2.4668 2 4.4068 2 6.80013C2 9.19346 3.94 11.1335 6.33333 11.1335C7.40667 11.1335 8.39333 10.7401 9.15333 10.0868L9.33333 10.2735V10.8001L12.6667 14.1268L13.66 13.1335L10.3333 9.80013V9.80013ZM6.33333 9.80013C4.67333 9.80013 3.33333 8.46013 3.33333 6.80013C3.33333 5.14013 4.67333 3.80013 6.33333 3.80013C7.99333 3.80013 9.33333 5.14013 9.33333 6.80013C9.33333 8.46013 7.99333 9.80013 6.33333 9.80013Z" fill="white"/>
</svg>
