<svg width="16" height="17" viewBox="0 0 16 17" fill="none" xmlns="http://www.w3.org/2000/svg">
<path d="M10.3333 10.2728H9.80667L9.62 10.0928C10.2733 9.33279 10.6667 8.34612 10.6667 7.27279C10.6667 4.87945 8.72667 2.93945 6.33333 2.93945C3.94 2.93945 2 4.87945 2 7.27279C2 9.66612 3.94 11.6061 6.33333 11.6061C7.40667 11.6061 8.39333 11.2128 9.15333 10.5595L9.33333 10.7461V11.2728L12.6667 14.5995L13.66 13.6061L10.3333 10.2728V10.2728ZM6.33333 10.2728C4.67333 10.2728 3.33333 8.93279 3.33333 7.27279C3.33333 5.61279 4.67333 4.27279 6.33333 4.27279C7.99333 4.27279 9.33333 5.61279 9.33333 7.27279C9.33333 8.93279 7.99333 10.2728 6.33333 10.2728Z" fill="white"/>
</svg>
