<svg width="16" height="17" viewBox="0 0 16 17" fill="none" xmlns="http://www.w3.org/2000/svg">
<path d="M10.3333 9.57796H9.80667L9.62 9.39796C10.2733 8.63796 10.6667 7.6513 10.6667 6.57796C10.6667 4.18463 8.72667 2.24463 6.33333 2.24463C3.94 2.24463 2 4.18463 2 6.57796C2 8.9713 3.94 10.9113 6.33333 10.9113C7.40667 10.9113 8.39333 10.518 9.15333 9.86463L9.33333 10.0513V10.578L12.6667 13.9046L13.66 12.9113L10.3333 9.57796V9.57796ZM6.33333 9.57796C4.67333 9.57796 3.33333 8.23796 3.33333 6.57796C3.33333 4.91796 4.67333 3.57796 6.33333 3.57796C7.99333 3.57796 9.33333 4.91796 9.33333 6.57796C9.33333 8.23796 7.99333 9.57796 6.33333 9.57796Z" fill="white"/>
</svg>
