<svg width="17" height="17" viewBox="0 0 17 17" fill="none" xmlns="http://www.w3.org/2000/svg">
<path d="M10.8333 9.37557H10.3067L10.12 9.19557C10.7733 8.43557 11.1667 7.4489 11.1667 6.37557C11.1667 3.98224 9.22667 2.04224 6.83333 2.04224C4.44 2.04224 2.5 3.98224 2.5 6.37557C2.5 8.7689 4.44 10.7089 6.83333 10.7089C7.90667 10.7089 8.89333 10.3156 9.65333 9.66224L9.83333 9.8489V10.3756L13.1667 13.7022L14.16 12.7089L10.8333 9.37557V9.37557ZM6.83333 9.37557C5.17333 9.37557 3.83333 8.03557 3.83333 6.37557C3.83333 4.71557 5.17333 3.37557 6.83333 3.37557C8.49333 3.37557 9.83333 4.71557 9.83333 6.37557C9.83333 8.03557 8.49333 9.37557 6.83333 9.37557Z" fill="white"/>
</svg>
