<svg width="16" height="17" viewBox="0 0 16 17" fill="none" xmlns="http://www.w3.org/2000/svg">
<path d="M10.3333 9.86605H9.80667L9.62 9.68605C10.2733 8.92605 10.6667 7.93938 10.6667 6.86605C10.6667 4.47271 8.72667 2.53271 6.33333 2.53271C3.94 2.53271 2 4.47271 2 6.86605C2 9.25938 3.94 11.1994 6.33333 11.1994C7.40667 11.1994 8.39333 10.806 9.15333 10.1527L9.33333 10.3394V10.866L12.6667 14.1927L13.66 13.1994L10.3333 9.86605V9.86605ZM6.33333 9.86605C4.67333 9.86605 3.33333 8.52605 3.33333 6.86605C3.33333 5.20605 4.67333 3.86605 6.33333 3.86605C7.99333 3.86605 9.33333 5.20605 9.33333 6.86605C9.33333 8.52605 7.99333 9.86605 6.33333 9.86605Z" fill="white"/>
</svg>
