<svg width="18" height="18" viewBox="0 0 18 18" fill="none" xmlns="http://www.w3.org/2000/svg">
<path d="M11.3134 10.2852H10.7828L10.5948 10.1039C11.253 9.33825 11.6492 8.34426 11.6492 7.26296C11.6492 4.85186 9.69481 2.89746 7.28371 2.89746C4.87261 2.89746 2.91821 4.85186 2.91821 7.26296C2.91821 9.67406 4.87261 11.6285 7.28371 11.6285C8.36501 11.6285 9.359 11.2322 10.1246 10.574L10.306 10.7621V11.2926L13.6641 14.644L14.6648 13.6433L11.3134 10.2852V10.2852ZM7.28371 10.2852C5.61139 10.2852 4.26144 8.93528 4.26144 7.26296C4.26144 5.59064 5.61139 4.24069 7.28371 4.24069C8.95603 4.24069 10.306 5.59064 10.306 7.26296C10.306 8.93528 8.95603 10.2852 7.28371 10.2852Z" fill="white"/>
</svg>
