<svg width="16" height="17" viewBox="0 0 16 17" fill="none" xmlns="http://www.w3.org/2000/svg">
<path d="M10.3333 10.3194H9.80667L9.62 10.1394C10.2733 9.37942 10.6667 8.39275 10.6667 7.31942C10.6667 4.92608 8.72667 2.98608 6.33333 2.98608C3.94 2.98608 2 4.92608 2 7.31942C2 9.71275 3.94 11.6528 6.33333 11.6528C7.40667 11.6528 8.39333 11.2594 9.15333 10.6061L9.33333 10.7928V11.3194L12.6667 14.6461L13.66 13.6528L10.3333 10.3194V10.3194ZM6.33333 10.3194C4.67333 10.3194 3.33333 8.97942 3.33333 7.31942C3.33333 5.65942 4.67333 4.31942 6.33333 4.31942C7.99333 4.31942 9.33333 5.65942 9.33333 7.31942C9.33333 8.97942 7.99333 10.3194 6.33333 10.3194Z" fill="white"/>
</svg>
