<svg width="16" height="17" viewBox="0 0 16 17" fill="none" xmlns="http://www.w3.org/2000/svg">
<path d="M10.3333 9.37557H9.80667L9.62 9.19557C10.2733 8.43557 10.6667 7.4489 10.6667 6.37557C10.6667 3.98224 8.72667 2.04224 6.33333 2.04224C3.94 2.04224 2 3.98224 2 6.37557C2 8.7689 3.94 10.7089 6.33333 10.7089C7.40667 10.7089 8.39333 10.3156 9.15333 9.66224L9.33333 9.8489V10.3756L12.6667 13.7022L13.66 12.7089L10.3333 9.37557V9.37557ZM6.33333 9.37557C4.67333 9.37557 3.33333 8.03557 3.33333 6.37557C3.33333 4.71557 4.67333 3.37557 6.33333 3.37557C7.99333 3.37557 9.33333 4.71557 9.33333 6.37557C9.33333 8.03557 7.99333 9.37557 6.33333 9.37557Z" fill="white"/>
</svg>
