<svg width="16" height="17" viewBox="0 0 16 17" fill="none" xmlns="http://www.w3.org/2000/svg">
<path d="M10.3333 10.0304H9.80667L9.62 9.85035C10.2733 9.09035 10.6667 8.10369 10.6667 7.03035C10.6667 4.63702 8.72667 2.69702 6.33333 2.69702C3.94 2.69702 2 4.63702 2 7.03035C2 9.42369 3.94 11.3637 6.33333 11.3637C7.40667 11.3637 8.39333 10.9704 9.15333 10.317L9.33333 10.5037V11.0304L12.6667 14.357L13.66 13.3637L10.3333 10.0304V10.0304ZM6.33333 10.0304C4.67333 10.0304 3.33333 8.69036 3.33333 7.03035C3.33333 5.37035 4.67333 4.03035 6.33333 4.03035C7.99333 4.03035 9.33333 5.37035 9.33333 7.03035C9.33333 8.69036 7.99333 10.0304 6.33333 10.0304Z" fill="white"/>
</svg>
