<svg width="17" height="17" viewBox="0 0 17 17" fill="none" xmlns="http://www.w3.org/2000/svg">
<path d="M11.282 10.0155H10.7553L10.5687 9.83546C11.222 9.07546 11.6153 8.0888 11.6153 7.01546C11.6153 4.62213 9.67534 2.68213 7.28201 2.68213C4.88868 2.68213 2.94868 4.62213 2.94868 7.01546C2.94868 9.4088 4.88868 11.3488 7.28201 11.3488C8.35534 11.3488 9.34201 10.9555 10.102 10.3021L10.282 10.4888V11.0155L13.6153 14.3421L14.6087 13.3488L11.282 10.0155V10.0155ZM7.28201 10.0155C5.62201 10.0155 4.28201 8.67546 4.28201 7.01546C4.28201 5.35546 5.62201 4.01546 7.28201 4.01546C8.94201 4.01546 10.282 5.35546 10.282 7.01546C10.282 8.67546 8.94201 10.0155 7.28201 10.0155Z" fill="white"/>
</svg>
