<svg width="17" height="17" viewBox="0 0 17 17" fill="none" xmlns="http://www.w3.org/2000/svg">
<path d="M10.6191 9.47249H10.0924L9.90575 9.29249C10.5591 8.53249 10.9524 7.54583 10.9524 6.47249C10.9524 4.07916 9.01242 2.13916 6.61908 2.13916C4.22575 2.13916 2.28575 4.07916 2.28575 6.47249C2.28575 8.86583 4.22575 10.8058 6.61908 10.8058C7.69242 10.8058 8.67908 10.4125 9.43908 9.75916L9.61908 9.94583V10.4725L12.9524 13.7992L13.9458 12.8058L10.6191 9.47249V9.47249ZM6.61908 9.47249C4.95908 9.47249 3.61908 8.13249 3.61908 6.47249C3.61908 4.81249 4.95908 3.47249 6.61908 3.47249C8.27908 3.47249 9.61908 4.81249 9.61908 6.47249C9.61908 8.13249 8.27908 9.47249 6.61908 9.47249Z" fill="white"/>
</svg>
