<svg width="30" height="28" viewBox="0 0 30 28" fill="none" xmlns="http://www.w3.org/2000/svg">
<path d="M23.5327 7.13187C23.2882 6.46897 22.6035 5.99707 21.7965 5.99707H8.3472C7.54024 5.99707 6.86778 6.46897 6.61102 7.13187L4.20236 13.5025C4.11678 13.7384 4.06787 13.9856 4.06787 14.244V22.2887C4.06787 23.2213 4.88706 23.9741 5.90187 23.9741C6.91668 23.9741 7.73587 23.2213 7.73587 22.2887V21.727H22.4079V22.2887C22.4079 23.2101 23.2271 23.9741 24.2419 23.9741C25.2445 23.9741 26.0759 23.2213 26.0759 22.2887V14.244C26.0759 13.9968 26.027 13.7384 25.9414 13.5025L23.5327 7.13187ZM8.3472 18.3563C7.33239 18.3563 6.5132 17.6035 6.5132 16.6709C6.5132 15.7384 7.33239 14.9856 8.3472 14.9856C9.36202 14.9856 10.1812 15.7384 10.1812 16.6709C10.1812 17.6035 9.36202 18.3563 8.3472 18.3563ZM21.7965 18.3563C20.7817 18.3563 19.9625 17.6035 19.9625 16.6709C19.9625 15.7384 20.7817 14.9856 21.7965 14.9856C22.8113 14.9856 23.6305 15.7384 23.6305 16.6709C23.6305 17.6035 22.8113 18.3563 21.7965 18.3563ZM6.5132 12.7385L8.06599 8.44644C8.23716 7.99701 8.70178 7.68242 9.22752 7.68242H20.9162C21.442 7.68242 21.9066 7.99701 22.0777 8.44644L23.6305 12.7385H6.5132Z" fill="white"/>
</svg>
