<svg width="28" height="28" viewBox="0 0 28 28" fill="none" xmlns="http://www.w3.org/2000/svg">
<path d="M22.0733 7.01183C21.84 6.3235 21.1867 5.8335 20.4167 5.8335H7.58333C6.81333 5.8335 6.17167 6.3235 5.92667 7.01183L3.62833 13.6268C3.54667 13.8718 3.5 14.1285 3.5 14.3968V22.7502C3.5 23.7185 4.28167 24.5002 5.25 24.5002C6.21833 24.5002 7 23.7185 7 22.7502V22.1668H21V22.7502C21 23.7068 21.7817 24.5002 22.75 24.5002C23.7067 24.5002 24.5 23.7185 24.5 22.7502V14.3968C24.5 14.1402 24.4533 13.8718 24.3717 13.6268L22.0733 7.01183ZM7.58333 18.6668C6.615 18.6668 5.83333 17.8852 5.83333 16.9168C5.83333 15.9485 6.615 15.1668 7.58333 15.1668C8.55167 15.1668 9.33333 15.9485 9.33333 16.9168C9.33333 17.8852 8.55167 18.6668 7.58333 18.6668ZM20.4167 18.6668C19.4483 18.6668 18.6667 17.8852 18.6667 16.9168C18.6667 15.9485 19.4483 15.1668 20.4167 15.1668C21.385 15.1668 22.1667 15.9485 22.1667 16.9168C22.1667 17.8852 21.385 18.6668 20.4167 18.6668ZM5.83333 12.8335L7.315 8.37683C7.47833 7.91016 7.92167 7.5835 8.42333 7.5835H19.5767C20.0783 7.5835 20.5217 7.91016 20.685 8.37683L22.1667 12.8335H5.83333Z" fill="white"/>
</svg>
