<svg width="30" height="28" viewBox="0 0 30 28" fill="none" xmlns="http://www.w3.org/2000/svg">
<path d="M23.3408 7.08255C23.0963 6.41965 22.4116 5.94775 21.6046 5.94775H8.15531C7.34835 5.94775 6.67588 6.41965 6.41912 7.08255L4.01047 13.4532C3.92488 13.6891 3.87598 13.9363 3.87598 14.1947V22.2394C3.87598 23.172 4.69516 23.9248 5.70998 23.9248C6.72479 23.9248 7.54398 23.172 7.54398 22.2394V21.6776H22.216V22.2394C22.216 23.1607 23.0352 23.9248 24.05 23.9248C25.0526 23.9248 25.884 23.172 25.884 22.2394V14.1947C25.884 13.9475 25.8351 13.6891 25.7495 13.4532L23.3408 7.08255ZM8.15531 18.3069C7.1405 18.3069 6.32131 17.5542 6.32131 16.6216C6.32131 15.689 7.1405 14.9363 8.15531 14.9363C9.17012 14.9363 9.98931 15.689 9.98931 16.6216C9.98931 17.5542 9.17012 18.3069 8.15531 18.3069ZM21.6046 18.3069C20.5898 18.3069 19.7706 17.5542 19.7706 16.6216C19.7706 15.689 20.5898 14.9363 21.6046 14.9363C22.6195 14.9363 23.4386 15.689 23.4386 16.6216C23.4386 17.5542 22.6195 18.3069 21.6046 18.3069ZM6.32131 12.6891L7.8741 8.39712C8.04527 7.9477 8.50988 7.6331 9.03563 7.6331H20.7243C21.2501 7.6331 21.7147 7.9477 21.8859 8.39712L23.4386 12.6891H6.32131Z" fill="white"/>
</svg>
