<svg width="30" height="28" viewBox="0 0 30 28" fill="none" xmlns="http://www.w3.org/2000/svg">
<path d="M23.3408 7.60697C23.0963 6.94406 22.4116 6.47217 21.6046 6.47217H8.15531C7.34835 6.47217 6.67588 6.94406 6.41912 7.60697L4.01047 13.9776C3.92488 14.2135 3.87598 14.4607 3.87598 14.7191V22.7638C3.87598 23.6964 4.69516 24.4492 5.70998 24.4492C6.72479 24.4492 7.54398 23.6964 7.54398 22.7638V22.2021H22.216V22.7638C22.216 23.6852 23.0352 24.4492 24.05 24.4492C25.0526 24.4492 25.884 23.6964 25.884 22.7638V14.7191C25.884 14.4719 25.8351 14.2135 25.7495 13.9776L23.3408 7.60697ZM8.15531 18.8314C7.1405 18.8314 6.32131 18.0786 6.32131 17.146C6.32131 16.2135 7.1405 15.4607 8.15531 15.4607C9.17012 15.4607 9.98931 16.2135 9.98931 17.146C9.98931 18.0786 9.17012 18.8314 8.15531 18.8314ZM21.6046 18.8314C20.5898 18.8314 19.7706 18.0786 19.7706 17.146C19.7706 16.2135 20.5898 15.4607 21.6046 15.4607C22.6195 15.4607 23.4386 16.2135 23.4386 17.146C23.4386 18.0786 22.6195 18.8314 21.6046 18.8314ZM6.32131 13.2135L7.8741 8.92154C8.04527 8.47211 8.50988 8.15751 9.03563 8.15751H20.7243C21.2501 8.15751 21.7147 8.47211 21.8859 8.92154L23.4386 13.2135H6.32131Z" fill="white"/>
</svg>
