<svg width="393" height="19" viewBox="0 0 393 19" fill="none" xmlns="http://www.w3.org/2000/svg">
<path fill-rule="evenodd" clip-rule="evenodd" d="M212.5 12.3989C214.433 12.3989 216 10.8319 216 8.89893C216 6.96593 214.433 5.39893 212.5 5.39893C210.567 5.39893 209 6.96593 209 8.89893C209 10.8319 210.567 12.3989 212.5 12.3989Z" fill="black" fill-opacity="0.32"/>
<path fill-rule="evenodd" clip-rule="evenodd" d="M196.5 12.3989C198.433 12.3989 200 10.8319 200 8.89893C200 6.96593 198.433 5.39893 196.5 5.39893C194.567 5.39893 193 6.96593 193 8.89893C193 10.8319 194.567 12.3989 196.5 12.3989Z" fill="black" fill-opacity="0.32"/>
<path fill-rule="evenodd" clip-rule="evenodd" d="M180.5 12.3989C182.433 12.3989 184 10.8319 184 8.89893C184 6.96593 182.433 5.39893 180.5 5.39893C178.567 5.39893 177 6.96593 177 8.89893C177 10.8319 178.567 12.3989 180.5 12.3989Z" fill="#4C4981"/>
</svg>
