<svg width="369" height="206" viewBox="0 0 369 206" fill="none" xmlns="http://www.w3.org/2000/svg">
<g filter="url(#filter0_d_297_2841)">
<path d="M4 10C4 4.47715 8.47715 0 14 0H355C360.523 0 365 4.47715 365 10V188C365 193.523 360.523 198 355 198H14C8.47716 198 4 193.523 4 188V10Z" fill="white"/>
<path d="M5 10C5 5.02944 9.02944 1 14 1H355C359.971 1 364 5.02944 364 10V188C364 192.971 359.971 197 355 197H14C9.02944 197 5 192.971 5 188V10Z" stroke="#ECDDDC" stroke-width="2"/>
</g>
<defs>
<filter id="filter0_d_297_2841" x="0" y="0" width="369" height="206" filterUnits="userSpaceOnUse" color-interpolation-filters="sRGB">
<feFlood flood-opacity="0" result="BackgroundImageFix"/>
<feColorMatrix in="SourceAlpha" type="matrix" values="0 0 0 0 0 0 0 0 0 0 0 0 0 0 0 0 0 0 127 0" result="hardAlpha"/>
<feOffset dy="4"/>
<feGaussianBlur stdDeviation="2"/>
<feComposite in2="hardAlpha" operator="out"/>
<feColorMatrix type="matrix" values="0 0 0 0 0 0 0 0 0 0 0 0 0 0 0 0 0 0 0.3 0"/>
<feBlend mode="normal" in2="BackgroundImageFix" result="effect1_dropShadow_297_2841"/>
<feBlend mode="normal" in="SourceGraphic" in2="effect1_dropShadow_297_2841" result="shape"/>
</filter>
</defs>
</svg>
