<svg width="378" height="206" viewBox="0 0 378 206" fill="none" xmlns="http://www.w3.org/2000/svg">
<g filter="url(#filter0_d_279_2360)">
<path d="M4 10C4 4.47715 8.47715 0 14 0H364C369.523 0 374 4.47715 374 10V188C374 193.523 369.523 198 364 198H14C8.47715 198 4 193.523 4 188V10Z" fill="white"/>
<path d="M5 10C5 5.02944 9.02944 1 14 1H364C368.971 1 373 5.02944 373 10V188C373 192.971 368.971 197 364 197H14C9.02943 197 5 192.971 5 188V10Z" stroke="#ECDDDC" stroke-width="2"/>
</g>
<defs>
<filter id="filter0_d_279_2360" x="0" y="0" width="378" height="206" filterUnits="userSpaceOnUse" color-interpolation-filters="sRGB">
<feFlood flood-opacity="0" result="BackgroundImageFix"/>
<feColorMatrix in="SourceAlpha" type="matrix" values="0 0 0 0 0 0 0 0 0 0 0 0 0 0 0 0 0 0 127 0" result="hardAlpha"/>
<feOffset dy="4"/>
<feGaussianBlur stdDeviation="2"/>
<feComposite in2="hardAlpha" operator="out"/>
<feColorMatrix type="matrix" values="0 0 0 0 0 0 0 0 0 0 0 0 0 0 0 0 0 0 0.3 0"/>
<feBlend mode="normal" in2="BackgroundImageFix" result="effect1_dropShadow_279_2360"/>
<feBlend mode="normal" in="SourceGraphic" in2="effect1_dropShadow_279_2360" result="shape"/>
</filter>
</defs>
</svg>
