<svg width="26" height="25" viewBox="0 0 26 25" fill="none" xmlns="http://www.w3.org/2000/svg">
<g clip-path="url(#clip0_72_1718)">
<path fill-rule="evenodd" clip-rule="evenodd" d="M18.3208 16.2056C18.3208 13.6133 16.2438 11.4584 13.7157 11.0347V5.85459C14.4865 6.09318 15.2834 6.15282 15.6045 6.87929C15.8951 7.53388 16.6308 7.81377 17.2441 7.50635C17.8604 7.19741 18.1204 6.41435 17.8314 5.75824C17.108 4.12788 15.473 3.47329 13.7387 3.17659V0H12.2353V3.15977C9.69031 3.54365 7.65466 5.71388 7.65466 8.33377C7.65466 10.9491 9.6796 13.1162 12.2353 13.5078V18.7231C11.4155 18.4967 10.6554 18.4202 10.3204 17.6601C10.0329 17.0025 9.29878 16.7226 8.68702 17.03C8.06913 17.3374 7.80607 18.1174 8.0936 18.7751C8.82925 20.4421 10.4703 21.1166 12.2597 21.3919V24.4706H13.6943V21.3797C16.2117 20.9636 18.3208 18.8026 18.3208 16.2056ZM10.1201 8.33377C10.1201 7.15 11.0347 6.15588 12.2811 5.83624V10.8359C11.0347 10.5132 10.1201 9.52059 10.1201 8.33377ZM13.705 18.694V13.7173C14.9515 14.0614 15.8615 15.0402 15.8615 16.2056C15.8615 17.3711 14.9515 18.3499 13.705 18.694Z" fill="#3B414B"/>
</g>
<defs>
<clipPath id="clip0_72_1718">
<rect width="26" height="24.4706" fill="white"/>
</clipPath>
</defs>
</svg>
