<svg width="26" height="29" viewBox="0 0 26 29" fill="none" xmlns="http://www.w3.org/2000/svg">
<g clip-path="url(#clip0_72_1052)">
<path fill-rule="evenodd" clip-rule="evenodd" d="M18.3208 10.2356C18.3208 13.2372 16.2438 15.7324 13.7157 16.223V22.221C14.4865 21.9447 15.2834 21.8757 15.6045 21.0345C15.8951 20.2766 16.6308 19.9525 17.2441 20.3084C17.8604 20.6662 18.1204 21.5729 17.8314 22.3326C17.108 24.2203 15.473 24.9783 13.7387 25.3218V29H12.2353V25.3413C9.69031 24.8968 7.65466 22.3839 7.65466 19.3504C7.65466 16.3221 9.6796 13.8128 12.2353 13.3594V7.32067C11.4155 7.58276 10.6554 7.6713 10.3204 8.55144C10.0329 9.31293 9.29878 9.637 8.68702 9.28105C8.06913 8.9251 7.80607 8.02194 8.0936 7.26046C8.82925 5.33018 10.4703 4.54921 12.2597 4.23045V0.665632H13.6943V4.24462C16.2117 4.7263 18.3208 7.22858 18.3208 10.2356ZM10.1201 19.3504C10.1201 20.7211 11.0347 21.8721 12.2811 22.2423V16.4532C11.0347 16.8268 10.1201 17.9762 10.1201 19.3504ZM13.705 7.35431V13.1168C14.9515 12.7184 15.8615 11.585 15.8615 10.2356C15.8615 8.88614 14.9515 7.75277 13.705 7.35431Z" fill="#3B414B"/>
</g>
<defs>
<clipPath id="clip0_72_1052">
<rect width="26" height="28.3344" fill="white" transform="matrix(1 0 0 -1 0 29)"/>
</clipPath>
</defs>
</svg>
