<svg width="26" height="23" viewBox="0 0 26 23" fill="none" xmlns="http://www.w3.org/2000/svg">
<path d="M23.5073 3.14388C22.924 2.57582 22.2313 2.12519 21.469 1.81774C20.7067 1.51029 19.8896 1.35205 19.0645 1.35205C18.2393 1.35205 17.4222 1.51029 16.6599 1.81774C15.8976 2.12519 15.205 2.57582 14.6216 3.14388L13.411 4.32225L12.2003 3.14388C11.022 1.99697 9.42388 1.35265 7.75749 1.35265C6.0911 1.35265 4.49296 1.99697 3.31465 3.14388C2.13634 4.29078 1.47437 5.84632 1.47437 7.46829C1.47437 9.09026 2.13634 10.6458 3.31465 11.7927L4.52529 12.9711L13.411 21.6199L22.2967 12.9711L23.5073 11.7927C24.0909 11.2249 24.5539 10.5508 24.8698 9.80876C25.1856 9.06677 25.3482 8.27146 25.3482 7.46829C25.3482 6.66512 25.1856 5.86982 24.8698 5.12782C24.5539 4.38582 24.0909 3.71167 23.5073 3.14388V3.14388Z" stroke="#13171B" stroke-linecap="round" stroke-linejoin="round"/>
</svg>
