<svg width="12" height="22" viewBox="0 0 12 22" fill="none" xmlns="http://www.w3.org/2000/svg">
<path d="M11.4218 1.99436C11.6192 1.78548 11.7255 1.50674 11.7174 1.21947C11.7092 0.932192 11.5873 0.659912 11.3785 0.462524C11.1696 0.265137 10.8908 0.158811 10.6036 0.166938C10.3163 0.175064 10.044 0.296977 9.84662 0.505858L0.638284 10.2559C0.44812 10.457 0.342163 10.7233 0.342163 11.0001C0.342163 11.2769 0.44812 11.5432 0.638284 11.7444L9.84662 21.4954C9.94371 21.6011 10.0608 21.6865 10.1912 21.7465C10.3215 21.8066 10.4625 21.8401 10.606 21.8452C10.7494 21.8503 10.8924 21.8268 11.0267 21.7762C11.161 21.7256 11.2839 21.6487 11.3882 21.5502C11.4925 21.4517 11.5763 21.3334 11.6345 21.2022C11.6928 21.0711 11.7244 20.9296 11.7275 20.7861C11.7306 20.6427 11.7052 20.5 11.6527 20.3664C11.6002 20.2328 11.5217 20.111 11.4218 20.008L2.91545 11.0001L11.4218 1.99436Z" fill="black"/>
</svg>
