<svg width="12" height="22" viewBox="0 0 12 22" fill="none" xmlns="http://www.w3.org/2000/svg">
<path d="M11.0795 1.99436C11.2769 1.78548 11.3832 1.50674 11.3751 1.21947C11.367 0.932192 11.245 0.659912 11.0362 0.462524C10.8273 0.265137 10.5485 0.158811 10.2613 0.166938C9.974 0.175064 9.70172 0.296977 9.50433 0.505858L0.295999 10.2559C0.105835 10.457 -0.00012207 10.7233 -0.00012207 11.0001C-0.00012207 11.2769 0.105835 11.5432 0.295999 11.7444L9.50433 21.4954C9.60142 21.6011 9.71855 21.6865 9.8489 21.7465C9.97926 21.8066 10.1202 21.8401 10.2637 21.8452C10.4071 21.8503 10.5501 21.8268 10.6844 21.7762C10.8187 21.7256 10.9416 21.6487 11.0459 21.5502C11.1503 21.4517 11.234 21.3334 11.2922 21.2022C11.3505 21.0711 11.3821 20.9296 11.3852 20.7861C11.3883 20.6427 11.3629 20.5 11.3104 20.3664C11.258 20.2328 11.1795 20.111 11.0795 20.008L2.57317 11.0001L11.0795 1.99436Z" fill="black"/>
</svg>
