<svg width="12" height="22" viewBox="0 0 12 22" fill="none" xmlns="http://www.w3.org/2000/svg">
<path d="M11.0796 1.99436C11.277 1.78548 11.3833 1.50674 11.3752 1.21947C11.3671 0.932192 11.2452 0.659912 11.0363 0.462524C10.8274 0.265137 10.5487 0.158811 10.2614 0.166938C9.97412 0.175064 9.70184 0.296977 9.50445 0.505858L0.296121 10.2559C0.105957 10.457 0 10.7233 0 11.0001C0 11.2769 0.105957 11.5432 0.296121 11.7444L9.50445 21.4954C9.60155 21.6011 9.71867 21.6865 9.84902 21.7465C9.97938 21.8066 10.1204 21.8401 10.2638 21.8452C10.4072 21.8503 10.5502 21.8268 10.6845 21.7762C10.8188 21.7256 10.9417 21.6487 11.046 21.5502C11.1504 21.4517 11.2341 21.3334 11.2924 21.2022C11.3506 21.0711 11.3822 20.9296 11.3853 20.7861C11.3885 20.6427 11.363 20.5 11.3106 20.3664C11.2581 20.2328 11.1796 20.111 11.0796 20.008L2.57329 11.0001L11.0796 1.99436Z" fill="black"/>
</svg>
