<svg width="12" height="22" viewBox="0 0 12 22" fill="none" xmlns="http://www.w3.org/2000/svg">
<path d="M11.0796 1.99436C11.2769 1.78548 11.3833 1.50674 11.3751 1.21947C11.367 0.932192 11.2451 0.659912 11.0362 0.462524C10.8273 0.265137 10.5486 0.158811 10.2613 0.166938C9.97406 0.175064 9.70178 0.296977 9.50439 0.505858L0.29606 10.2559C0.105896 10.457 -6.10352e-05 10.7233 -6.10352e-05 11.0001C-6.10352e-05 11.2769 0.105896 11.5432 0.29606 11.7444L9.50439 21.4954C9.60148 21.6011 9.71861 21.6865 9.84896 21.7465C9.97932 21.8066 10.1203 21.8401 10.2637 21.8452C10.4072 21.8503 10.5502 21.8268 10.6845 21.7762C10.8187 21.7256 10.9416 21.6487 11.046 21.5502C11.1503 21.4517 11.234 21.3334 11.2923 21.2022C11.3505 21.0711 11.3821 20.9296 11.3853 20.7861C11.3884 20.6427 11.363 20.5 11.3105 20.3664C11.258 20.2328 11.1795 20.111 11.0796 20.008L2.57323 11.0001L11.0796 1.99436Z" fill="black"/>
</svg>
