<svg width="22" height="18" viewBox="0 0 22 18" fill="none" xmlns="http://www.w3.org/2000/svg">
<path d="M21.2351 2.07602C20.4535 2.43933 19.611 2.67807 18.738 2.79225C19.6313 2.24211 20.3215 1.37018 20.6463 0.321784C19.8038 0.840789 18.87 1.20409 17.8854 1.4117C17.0835 0.519006 15.9567 0 14.6778 0C12.2924 0 10.3435 1.99298 10.3435 4.45307C10.3435 4.80599 10.3841 5.14854 10.4551 5.47032C6.84151 5.28348 3.62376 3.50848 1.48199 0.820029C1.10642 1.47398 0.893253 2.24211 0.893253 3.05175C0.893253 4.59839 1.65455 5.96857 2.83202 6.74708C2.11133 6.74708 1.44139 6.53947 0.852651 6.22807V6.25921C0.852651 8.41827 2.35494 10.2244 4.34446 10.6292C3.70571 10.808 3.03513 10.8329 2.38539 10.7019C2.66109 11.5868 3.20103 12.3611 3.92931 12.9159C4.6576 13.4707 5.53761 13.7782 6.44563 13.7952C4.90643 15.0412 2.99848 15.7148 1.03536 15.7051C0.690241 15.7051 0.34512 15.6844 0 15.6428C1.92861 16.9092 4.22265 17.6462 6.6791 17.6462C14.6778 17.6462 19.073 10.8576 19.073 4.97208C19.073 4.77485 19.073 4.58801 19.0628 4.39079C19.9155 3.76798 20.6463 2.97909 21.2351 2.07602Z" fill="#0066FF"/>
</svg>
