<svg width="71" height="42" viewBox="0 0 71 42" fill="none" xmlns="http://www.w3.org/2000/svg">
<g filter="url(#filter0_b_272_2129)">
<path d="M2.70008 37.76C2.70008 37.1556 3.16792 37.6525 3.47753 37.4011C3.96232 37.0075 4.24167 36.8641 4.80642 36.5489C6.08263 35.8365 7.30772 35.0439 8.59424 34.2075C9.78711 33.432 10.8825 32.5468 11.8939 31.5432C12.76 30.6837 13.7672 30.0064 14.4884 29.0044C14.874 28.4687 15.3727 27.8886 15.7902 27.4255C16.1273 27.0516 16.8625 26.1321 17.0016 25.6493C17.3036 24.6003 18.1554 23.5226 18.9 22.7427C19.7893 21.8111 20.6182 20.8023 21.4945 19.8362C21.841 19.4541 22.4248 18.9065 22.8776 18.6699C23.453 18.3694 23.9024 17.6439 24.4235 17.414C25.2767 17.0377 25.7061 16.202 26.4575 15.7634C26.8095 15.5579 27.0473 15.0883 27.4339 14.8663C27.593 14.7748 28.0222 14.6036 28.0757 14.4177C28.1753 14.0719 28.4293 14.3091 28.6452 14.0948C29.0449 13.6982 29.4107 13.6264 29.947 13.5296C30.3912 13.4495 30.7076 12.9172 31.1765 12.8927C32.223 12.838 32.9319 12.0853 33.9427 12.0853C34.9892 12.0853 36.0053 11.6009 37.1158 11.6009C38.1608 11.6009 39.1551 10.8735 40.1623 10.7935C40.4547 10.7703 40.9555 10.3372 41.2652 10.1835C41.4847 10.0746 42.121 9.6214 42.2416 9.41199C42.4767 9.00364 42.771 8.62574 42.9286 8.17401C43.0858 7.72339 43.101 7.16803 43.3083 6.75661C43.6767 6.02551 43.5855 5.1718 44.2304 4.53183C44.8518 3.91516 45.0397 3.20414 46.0655 3.20414C47.0581 3.20414 48.1066 2.83285 48.9855 2.39676C50.0285 1.87927 50.985 1.91233 52.1676 1.91233C53.1693 1.91233 54.2182 1.81321 55.169 2.08278C55.5398 2.18793 55.6999 2.39676 56.1543 2.39676C56.5152 2.39676 57.4026 2.38655 57.664 2.59412C58.0029 2.86318 58.4515 3.04362 58.8754 3.16825C59.1886 3.26034 59.5134 3.1439 59.8156 3.29385C60.1452 3.45739 60.1588 3.62898 60.5388 3.69754C61.5974 3.88853 62.2543 4.63829 63.1423 5.14185C64.8463 6.10807 65.8908 8.10644 67.0477 9.58243C68.3091 11.1918 69.0907 12.929 69.0907 14.9919C69.0907 15.572 69.0907 16.1521 69.0907 16.7322C69.0907 17.2949 68.7052 17.3999 68.6116 17.8177C68.4343 18.6094 67.9219 19.4531 67.337 20.0335C67.0917 20.2769 66.8634 20.5214 66.6137 20.7691C66.3241 21.0565 66.0856 21.1239 65.7549 21.3791C64.8374 22.0873 63.8246 22.416 62.9073 22.9849C62.3589 23.3251 61.7927 23.1563 61.1897 23.2361C60.6291 23.3103 60.2227 23.5501 59.6529 23.5501C58.5229 23.5501 57.4523 23.7116 56.317 23.7116C54.7441 23.7116 53.1711 23.7116 51.5981 23.7116C50.2929 23.7116 48.1002 25.2031 47.7651 26.367C47.6838 26.6493 47.4366 26.9306 47.286 27.1923C47.0528 27.5971 47.075 28.1567 46.7978 28.4661C46.2678 29.0579 46.5322 30.0724 46.1831 30.7268C45.7681 31.5046 44.9354 32.1623 44.2666 32.826C44.1464 32.9453 43.5182 33.2281 43.3806 33.2476C43.0457 33.2951 42.3461 33.6761 42.0427 33.8846C41.4297 34.3057 40.0484 34.5305 39.3035 34.5305C37.6909 34.5305 36.0751 34.8534 34.4399 34.8534C32.766 34.8534 31.0273 34.7152 29.4227 34.2434C28.5286 33.9805 27.6204 33.9347 26.7016 33.732C25.8838 33.5517 24.856 33.7231 24.0167 33.7231C23.053 33.7231 21.9078 33.5314 21.0877 34.0101C20.6426 34.2699 20.1169 34.2741 19.6232 34.4946C19.4243 34.5834 19.2335 34.7673 19.0446 34.8355C18.8349 34.9112 18.4758 34.7427 18.3214 34.9341C18.0647 35.2526 17.2879 34.8003 17.0196 35.2661C16.8113 35.6279 15.7964 35.6486 15.3924 35.6608C14.996 35.6727 14.704 35.9652 14.2172 35.9837C13.5599 36.0088 12.9005 36.1452 12.2103 36.1452C10.9774 36.1452 9.81478 36.4682 8.62136 36.4682C7.41636 36.4682 6.29668 36.7911 5.06859 36.7911C4.65613 36.7911 2.33217 36.7647 2.36559 36.8808C2.49577 37.333 2.73344 38.2444 3.35096 38.2444C3.81421 38.2444 4.15774 38.3386 4.58042 38.4149C4.7533 38.446 5.78394 38.6677 5.91836 38.7647C6.53018 39.2063 8.50529 38.8903 9.28129 38.8903C10.2976 38.8903 11.2615 38.7671 12.2645 38.7288C12.6127 38.7155 12.9721 38.4237 13.277 38.4059C13.5828 38.388 14.4167 38.1527 14.6692 37.9932C15.2951 37.598 16.4065 36.7911 17.11 36.7911C17.9338 36.7911 18.6222 36.1216 19.2977 35.7864C19.9482 35.4636 20.9464 35.0191 21.6572 34.8624C23.4606 34.4647 25.2242 34.2075 27.1084 34.2075" stroke="#D22A2A" stroke-width="3" stroke-linecap="round"/>
</g>
<g filter="url(#filter1_b_272_2129)">
<path d="M18.5369 31.4897C18.9212 31.4599 19.3026 31.2824 19.6573 31.1498C20.4198 30.8648 21.1811 30.5811 21.9514 30.3182C22.2788 30.2065 22.4593 30.0532 22.7383 29.9203C23.3301 29.6383 23.9608 29.0803 24.4233 28.6281C25.9346 27.1504 26.422 24.8502 27.6422 23.2C28.3788 22.2037 29.2698 21.3637 30.0208 20.3787C30.3623 19.9306 30.7591 19.5598 31.11 19.1267C31.3937 18.7765 31.7439 18.2713 32.1415 18.0492C32.7132 17.7297 33.3088 17.4601 33.8665 17.1236C34.2104 16.9161 34.6247 16.7875 34.9869 16.6005C35.3327 16.4219 35.6395 16.1695 35.9827 15.9969C37.1814 15.3941 38.3089 14.6617 39.5439 14.1502C40.791 13.6338 41.7025 12.621 42.4649 11.5256C42.9185 10.8739 43.3898 10.2422 43.852 9.59854C44.0359 9.34255 44.1234 8.98728 44.3411 8.749C44.45 8.62976 44.8186 8.3357 44.8612 8.18563C44.9548 7.85632 45.71 7.58473 45.9861 7.44341C46.6277 7.11489 47.2528 6.70167 47.9245 6.44185C48.9622 6.04047 50.0571 5.81612 51.1611 5.63703C51.5626 5.5719 51.9147 5.42726 52.326 5.41347C52.5218 5.4069 52.8932 5.39063 53.0684 5.29275C53.133 5.25668 53.4861 5.23827 53.393 5.21226C52.9472 5.08772 52.416 5.17202 51.9525 5.17202C50.9656 5.17202 52.3726 4.72969 52.7261 4.64889C53.3384 4.50894 54.0675 4.60865 54.7001 4.60865C55.6799 4.60865 56.54 4.68116 57.3232 5.21673C57.832 5.56472 58.3383 5.83544 58.8526 6.17358C59.1299 6.35592 59.5843 6.70118 59.9107 6.70118C60.3494 6.70118 61.1146 6.97149 61.449 7.24667C61.6537 7.41512 61.9233 7.74716 62.1514 7.89053C62.3625 8.02317 62.5728 8.41661 62.7161 8.63275C62.9768 9.02601 63.1735 9.23749 63.1918 9.6969C63.2015 9.94056 63.2246 10.399 63.3118 10.6448C63.4999 11.1744 64.2941 10.3307 64.6723 10.5062C65.0213 10.6682 65.0665 11.314 65.3169 11.5659C65.4543 11.7041 65.3674 11.7956 65.4681 11.9504C65.706 12.3164 66.0727 12.7984 66.0727 13.2605C66.0727 14.1486 66.2328 14.9757 66.2328 15.8761C66.2328 16.6198 65.5206 17.4056 64.8368 17.6557C64.6188 17.7354 64.4537 18.0297 64.2321 18.1252C64.001 18.2248 63.7218 18.2135 63.5119 18.3085C63.1034 18.4933 62.6989 18.5566 62.2759 18.693C62.0138 18.7775 61.7085 18.8372 61.4668 18.9523C61.3229 19.0209 60.9862 19.2564 61.3112 19.2564C61.6513 19.2564 62.0278 19.2045 62.3604 19.2653C62.475 19.2863 61.6454 19.833 61.4668 19.9181C60.8266 20.2231 60.0595 19.9162 59.3905 20.0657C59.0462 20.1426 58.7736 20.4866 58.4346 20.5486C58.1175 20.6066 57.9272 20.866 57.5721 20.866C57.0314 20.866 56.4781 20.784 55.9405 20.6693C55.3942 20.5528 54.6029 20.834 54.8512 20.0165C54.9126 19.8146 55.0932 19.6712 55.2158 19.5068C55.2499 19.461 55.4372 19.1848 55.4292 19.1848C55.0184 19.1848 54.5529 19.2702 54.1577 19.3726C53.9212 19.4339 53.7182 19.5783 53.473 19.5783C52.6733 19.5783 51.8236 19.7239 51.1478 20.1014C50.7986 20.2966 50.5394 20.4792 50.1652 20.6246C49.9053 20.7256 49.6103 20.8451 49.3294 20.866C49.0786 20.8847 48.876 21.1253 48.6269 21.1969C48.4725 21.2413 48.1252 21.5559 47.9867 21.6753C47.7869 21.8476 47.6437 21.9607 47.471 22.1537C47.2014 22.455 47.0607 22.842 46.8219 23.1508C46.724 23.2774 46.578 23.4811 46.4618 23.5979C46.2612 23.7996 46.2716 23.9207 46.1461 24.1658C45.9282 24.5912 45.4809 24.8739 45.2703 25.3328C45.0958 25.7129 44.7657 25.9871 44.6256 26.3746C44.5256 26.6512 44.3043 26.9561 44.1632 27.2241C43.9794 27.5734 43.7015 27.8802 43.5052 28.2257C43.1225 28.8993 42.543 29.5118 41.8869 29.9605C41.1704 30.4505 40.2808 30.9575 39.4239 31.1856C38.9964 31.2994 38.7546 31.4492 38.308 31.4941C37.6013 31.5652 36.9012 31.5701 36.1828 31.5701C35.584 31.5701 34.9843 31.8116 34.4 31.8116C33.7194 31.8116 33.0052 31.7427 32.3326 31.8518C31.0701 32.0566 29.6653 31.8921 28.3802 31.8921C27.9462 31.8921 27.3898 31.9849 26.9842 31.8295C26.7395 31.7357 26.4302 31.8579 26.175 31.7937C25.9634 31.7405 25.847 31.6506 25.6193 31.6506C25.4664 31.6506 25.2935 31.6277 25.1436 31.6551C24.9909 31.683 24.2469 32.045 24.6012 31.5523C25.6721 30.0631 27.307 29.2334 28.5669 27.9663C28.9991 27.5317 29.4818 27.1282 29.8829 26.6607C30.2785 26.1998 30.5713 25.6686 30.9766 25.2121C31.7342 24.3588 32.4634 23.4745 33.3241 22.7171C34.4093 21.7621 35.6483 21.0041 36.7786 20.1014C37.3378 19.6548 37.8821 19.1728 38.4725 18.769C39.3198 18.1895 40.2942 17.7612 41.2289 17.3427C42.51 16.7691 43.7631 16.1528 45.0346 15.5632C45.6066 15.2979 46.1604 15.0834 46.6663 14.6957C46.8011 14.5924 47.0594 14.489 47.0975 14.3067C47.2907 13.3842 47.348 12.4841 47.8089 11.6285C48.0064 11.2617 48.0538 11.0838 48.3691 10.7879C49.1511 10.0539 50.7252 9.96572 51.7391 9.92494C52.9932 9.87449 54.2218 9.92944 55.4737 9.77739C56.0204 9.71098 56.7429 9.74756 57.2698 9.55829C58.2401 9.20979 59.4257 10.4432 60.0263 11.0472C60.3968 11.4199 60.951 12.0072 60.951 12.5764C60.951 12.8938 60.951 13.2113 60.951 13.5287C60.951 13.8826 60.7496 13.9726 60.4709 14.186C58.9024 15.3867 56.8785 15.1518 54.9935 15.1518C53.9546 15.1518 52.9158 15.1518 51.8769 15.1518C50.9667 15.1518 50.1087 14.8484 49.2049 14.8299C48.2451 14.8102 47.6889 14.9797 46.9908 15.7152C46.5677 16.161 46.4152 16.987 46.2261 17.5573C46.0818 17.9927 45.7979 18.351 45.6037 18.7556C45.3424 19.2999 44.6307 19.2872 44.1543 19.5068C43.3104 19.8958 42.5036 20.3114 41.6824 20.7498C40.2454 21.5168 38.7772 22.2012 37.6633 23.4459C37.175 23.9916 36.7852 24.5894 36.245 25.1047C35.5877 25.732 34.86 26.2696 34.2222 26.9111C33.9144 27.2206 33.4931 27.4889 33.1196 27.707C32.8761 27.8492 32.5229 27.9828 32.3504 28.2257C32.3125 28.2791 33.1541 28.2705 33.164 28.2704C34.2125 28.2602 35.2322 28.1404 36.2673 27.9842C37.006 27.8728 37.8728 27.5433 38.428 27.0408C39.084 26.447 39.4845 25.7383 40.0641 25.0869C40.2161 24.916 40.3685 24.6148 40.482 24.4072C40.5727 24.2414 41.302 24.0077 41.18 23.8707C40.8074 23.4519 40.092 23.1761 39.6195 22.896C39.1837 22.6376 38.6751 22.4164 38.2857 22.0867C37.9314 21.7865 37.4698 21.7127 37.0942 21.4473C36.5938 21.0936 36.3346 20.6727 35.9827 20.1596C35.6046 19.6081 35.343 18.9481 34.9735 18.4113C34.5868 17.8495 34.162 17.1081 34.0443 16.4216C33.9844 16.0719 33.513 15.4853 33.7953 15.0981C33.8631 15.0052 34.3587 14.5169 34.2044 14.5169C33.8966 14.5169 33.4286 14.7148 33.164 14.8656C32.2773 15.371 31.4136 15.877 30.5054 16.359C29.4917 16.897 28.5062 17.4157 27.7489 18.2861C27.2971 18.8054 26.9095 19.3421 26.3795 19.8019C26.0958 20.0481 25.862 20.3561 25.5348 20.5441C25.2175 20.7265 24.7959 21.0454 24.5478 21.3087C24.2879 21.5846 23.9912 21.8249 23.7031 22.0733C23.37 22.3604 23.1809 22.7839 22.8762 23.1016C22.4199 23.5775 22.0243 24.1496 21.6402 24.6845C21.3071 25.1482 20.9869 25.6382 20.6087 26.0661C20.103 26.6382 19.424 26.9723 18.946 27.5818C18.6505 27.9585 18.2385 28.2235 17.9145 28.5744C17.7418 28.7614 17.6561 29.0238 17.501 29.2317C17.3241 29.469 17.2052 29.7812 17.0609 30.041C16.9198 30.2949 16.6053 30.454 16.4607 30.7206C16.2815 31.051 15.9225 31.5078 15.656 31.7758C15.4166 32.0165 15.2885 32.3421 15.0558 32.5762C14.9483 32.6842 14.9001 32.8166 14.7357 32.8534C14.5104 32.9037 14.5977 32.9367 14.4378 33.0814C14.3762 33.1372 14.1468 33.121 14.0555 33.1619C13.9054 33.229 13.8488 33.3526 13.6953 33.4212C13.0973 33.6885 12.7845 34.402 12.2504 34.7089C12.0532 34.8223 11.5056 35.3169 11.3968 35.5138C11.288 35.7107 10.9865 36.2786 10.7744 36.3186C10.6671 36.3388 10.5328 36.5993 10.3564 36.6584C10.1439 36.7297 10.0287 36.8561 9.81849 36.9222C9.36403 37.065 9.75867 36.9832 10.1386 37.0429C10.8222 37.1503 11.5213 37.1589 12.2059 37.0429C13.8408 36.766 15.0662 35.4625 16.6163 34.9862C16.9486 34.884 17.4339 34.7235 17.7322 34.5435C18.0444 34.3552 17.6893 34.4693 17.5499 34.5211C16.8845 34.7686 16.2741 35.1389 15.6026 35.3707C14.7594 35.6618 13.9975 35.8526 13.2196 36.3007C12.7433 36.5751 12.217 36.7088 11.7124 36.9177C10.86 37.2707 10.1429 37.9282 9.17383 37.9282" stroke="#D22A2A" stroke-width="7" stroke-linecap="round"/>
</g>
<g filter="url(#filter2_f_272_2129)">
<path d="M67.2304 16.641C67.1543 16.839 67.1131 17.0275 67.0875 17.2393C66.9912 18.036 66.1468 18.6452 65.6384 19.1813C65.3945 19.4386 65.1457 19.6914 64.9105 19.9568C64.7803 20.1037 64.4157 20.4675 64.6114 20.4649C64.7767 20.4627 65.0782 20.2918 65.2429 20.2242C65.257 20.2184 65.5046 20.0654 65.5154 20.0872C65.6532 20.3643 64.4856 21.0592 64.289 21.1702C64.2478 21.1934 64.1327 21.2679 64.1793 21.2604C64.5226 21.2056 64.86 21.0803 65.1764 20.9395C65.4801 20.8044 66.3328 20.3342 65.4556 20.5451C64.5097 20.7725 63.5877 20.9411 62.6105 20.9094C61.9046 20.8865 62.3519 19.0237 62.4045 18.6599C62.5736 17.4903 62.9593 16.371 63.149 15.2103C63.1684 15.0913 63.2172 14.9024 63.0559 14.8961C62.8591 14.8885 62.6798 14.9655 62.4975 15.0332C60.9622 15.6033 59.4076 16.0911 57.8444 16.5808C56.02 17.1523 54.2484 17.84 52.4601 18.5128C52.0838 18.6544 50.8316 19.3204 50.4858 18.827C50.1433 18.3383 49.4926 18.0991 48.9437 17.9479C48.7553 17.896 48.2867 17.9562 48.3554 17.6939C48.4004 17.5217 48.4586 17.4505 48.6379 17.5836C49.2126 18.0104 49.5898 18.6868 50.1269 19.1613C50.3611 19.3682 50.7474 19.297 51.0376 19.3585C51.2672 19.4071 52.3956 19.5615 52.4501 19.8632C52.5823 20.5944 52.4106 21.3478 52.7526 22.0559C52.7793 22.1112 53.2747 22.4114 52.7925 22.3467C52.7118 22.3359 52.5746 22.0715 52.5598 22.0492C52.0757 21.3189 51.6066 20.5823 51.1904 19.8097C50.0648 17.7198 49.0111 15.4561 48.5116 13.1179C48.2801 12.0344 48.2657 10.9093 48.1194 9.81208C48.0545 9.32566 48.0263 8.86199 48.0263 8.37143C48.0263 7.74251 48.2725 7.10277 47.7671 6.61992C47.5414 6.40433 47.342 6.14045 47.1356 5.90461C46.9851 5.73265 47.0004 5.56201 46.8863 5.38985C46.7453 5.17715 46.6173 4.94074 46.5307 4.70128C46.4874 4.58146 46.4121 4.5503 46.318 4.47398C46.1832 4.36468 46.3363 4.39585 46.4243 4.46061C47.0701 4.93568 47.4238 5.74721 47.6474 6.4929C48.4033 9.01332 48.2639 11.8926 47.0458 14.2376C46.3885 15.5032 45.4959 16.6815 44.7293 17.8877C43.5263 19.7804 43.001 21.7995 43.001 24.0347C43.001 24.4121 43.0847 24.7917 43.0541 25.1679C43.0056 25.7658 42.8409 26.4427 42.632 27.0029C42.3033 27.8845 41.9241 28.7448 41.9241 29.6971C41.9241 30.0748 41.9241 30.4525 41.9241 30.8302C41.9241 31.2652 41.7813 31.5699 41.6914 31.9767C41.6189 32.305 41.4976 32.6178 41.1929 32.8257C41.0602 32.9163 40.8949 32.9453 40.7641 33.0363C40.5329 33.1973 41.3882 33.1791 41.4687 33.1767C42.096 33.1579 42.3527 32.8863 42.8082 32.5516C42.9448 32.4512 43.1229 32.1694 43.1804 32.0101C43.2596 31.7912 43.4863 31.6244 43.6723 31.5021C44.0758 31.2367 44.6102 31.2408 44.9486 30.9004C45.1682 30.6795 45.234 30.1913 45.3042 29.901C45.5008 29.0884 45.339 28.349 44.7957 27.7116" stroke="#D22A2A" stroke-width="3" stroke-linecap="round"/>
</g>
<path d="M5.09095 38.1762L34.8242 24.7532L61.765 9.99985" stroke="url(#paint0_linear_272_2129)"/>
<defs>
<filter id="filter0_b_272_2129" x="-0.136841" y="-0.606956" width="71.7276" height="42.1068" filterUnits="userSpaceOnUse" color-interpolation-filters="sRGB">
<feFlood flood-opacity="0" result="BackgroundImageFix"/>
<feGaussianBlur in="BackgroundImageFix" stdDeviation="0.5"/>
<feComposite in2="SourceAlpha" operator="in" result="effect1_backgroundBlur_272_2129"/>
<feBlend mode="normal" in="SourceGraphic" in2="effect1_backgroundBlur_272_2129" result="shape"/>
</filter>
<filter id="filter1_b_272_2129" x="1.67383" y="-2.92595" width="72.059" height="48.3542" filterUnits="userSpaceOnUse" color-interpolation-filters="sRGB">
<feFlood flood-opacity="0" result="BackgroundImageFix"/>
<feGaussianBlur in="BackgroundImageFix" stdDeviation="2"/>
<feComposite in2="SourceAlpha" operator="in" result="effect1_backgroundBlur_272_2129"/>
<feBlend mode="normal" in="SourceGraphic" in2="effect1_backgroundBlur_272_2129" result="shape"/>
</filter>
<filter id="filter2_f_272_2129" x="38.2244" y="1.90146" width="31.5064" height="33.777" filterUnits="userSpaceOnUse" color-interpolation-filters="sRGB">
<feFlood flood-opacity="0" result="BackgroundImageFix"/>
<feBlend mode="normal" in="SourceGraphic" in2="BackgroundImageFix" result="shape"/>
<feGaussianBlur stdDeviation="0.5" result="effect1_foregroundBlur_272_2129"/>
</filter>
<linearGradient id="paint0_linear_272_2129" x1="33.9699" y1="25.1779" x2="33.428" y2="24.088" gradientUnits="userSpaceOnUse">
<stop stop-color="white"/>
<stop offset="1" stop-color="white" stop-opacity="0"/>
</linearGradient>
</defs>
</svg>
