<svg width="26" height="23" viewBox="0 0 26 23" fill="none" xmlns="http://www.w3.org/2000/svg">
<path d="M23.5072 3.14387C22.9239 2.57581 22.2313 2.12519 21.469 1.81774C20.7066 1.51029 19.8896 1.35205 19.0644 1.35205C18.2392 1.35205 17.4222 1.51029 16.6598 1.81774C15.8975 2.12519 15.2049 2.57581 14.6216 3.14387L13.4109 4.32225L12.2003 3.14387C11.022 1.99697 9.42382 1.35265 7.75743 1.35265C6.09104 1.35265 4.4929 1.99697 3.31459 3.14387C2.13627 4.29078 1.4743 5.84631 1.4743 7.46828C1.4743 9.09025 2.13627 10.6458 3.31459 11.7927L4.52523 12.9711L13.4109 21.6199L22.2966 12.9711L23.5072 11.7927C24.0909 11.2249 24.5538 10.5507 24.8697 9.80874C25.1856 9.06675 25.3481 8.27145 25.3481 7.46828C25.3481 6.66511 25.1856 5.86981 24.8697 5.12781C24.5538 4.38582 24.0909 3.71167 23.5072 3.14387V3.14387Z" stroke="#13171B" stroke-linecap="round" stroke-linejoin="round"/>
</svg>
