<svg width="24" height="22" viewBox="0 0 24 22" fill="none" xmlns="http://www.w3.org/2000/svg">
<path d="M11.885 6.99031C9.53115 6.99031 7.62463 8.74374 7.62463 10.9086C7.62463 13.0735 9.53115 14.8269 11.885 14.8269C14.2389 14.8269 16.1454 13.0735 16.1454 10.9086C16.1454 8.74374 14.2389 6.99031 11.885 6.99031ZM21.407 9.92902C21.1657 7.94257 20.1972 6.09061 18.6604 4.67724C17.1237 3.26387 15.11 2.3731 12.9501 2.15122V0.133301H10.8199V2.15122C8.66004 2.3731 6.64638 3.26387 5.10961 4.67724C3.57284 6.09061 2.6043 7.94257 2.36305 9.92902H0.168945V11.8882H2.36305C2.6043 13.8746 3.57284 15.7266 5.10961 17.14C6.64638 18.5533 8.66004 19.4441 10.8199 19.666V21.6839H12.9501V19.666C15.11 19.4441 17.1237 18.5533 18.6604 17.14C20.1972 15.7266 21.1657 13.8746 21.407 11.8882H23.6011V9.92902H21.407ZM11.885 17.7656C7.76309 17.7656 4.42934 14.6995 4.42934 10.9086C4.42934 7.11765 7.76309 4.05159 11.885 4.05159C16.0069 4.05159 19.3407 7.11765 19.3407 10.9086C19.3407 14.6995 16.0069 17.7656 11.885 17.7656Z" fill="black"/>
</svg>
