<svg width="40" height="40" viewBox="0 0 40 40" fill="none" xmlns="http://www.w3.org/2000/svg">
<g clip-path="url(#clip0_72_1223)">
<path d="M39.2383 21.6991C38.7305 22.2069 38.1185 22.4608 37.4023 22.4608C36.6862 22.4608 36.0807 22.2004 35.5859 21.6796L35 21.1327V37.4608H38.75C39.0885 37.4608 39.3815 37.5845 39.6289 37.8319C39.8763 38.0793 40 38.3723 40 38.7108C40 39.0494 39.8763 39.3423 39.6289 39.5897C39.3815 39.8371 39.0885 39.9608 38.75 39.9608H1.28906C0.950521 39.9608 0.657552 39.8371 0.410156 39.5897C0.16276 39.3423 0.0390625 39.0494 0.0390625 38.7108C0.0390625 38.3723 0.16276 38.0793 0.410156 37.8319C0.657552 37.5845 0.950521 37.4608 1.28906 37.4608H5V21.1327L4.41406 21.6796C3.91927 22.2004 3.3138 22.4608 2.59766 22.4608C1.88151 22.4608 1.26953 22.2069 0.761719 21.6991C0.253906 21.1913 0 20.5793 0 19.8632C0 19.147 0.247396 18.5416 0.742188 18.0468L18.0859 0.742094C18.6068 0.221261 19.2448 -0.0261347 20 -9.30066e-05C20.7552 -0.0261347 21.3932 0.221261 21.9141 0.742094L39.2188 18.0468C39.7396 18.5416 40 19.147 40 19.8632C40 20.5793 39.7461 21.1913 39.2383 21.6991ZM17.5 26.2108C17.5 25.8723 17.3763 25.5793 17.1289 25.3319C16.8815 25.0845 16.5885 24.9608 16.25 24.9608H11.25C10.9115 24.9608 10.6185 25.0845 10.3711 25.3319C10.1237 25.5793 10 25.8723 10 26.2108V37.4608H17.5V26.2108ZM30 26.2108C30 25.8723 29.8763 25.5793 29.6289 25.3319C29.3815 25.0845 29.0885 24.9608 28.75 24.9608H23.75C23.4115 24.9608 23.1185 25.0845 22.8711 25.3319C22.6237 25.5793 22.5 25.8723 22.5 26.2108V31.2108C22.5 31.5494 22.6237 31.8423 22.8711 32.0897C23.1185 32.3371 23.4115 32.4608 23.75 32.4608H28.75C29.0885 32.4608 29.3815 32.3371 29.6289 32.0897C29.8763 31.8423 30 31.5494 30 31.2108V26.2108Z" fill="#0D0C0C"/>
</g>
<defs>
<clipPath id="clip0_72_1223">
<rect width="40" height="39.9609" fill="white"/>
</clipPath>
</defs>
</svg>
